<svg xmlns="http://www.w3.org/2000/svg" width="71" height="71" fill="none"><path fill="#307BF0" d="M23.67 0C13.87 0 5.92 7.95 5.92 17.75v13.02a8.3 8.3 0 008.28 8.28h1.18v-2.37H14.2a5.92 5.92 0 01-5.92-5.91V17.75a15.38 15.38 0 1130.77 0v13.02a5.92 5.92 0 01-5.92 5.91h-1.18v2.37h1.18a8.3 8.3 0 008.29-8.28V17.75C41.42 7.95 33.47 0 23.67 0zM9.75 55.77l.87-1.36-2-1.27-.87 1.36a11.8 11.8 0 00.5 13.35V71h2.36v-3.55c0-.27-.1-.53-.26-.74a9.43 9.43 0 01-.6-10.94zM65.08 0H49.7a5.92 5.92 0 00-5.92 5.92v11.83a5.92 5.92 0 005.92 5.92h2.37v4.73a1.18 1.18 0 002.02.84l5.57-5.57h5.42A5.92 5.92 0 0071 17.75V5.92A5.92 5.92 0 0065.08 0zm3.55 17.75a3.55 3.55 0 01-3.55 3.55h-5.91c-.32 0-.62.12-.84.35l-3.9 3.9v-3.07c0-.65-.53-1.18-1.18-1.18H49.7a3.55 3.55 0 01-3.55-3.55V5.92a3.55 3.55 0 013.55-3.55h15.38a3.55 3.55 0 013.55 3.55v11.83z"/><path fill="#213C94" d="M57.98 5.92H49.7v2.36h8.28V5.92zM65.08 5.92h-4.73v2.36h4.73V5.92zM65.08 10.65H49.7v2.37h15.38v-2.37zM57.98 15.38H49.7v2.37h8.28v-2.37z"/><path fill="#307BF0" d="M39.58 54.5l-.86-1.36-2 1.27.86 1.36a9.43 9.43 0 01-.6 10.94c-.16.21-.26.47-.25.74V71h2.36v-3.15a11.8 11.8 0 00.49-13.35z"/><path fill="#213C94" d="M69.82 40.23H59.17a8.28 8.28 0 00-8.27 7.95l-3.57 6.42v-4.9a8.3 8.3 0 00-8.28-8.28h-4.33l-.03-.03-.02.03h-2.72a2.37 2.37 0 01-2.37-2.37v-2.78a11.83 11.83 0 005.92-10.24v-9.46c0-1.96-.49-3.9-1.42-5.62-.3-.55-.97-.77-1.54-.5l-20.03 9.42c-.41.2-.68.6-.68 1.07v5.1c0 4.22 2.26 8.11 5.92 10.23v2.78c0 1.3-1.06 2.37-2.37 2.37h-7.1A8.3 8.3 0 000 49.7V71h2.37V49.7a5.92 5.92 0 015.91-5.92h3.77l10.65 14.9c.22.3.57.48.95.49h.02c.37 0 .72-.18.94-.48l11.24-14.9h3.2a5.92 5.92 0 015.92 5.91v9.47a1.18 1.18 0 002.21.57l5.58-10.04h6.79L48 71h2.7l11.53-21.3h.48A8.3 8.3 0 0071 41.42c0-.66-.53-1.19-1.18-1.19zM14.2 26.03V21.7l18.27-8.6c.44 1.1.66 2.29.66 3.48v9.46a9.47 9.47 0 11-18.93 0zM23.7 56l-3.66-5.1h7.5l-3.85 5.1zm5.63-7.47H18.34l-3.39-4.74h.43a4.73 4.73 0 004.74-4.73v-1.73c2.3.73 4.79.73 7.1 0v1.73a4.73 4.73 0 004.73 4.73h.95l-3.57 4.74zm33.39-1.19h-9.35a5.93 5.93 0 015.8-4.73h9.34a5.93 5.93 0 01-5.8 4.73z"/></svg>