<svg xmlns="http://www.w3.org/2000/svg" width="72" height="60" fill="none"><path fill="#307BF0" d="M23.31 12.55c-.14-.06-.29-.1-.44-.16v-3c.73.12 1.26.38 1.28.39a1.05 1.05 0 00.94-1.89 7.15 7.15 0 00-2.22-.62V6.9a1.05 1.05 0 10-2.1 0v.53c-.04 0-.08.02-.12.03a3.32 3.32 0 00-2.28 2.6 2.96 2.96 0 00.99 2.92c.36.29.81.56 1.4.83v3.87a2.97 2.97 0 01-1.12-.51 1.05 1.05 0 10-1.16 1.76c.87.57 1.5.8 2.28.88v.5a1.05 1.05 0 102.11 0v-.6a4 4 0 002.84-3.17 3.52 3.52 0 00-2.4-3.98zm-2.65-1.24c-.2-.16-.28-.5-.21-.87.04-.21.14-.45.31-.65v1.6a3.02 3.02 0 01-.1-.08zm2.97 4.87a1.9 1.9 0 01-.76 1.21v-2.74c.84.43.81 1.2.76 1.53z"/><path fill="#213C94" d="M51.48 8.64a1.05 1.05 0 100-2.11H39.2a1.05 1.05 0 100 2.1h12.3z"/><path fill="#307BF0" d="M33.92 12.73c0 .58.47 1.05 1.05 1.05h16.51a1.05 1.05 0 100-2.1h-16.5c-.59 0-1.06.47-1.06 1.05z"/><path fill="#213C94" d="M34.97 18.93h16.51a1.05 1.05 0 100-2.11h-16.5a1.05 1.05 0 100 2.11z"/><path fill="#307BF0" d="M18.88 39.35c-1.01 0-1.83.82-1.83 1.82v10.08c0 1 .82 1.83 1.83 1.83h6.57c1 0 1.83-.82 1.83-1.83V41.17c0-1-.82-1.82-1.83-1.82h-6.57zm6.29 11.62h-6.01v-9.51h6.01v9.5z"/><path fill="#213C94" d="M30.88 38.36v12.9c0 1 .82 1.82 1.83 1.82h6.58c1 0 1.82-.82 1.82-1.83V38.36c0-1-.81-1.83-1.82-1.83H32.7c-1 0-1.83.82-1.83 1.83zm2.11.28h6.02v12.33h-6.02V38.64z"/><path fill="#213C94" d="M69.65 36.92c.06-.23.1-.48.1-.74v-2.01c0-1.3-.88-2.4-2.08-2.71.07-.26.11-.53.11-.8v-2.02c0-.28-.04-.54-.11-.8a2.82 2.82 0 002.08-2.71v-2.01a2.82 2.82 0 00-2.81-2.81h-6.5V2.19C60.44 1 59.46 0 58.25 0H28.92a1.05 1.05 0 100 2.1h29.33c.05 0 .08.05.08.1v55.14c0 .04-.03.08-.08.08h-44.5a.08.08 0 01-.08-.08c0-6.01 0-48.9 0-55.15 0-.04.04-.08.08-.08h10.96a1.05 1.05 0 100-2.11H13.75c-1.2 0-2.2.98-2.2 2.2v23.63H5.07a2.82 2.82 0 00-2.81 2.81v2.01c0 .26.04.51.1.75A2.81 2.81 0 000 34.17v2.01c0 1.4 1.02 2.55 2.35 2.77-.06.24-.1.49-.1.75v2c0 .26.04.51.1.75A2.81 2.81 0 000 45.22v2.01c0 .67.23 1.28.62 1.76A2.8 2.8 0 000 50.75v2a2.82 2.82 0 002.81 2.82H4.5a1.05 1.05 0 100-2.1H2.8a.7.7 0 01-.7-.71v-2.01c0-.4.31-.7.7-.7h8.75v3.41H8.72a1.05 1.05 0 100 2.11h2.84v1.77c0 1.2.98 2.19 2.19 2.19h44.5c1.2 0 2.2-.99 2.2-2.2v-1.76h6.49a2.82 2.82 0 002.81-2.81v-2.01a2.8 2.8 0 00-.62-1.76c.39-.48.62-1.1.62-1.76v-2c0-.27-.04-.52-.1-.75A2.81 2.81 0 0072 41.7V39.7c0-1.4-1.02-2.55-2.35-2.78zm-65.3 4.79V39.7c0-.4.32-.7.71-.7h6.5v3.4h-6.5a.7.7 0 01-.7-.7zm0-13.07c0-.38.32-.7.71-.7h6.5v3.42h-6.5a.7.7 0 01-.7-.7v-2.02zm-2.24 7.54v-2.01c0-.39.31-.7.7-.7h8.75v3.41c-2.1 0-6.67 0-8.75 0a.7.7 0 01-.7-.7zm.7 11.75a.7.7 0 01-.7-.7v-2c0-.4.31-.71.7-.71h8.75v3.41H2.8zm64.83-2.7v2a.7.7 0 01-.7.7h-6.5v-3.41h6.5c.39 0 .7.31.7.7zm-1.96-16.59v2.01a.7.7 0 01-.7.7h-4.54v-3.41h4.53c.39 0 .7.32.7.7zm-5.24 4.83h6.5c.39 0 .7.31.7.7v2.01a.7.7 0 01-.7.7h-6.5v-3.41zm6.5-11.06c.39 0 .7.32.7.7v2.02a.7.7 0 01-.7.7c-1.1 0-4.83 0-6.5 0v-3.42h6.5zm.7 30.35a.7.7 0 01-.7.7h-6.5v-3.42h6.5c.39 0 .7.32.7.7v2.02zM69.9 41.7a.7.7 0 01-.7.7c-2.08 0-6.64 0-8.75 0v-3.42h8.75c.39 0 .7.32.7.7v2.02z"/><path fill="#307BF0" d="M53.9 43.75c.58 0 1.05-.47 1.05-1.05v-9.96c0-1.01-.82-1.83-1.83-1.83h-6.57c-1 0-1.83.82-1.83 1.83v18.51c0 1 .82 1.83 1.83 1.83h6.57c1.01 0 1.83-.82 1.83-1.83v-4.34a1.05 1.05 0 10-2.1 0v4.06h-6.02V33.02h6.01v9.68c0 .58.47 1.05 1.06 1.05z"/></svg>