<svg xmlns="http://www.w3.org/2000/svg" width="33" height="35" fill="none"><path fill="#19338B" d="M23.27 18.58a.5.5 0 01.58-.43c.27.05.46.3.42.59a8 8 0 01-2.66 4.82 7.78 7.78 0 01-10.67-.42 8 8 0 010-11.27 7.79 7.79 0 0110.67-.43 8 8 0 012.66 4.82.51.51 0 01-.42.59.5.5 0 01-.58-.43 6.97 6.97 0 00-2.32-4.2 6.78 6.78 0 00-9.3.37c-1.24 1.26-2 3-2 4.91 0 1.92.76 3.65 2 4.91a6.79 6.79 0 009.3.37 6.97 6.97 0 002.32-4.2zm4.49-5.9a.56.56 0 01-.59 0c-1.66-.96-3.32-1.94-4.98-2.9a.51.51 0 01-.26-.45V4.76a13.54 13.54 0 00-10.87 0v4.57c0 .2-.11.38-.28.46-1.65.97-3.3 1.93-4.95 2.9-.18.12-.4.1-.59 0l-1.29-.76a14.05 14.05 0 000 11.14l1.33-.78a.5.5 0 01.51 0l1.31.77c.24.14.32.45.19.7a.5.5 0 01-.7.19l-1.06-.63c-1.34.79-2.68 1.57-4.01 2.35l4.01 2.35 4.02-2.35-.97-.56a.52.52 0 01-.18-.7.5.5 0 01.69-.19l1.72 1.01c.16.1.25.26.25.44v4.57a13.54 13.54 0 0010.87 0v-4.57c0-.2.12-.38.29-.46 1.66-.97 3.33-1.95 5-2.92a.5.5 0 01.5 0l1.33.78a14 14 0 000-11.14l-1.29.76zm-.8-6l-4.01-2.34v4.7c1.34.78 2.67 1.56 4.01 2.34v-4.7zm-3.5-3.23l4 2.35 4.02-2.35-.88-.52a.52.52 0 01-.18-.7.5.5 0 01.68-.18l1.64.96c.16.09.26.25.26.44v5.88c0 .2-.12.38-.29.46-.92.54-1.85 1.09-2.78 1.63a15.07 15.07 0 010 12.16c.93.55 1.88 1.1 2.82 1.65.15.1.25.26.25.44v5.88c0 .2-.12.38-.29.46-1.65.97-3.3 1.93-4.95 2.9a.54.54 0 01-.59 0c-1.65-.98-3.32-1.94-4.98-2.92a.51.51 0 01-.26-.44v-.2a14.6 14.6 0 01-10.87 0v.2c0 .2-.11.38-.28.46-1.65.97-3.3 1.93-4.95 2.9-.2.11-.37.13-.59 0-1.67-.96-3.32-1.94-4.99-2.92a.51.51 0 01-.25-.44v-5.88c0-.2.12-.38.29-.46.92-.54 1.85-1.08 2.78-1.63a15.07 15.07 0 010-12.16c-.94-.55-1.88-1.1-2.82-1.65A.51.51 0 010 9.33V3.45c0-.2.12-.38.29-.46 1.66-.97 3.33-1.95 5-2.92a.5.5 0 01.5 0C7.46 1.05 9.13 2.03 10.8 3c.26.15.26.38.26.66a14.55 14.55 0 0110.87 0v-.21c0-.2.12-.38.29-.46 1.66-.97 3.33-1.95 5-2.92a.5.5 0 01.5 0l1.4.82c.24.14.32.45.18.7a.5.5 0 01-.68.18l-1.15-.67c-1.34.78-2.68 1.57-4.02 2.35zm4.51 3.23v4.7c1.34-.78 2.68-1.56 4.02-2.34v-4.7l-4.02 2.34zm-1 22.23l-4.02-2.35v4.7c1.34.78 2.67 1.56 4.01 2.35v-4.7zm-3.52-3.24l4.02 2.35 4.01-2.35c-1.34-.78-2.67-1.56-4.01-2.35-1.34.79-2.68 1.57-4.02 2.35zM5.03 28.91L1 26.56v4.7c1.34.78 2.68 1.56 4.02 2.35v-4.7zm1 0v4.7c1.35-.79 2.68-1.57 4.02-2.35v-4.7L6.04 28.9zm-1-22.23L1 4.34v4.7c1.34.78 2.68 1.56 4.02 2.34v-4.7zM1.52 3.45L5.53 5.8l4.02-2.35C8.2 2.67 6.87 1.88 5.53 1.1c-1.34.78-2.68 1.57-4.01 2.35zm4.52 3.23v4.7c1.34-.78 2.67-1.56 4.01-2.34v-4.7L6.04 6.68zm25.95 19.88l-4.02 2.35v4.7c1.34-.79 2.68-1.57 4.02-2.35v-4.7z"/></svg>