<svg xmlns="http://www.w3.org/2000/svg" width="32" height="26" fill="none"><g fill="#19338B" clip-path="url(#clip0)"><path d="M27.98 26H3.28a3.22 3.22 0 01-3.24-3.25V7.15A3.22 3.22 0 013.28 3.9h24.7a3.22 3.22 0 013.25 3.25v15.6A3.21 3.21 0 0127.98 26zM3.28 5.2a2 2 0 00-1.95 1.95v15.6a2 2 0 001.95 1.95h24.7a2 2 0 001.95-1.95V7.15a2 2 0 00-1.95-1.95H3.28z"/><path d="M20.18 5.2c-.39 0-.65-.26-.65-.65v-2.6c0-.39-.26-.65-.65-.65h-6.5c-.39 0-.65.26-.65.65v2.6c0 .4-.26.65-.65.65-.4 0-.65-.26-.65-.65v-2.6A2 2 0 0112.38 0h6.5a2 2 0 011.95 1.95v2.6c0 .4-.26.65-.65.65zM15.64 15.6c-.13 0-.13 0-.27 0L.43 10.4c-.27-.13-.52-.52-.4-.9.13-.27.52-.52.91-.4l14.7 5.2 14.69-5.2c.39-.12.65 0 .78.4.12.38 0 .65-.4.77l-14.94 5.2c0 .13 0 .13-.13.13z"/></g><defs><clipPath id="clip0"><path fill="#fff" d="M0 0h31.23v26H0z"/></clipPath></defs></svg>