<svg xmlns="http://www.w3.org/2000/svg" width="28" height="43" fill="none"><path fill="#19338B" d="M14.1 34.5a1.14 1.14 0 00-.38-.01c-1.26-.14-2.2-1.1-2.2-2.25 0-.55-.49-1-1.1-1-.6 0-1.09.45-1.09 1 0 1.92 1.41 3.6 3.44 4.1v1c0 .55.49 1 1.1 1 .6 0 1.09-.45 1.09-1v-.94c2.34-.44 3.93-2.43 3.68-4.6C18.4 29.64 16.4 28 14 28c-1.37 0-2.48-1.01-2.48-2.26 0-1.25 1.11-2.26 2.48-2.26 1.37 0 2.48 1.01 2.48 2.26 0 .55.49 1 1.1 1 .6 0 1.09-.45 1.09-1 0-2.01-1.55-3.75-3.71-4.16v-.9c0-.56-.5-1-1.1-1-.6 0-1.09.44-1.09 1v.96c-2.25.56-3.7 2.55-3.4 4.67.32 2.1 2.3 3.68 4.63 3.68 1.35 0 2.45.99 2.48 2.22.02 1.23-1.04 2.25-2.39 2.3z"/><path fill="#19338B" d="M0 28.42C0 36.47 6.27 43 14 43s14-6.53 14-14.58c0-8.06-6.27-14.59-14-14.59-7.73.01-14 6.54-14 14.59zm14-12.58c6.67 0 12.07 5.63 12.07 12.58 0 6.94-5.4 12.57-12.07 12.57S1.93 35.36 1.93 28.42 7.33 15.85 14 15.84zM15 10.96V1.04C15 .47 14.55 0 14 0s-1 .47-1 1.04v9.92c0 .57.45 1.04 1 1.04s1-.47 1-1.04zM23 10.59V5.74c0-.6-.45-1.07-1-1.07s-1 .48-1 1.07v4.85c0 .6.45 1.08 1 1.08s1-.49 1-1.08zM7.83 10.59V5.74c0-.6-.44-1.07-1-1.07-.55 0-1 .48-1 1.07v4.85c0 .6.45 1.08 1 1.08.56 0 1-.49 1-1.08z"/></svg>