<svg xmlns="http://www.w3.org/2000/svg" width="29" height="31" fill="none"><path fill="#19338B" d="M28.73 15.77l-5-5a3.99 3.99 0 00-5.55-5.55l-5-5a.7.7 0 00-1.14.22L5.2 16.47l-3.7 3.7a5.1 5.1 0 000 7.27 5.1 5.1 0 007.27 0l.6-.6 3.95 3.95a.7.7 0 001 0l2.7-2.7a.7.7 0 000-1l-3.72-3.7 15.2-6.48a.7.7 0 00.22-1.14zM20.46 5.9a2.58 2.58 0 012.25 3.83l-3.51-3.5c.38-.22.81-.33 1.26-.33zM7.78 26.45a3.71 3.71 0 01-5.28 0 3.71 3.71 0 010-5.28l3.3-3.3.1.1 5.18 5.18-3.3 3.3zm7.75 1.15l-1.7 1.7-3.46-3.45 1.7-1.7 3.46 3.45zm8.72-10.4a.71.71 0 00-.04-.05l-8.91-8.9a.7.7 0 00-1 1l8.55 8.54-10.6 4.53-5.61-5.61 6.28-14.76L27 16.02l-2.75 1.18z"/></svg>