<svg xmlns="http://www.w3.org/2000/svg" width="30" height="32" fill="none"><path fill="#19338B" d="M29.38 30.45h-1.36V10.74c0-.92-.74-1.66-1.66-1.66h-3.03c-.92 0-1.67.74-1.67 1.66v19.7h-3.44V19.68c0-.92-.75-1.67-1.67-1.67h-3.03c-.92 0-1.66.75-1.66 1.67v10.78H8.4v-5.59c0-.91-.75-1.66-1.66-1.66H3.7c-.91 0-1.66.75-1.66 1.66v5.59H.62a.62.62 0 100 1.23h28.76a.62.62 0 100-1.23zm-22.2 0h-3.9v-5.59c0-.23.2-.42.43-.42h3.04c.23 0 .42.19.42.42v5.59zm9.8 0h-3.89V19.67c0-.24.2-.43.43-.43h3.03c.24 0 .43.2.43.43v10.78zm9.8 0H22.9V10.74c0-.24.2-.43.43-.43h3.03c.24 0 .43.2.43.43v19.7zM28.02.65a.62.62 0 00-.65-.65s-.02 0-.03 0H23.6a.62.62 0 000 1.24h2.31L19.8 7.36l-2.3-2.31a.62.62 0 00-.88 0L5.5 16.17a.62.62 0 00.87.88L17.05 6.36l2.3 2.3c.25.25.64.25.88 0l6.56-6.55v2.1a.62.62 0 001.23 0V.68s0-.02 0-.03zM3.84 19.39a.62.62 0 100-1.24.62.62 0 000 1.24z"/></svg>