<svg xmlns="http://www.w3.org/2000/svg" width="37" height="37" fill="none"><path fill="#19338B" d="M33.9 15.41a3.09 3.09 0 00-3.01 2.47h-4.41c-.13-1.7-.8-3.3-1.9-4.6l3.11-3.11a3.08 3.08 0 10-.87-.87l-3.12 3.12a7.97 7.97 0 00-4.59-1.9V6.1a3.08 3.08 0 10-1.23 0v4.41c-1.7.13-3.3.8-4.6 1.9L10.18 9.3a3.08 3.08 0 10-.87.87l3.12 3.12a7.97 7.97 0 00-1.9 4.59H6.1a3.08 3.08 0 100 1.23h4.41c.13 1.7.8 3.3 1.9 4.6L9.3 26.81a3.08 3.08 0 10.87.87l3.12-3.11a7.97 7.97 0 004.59 1.9v4.4a3.08 3.08 0 101.23 0v-4.4c1.7-.13 3.3-.8 4.6-1.9l3.11 3.11a3.08 3.08 0 10.87-.87l-3.11-3.12a7.97 7.97 0 001.9-4.59h4.4a3.08 3.08 0 103.03-3.7zM28.1 6.3A1.85 1.85 0 1130.7 8.9 1.85 1.85 0 0128.1 6.3zm-11.44-3.2a1.85 1.85 0 113.7 0 1.85 1.85 0 01-3.7 0zM6.29 8.9A1.85 1.85 0 118.9 6.3 1.85 1.85 0 016.3 8.9zm-3.2 11.45a1.85 1.85 0 110-3.7 1.85 1.85 0 010 3.7zM8.9 30.7a1.85 1.85 0 11-1.3-3.15 1.86 1.86 0 011.3 3.15zm11.45 3.2a1.85 1.85 0 11-3.7 0 1.85 1.85 0 013.7 0zM30.7 28.1a1.85 1.85 0 010 2.61c-.73.7-1.88.7-2.61 0a1.85 1.85 0 012.61-2.61zm-12.2-2.81a6.78 6.78 0 110-13.57 6.78 6.78 0 010 13.57zm15.4-4.93a1.85 1.85 0 110-3.7 1.85 1.85 0 010 3.7z"/></svg>