<svg xmlns="http://www.w3.org/2000/svg" width="41" height="41" fill="none"><path fill="#19338B" d="M35 6c-3.88-3.87-9.02-6-14.5-6-2.75 0-5.42.54-7.94 1.6l.47 1.1a19.14 19.14 0 016.87-1.48V4.5A15.95 15.95 0 009.62 8.77L7.3 6.44a19.26 19.26 0 013.73-2.74l-.6-1.05A20.48 20.48 0 006 35c3.88 3.87 9.02 6 14.5 6s10.62-2.13 14.5-6c3.87-3.88 6-9.02 6-14.5S38.87 9.88 35 6zm4.78 13.9H36.5a15.94 15.94 0 00-4.1-10.11l2.32-2.32a19.22 19.22 0 015.07 12.43zM21.1 1.22c4.95.15 9.43 2.17 12.76 5.38l-2.32 2.32A15.95 15.95 0 0021.1 4.51V1.2zM6.44 7.3l2.33 2.32A15.95 15.95 0 004.5 19.9H1.2A19.34 19.34 0 016.45 7.3zM1.22 21.1H4.5c.15 4.04 1.8 7.7 4.41 10.44L6.6 33.86A19.23 19.23 0 011.22 21.1zM19.9 39.78a19.22 19.22 0 01-12.43-5.07l2.32-2.32a15.94 15.94 0 0010.1 4.1v3.3zm1.2 0V36.5a15.9 15.9 0 005.4-1.16l-.45-1.12A14.82 14.82 0 015.7 20.5c0-8.16 6.64-14.8 14.8-14.8a14.82 14.82 0 017.17 27.75l.59 1.06c1.14-.64 2.19-1.4 3.12-2.27l2.32 2.31a19.22 19.22 0 01-12.6 5.23zm13.45-6.08l-2.31-2.32A16.02 16.02 0 0036.5 21.1h3.28a19.22 19.22 0 01-5.23 12.6z"/><path fill="#19338B" d="M21.14 7.7h-1.28v1.21h1.28v-1.2zM21.14 32.09h-1.28v1.2h1.28v-1.2zM8.95 19.9H7.66v1.2h1.29v-1.2zM12.16 10.91h-1.29v1.2h1.29v-1.2zM30.77 11.55h-1.28v1.21h1.28v-1.2zM30.77 28.24h-1.28v1.2h1.28v-1.2zM11.51 28.24h-1.28v1.2h1.28v-1.2zM33.34 19.9h-1.29v1.2h1.29v-1.2zM13.97 20.5l6.53 8.7 6.53-8.7-6.53-8.7-6.53 8.7zm6.53 6.7l-5.02-6.7 5.02-6.7 5.02 6.7-5.02 6.7z"/></svg>