<svg xmlns="http://www.w3.org/2000/svg" width="39" height="39" fill="none"><path fill="#19338B" d="M38.7 34.66l-.56-.56a.57.57 0 00-.8.81l.47.48-2.42 2.42-4.12-4.12 2.42-2.42 1.92 1.92a.57.57 0 00.81-.81l-2.33-2.32-1.61-1.62L31.05 27a1.02 1.02 0 00-1.45 0l-.08.08-2.05-2.04a15.38 15.38 0 003.03-6.36h4.02a.57.57 0 100-1.14H30.7c.05-.36.09-.73.11-1.1h6.44a.57.57 0 100-1.14h-6.4c0-.37-.02-.74-.05-1.1h3.73a.57.57 0 100-1.15h-3.86a15.24 15.24 0 00-3.14-7.2.57.57 0 00-.9.7 14.3 14.3 0 01-11.2 23.14A14.3 14.3 0 011.13 15.43 14.3 14.3 0 0125.03 4.85a.57.57 0 10.77-.84A15.44 15.44 0 000 15.43c0 7.5 5.4 13.78 12.51 15.14v3.86a.57.57 0 101.14 0v-3.68c.37.04.73.07 1.1.08v6.28a.57.57 0 101.15 0v-6.27c.37 0 .74-.03 1.1-.07v3.66a.57.57 0 101.14 0V30.6a15.36 15.36 0 006.9-3.14l2.05 2.05-.08.08a1.02 1.02 0 000 1.45l1.43 1.43 1.61 1.61 4.6 4.6a1.02 1.02 0 001.46 0l2.59-2.58a1.02 1.02 0 000-1.45zM26.72 25.9l1.99 1.99-.81.8-1.99-1.98c.28-.26.55-.53.81-.8zm3.74 6.97l-.81-.8 2.42-2.43.81.8-2.42 2.43zm-.14-4.98l.95.94-2.43 2.43-.94-.95 2.42-2.42z"/><path fill="#19338B" d="M7.47 25.88a13.15 13.15 0 0021.1-10.46c0-7.24-5.9-13.13-13.14-13.13-3.5 0-6.79 1.36-9.27 3.85a13.27 13.27 0 00-3.87 9.28 12.84 12.84 0 003.3 8.74.57.57 0 10.85-.76 11.7 11.7 0 01-3.01-7.97c.03-3.2 1.3-6.22 3.54-8.48a11.85 11.85 0 018.46-3.52 12 12 0 11-7.27 21.54.57.57 0 10-.7.91z"/><path fill="#19338B" d="M17.6 5.22h-3.97c-.48 0-.87.4-.87.87v2.02h-3.7c-.48 0-.87.4-.87.88v6.13h-.77a.57.57 0 100 1.14h16.39a.57.57 0 100-1.14h-.77v-3.24c0-.48-.4-.87-.87-.87h-3.7V6.09c0-.48-.4-.87-.87-.87zM9.33 9.25h3.43v5.87H9.33V9.25zm4.57-2.89h3.43v8.76H13.9V6.36zm8 5.79v2.97h-3.43v-2.97h3.43zM22.01 21.1h-2.69l-1.22-3.12a.57.57 0 00-1.07.01l-1.66 4.5-1.17-3.3a.57.57 0 00-1.04-.1l-1.12 2.01H9.36a.57.57 0 100 1.15h3.02c.2 0 .4-.12.5-.3l.66-1.2 1.27 3.61a.57.57 0 001.07 0l1.7-4.57.82 2.1c.09.21.3.36.53.36h3.08a.57.57 0 100-1.15z"/></svg>