<svg width="79" height="75" viewBox="0 0 79 75" fill="none" xmlns="http://www.w3.org/2000/svg">
<path d="M78.5229 12.2845L72.7645 8.09799V2.5825C72.7645 1.51931 71.899 0.6538 70.8358 0.6538H67.7643C66.7005 0.6538 65.8356 1.51931 65.8356 2.5825V3.06046L62.1831 0.40548C61.4394 -0.13516 60.3177 -0.13516 59.5745 0.40548L43.2348 12.2845C42.7177 12.6606 42.6031 13.3838 42.9792 13.901C43.2059 14.2126 43.5585 14.3783 43.9159 14.3783C44.1521 14.3783 44.3902 14.306 44.5957 14.1565L46.4184 12.8318V26.9083H44.7289C44.0895 26.9083 43.5717 27.426 43.5717 28.0655C43.5717 28.7044 44.0895 29.2227 44.7289 29.2227H66.6559C67.2954 29.2227 67.8131 28.7044 67.8131 28.0655C67.8131 27.426 67.2954 26.9083 66.6559 26.9083H65.75V15.8646C65.75 14.9087 64.9725 14.1306 64.016 14.1306H57.7411C56.7852 14.1306 56.0076 14.9087 56.0076 15.8646V26.9083H48.7328L48.7322 11.3406C48.74 11.2605 48.8268 11.0893 48.8799 11.0423L60.8788 2.31851L72.8718 11.0375C72.932 11.0923 73.0176 11.2605 73.0248 11.331V26.9083H72.2106C71.5717 26.9083 71.0533 27.426 71.0533 28.0655C71.0533 28.705 71.5717 29.2227 72.2106 29.2227H77.0287C77.6682 29.2227 78.1859 28.705 78.1859 28.0655C78.1859 27.426 77.6682 26.9083 77.0287 26.9083H75.3399V12.8318L77.1625 14.1565C77.6796 14.5326 78.4029 14.4181 78.779 13.901C79.1545 13.3838 79.04 12.6606 78.5229 12.2845ZM58.3215 16.4451H63.4356V26.9083H58.3215V16.4451ZM70.45 6.4152L68.15 4.74326V2.96824H70.45V6.4152Z" fill="#307BF0"/>
<path d="M73.9733 50.2007L67.8575 45.7544C67.8569 45.7544 67.8563 45.7538 67.8557 45.7532L65.0922 43.7443V34.7867C65.0922 33.7229 64.2273 32.858 63.1635 32.858H57.7818C56.7186 32.858 55.8531 33.7229 55.8531 34.7867V37.0277L49.1401 32.1468C48.3963 31.6062 47.2747 31.6062 46.5315 32.1468L37.8234 38.4778V26.9864L40.2801 28.7728C40.7972 29.1483 41.5205 29.0338 41.8966 28.5173C42.2721 28.0001 42.1576 27.2763 41.641 26.9002L36.7253 23.3273C36.7247 23.3261 36.7235 23.3255 36.7223 23.3249L34.802 21.9284V15.2225C34.802 14.1593 33.9371 13.2938 32.8733 13.2938H29.0032C27.9394 13.2938 27.0745 14.1593 27.0745 15.2225V16.3104L22.3631 12.8858C22.3173 12.852 22.2697 12.8207 22.2202 12.7911C22.2136 12.7869 22.2064 12.7839 22.1998 12.7797C21.8665 12.5844 21.4687 12.4771 21.0588 12.4771C20.6508 12.4771 20.2542 12.5838 19.9221 12.7773C19.9136 12.7821 19.9052 12.7863 19.8968 12.7911C19.8479 12.8207 19.8003 12.852 19.7539 12.8858L5.39476 23.3249C5.39416 23.3255 5.39296 23.3261 5.39175 23.3273L0.476582 26.9008C-0.039948 27.2769 -0.154465 28.0001 0.221029 28.5173C0.447651 28.8289 0.800241 28.994 1.15826 28.994C1.39392 28.994 1.63199 28.9223 1.83752 28.7728L4.2942 26.987V44.0951H2.11176C1.47288 44.0951 0.954537 44.6129 0.954537 45.2523C0.954537 45.8912 1.47288 46.4096 2.11176 46.4096H26.9136L21.6989 50.2007C21.1818 50.5768 21.0672 51.3006 21.4433 51.8178C21.8188 52.3343 22.5427 52.4488 23.0598 52.0727L26.7147 49.4153V72.2565H23.5999C22.961 72.2565 22.4427 72.7743 22.4427 73.4138C22.4427 74.0526 22.961 74.571 23.5999 74.571H72.0717C72.7112 74.571 73.2289 74.0526 73.2289 73.4138C73.2289 72.7743 72.7112 72.2565 72.0717 72.2565H68.9568V65.8285C68.9568 65.1897 68.4385 64.6713 67.7996 64.6713C67.1601 64.6713 66.6424 65.1897 66.6424 65.8285V72.2565H54.5669V55.105C54.5669 53.9894 53.6592 53.0817 52.5442 53.0817H43.1279C42.0123 53.0817 41.1052 53.9894 41.1052 55.105V72.2565H29.0298L29.0292 47.9242C29.037 47.844 29.1226 47.6747 29.1762 47.6265L47.8364 34.0599L66.4893 47.621C66.5496 47.6759 66.6352 47.844 66.6424 47.9146V60.2733C66.6424 60.9128 67.1601 61.4305 67.7996 61.4305C68.4391 61.4305 68.9568 60.9128 68.9568 60.2733V49.4153L72.6123 52.0727C72.8179 52.2222 73.0559 52.2945 73.2922 52.2945C73.6496 52.2945 74.0028 52.1288 74.2288 51.8172C74.6043 51.3 74.4898 50.5768 73.9733 50.2007ZM43.4191 55.3961H52.2525V72.2565H43.4191V55.3961ZM29.389 15.6089H32.4876V20.2462L29.389 17.9932V15.6089ZM6.60864 25.4958C6.61587 25.4151 6.70266 25.2451 6.7557 25.1975L21.0588 14.7988L35.3559 25.1927C35.4162 25.2475 35.5018 25.4157 35.509 25.4856V40.16L30.0966 44.0945H26.5737V39.5976C26.5737 38.9588 26.0553 38.4404 25.4165 38.4404C24.7776 38.4404 24.2592 38.9588 24.2592 39.5976V44.0945H17.8584V31.4188H24.2592V33.5807C24.2592 34.2196 24.7776 34.7379 25.4165 34.7379C26.0553 34.7379 26.5737 34.2196 26.5737 33.5807V30.9384C26.5737 29.927 25.751 29.1043 24.7396 29.1043H17.378C16.3666 29.1043 15.5439 29.927 15.5439 30.9384V44.0951H6.60864V25.4958ZM58.1682 35.1725H62.7784V42.0616L58.1682 38.7098V35.1725Z" fill="#213C94"/>
<path d="M58.5491 53.0817C57.4853 53.0817 56.6204 53.9466 56.6204 55.0104V65.0656C56.6204 66.1294 57.4853 66.9943 58.5491 66.9943H62.3969C63.4607 66.9943 64.3256 66.1294 64.3256 65.0656V55.0104C64.3256 53.9466 63.4607 53.0817 62.3969 53.0817H58.5491ZM62.0111 64.6799H58.9349V55.3962H62.0111V64.6799Z" fill="#213C94"/>
<path d="M33.1737 53.0817C32.1105 53.0817 31.245 53.9466 31.245 55.0104V65.0656C31.245 66.1294 32.1105 66.9943 33.1737 66.9943H37.0221C38.0853 66.9943 38.9508 66.1294 38.9508 65.0656V55.0104C38.9508 53.9466 38.0853 53.0817 37.0221 53.0817H33.1737ZM36.6363 64.6799H33.5594V55.3962H36.6363V64.6799Z" fill="#213C94"/>
</svg>
