<?xml version="1.0" standalone="no"?>
<!DOCTYPE svg PUBLIC "-//W3C//DTD SVG 20010904//EN"
 "http://www.w3.org/TR/2001/REC-SVG-20010904/DTD/svg10.dtd">
<svg version="1.0" xmlns="http://www.w3.org/2000/svg"
 width="310.000000pt" height="310.000000pt" viewBox="0 0 310.000000 310.000000"
 preserveAspectRatio="xMidYMid meet">
<metadata>
Created by potrace 1.11, written by Peter Selinger 2001-2013
</metadata>
<g transform="translate(0.000000,310.000000) scale(0.100000,-0.100000)"
fill="#000000" stroke="none">
<path d="M595 3068 c-6 -27 -3 -35 21 -54 81 -65 301 -149 419 -159 73 -7 104
-17 220 -71 39 -18 90 -42 115 -53 134 -61 304 -175 408 -275 92 -88 103 -119
60 -168 -33 -37 -60 -48 -116 -48 -43 0 -58 6 -118 49 -38 27 -79 57 -91 66
-18 12 -23 26 -23 61 0 25 -7 58 -15 75 -13 24 -19 28 -35 19 -30 -16 -57 -12
-77 13 -42 52 -144 87 -195 66 -23 -10 -28 -17 -28 -48 0 -20 7 -47 16 -59 23
-33 89 -63 148 -67 28 -2 54 -4 59 -4 15 -2 6 -31 -12 -41 -28 -14 -74 -12
-139 6 -88 25 -143 57 -195 113 -49 53 -59 89 -36 133 12 22 82 57 117 58 26
0 29 16 4 24 -26 9 -107 -8 -137 -28 -76 -50 -83 -136 -18 -214 53 -62 102
-95 195 -132 64 -25 92 -30 159 -30 46 0 96 5 113 11 29 10 37 8 107 -39 103
-68 119 -90 119 -161 0 -70 -30 -121 -99 -168 -65 -45 -143 -45 -251 -3 -41
17 -81 30 -88 30 -7 0 -20 4 -30 9 -36 18 -70 32 -177 69 l-110 39 -5 74 c-3
47 -12 85 -22 101 -23 36 -97 94 -141 113 -64 26 -64 16 -1 -20 86 -49 89 -63
23 -103 l-36 -22 -39 28 c-91 64 -171 61 -208 -8 -18 -35 -18 -37 -1 -73 25
-53 62 -69 149 -67 96 3 93 3 112 -25 22 -34 9 -48 -67 -64 -128 -29 -287 29
-333 119 -27 54 -29 86 -8 133 31 69 109 116 210 124 62 6 70 23 9 23 -58 0
-153 -26 -204 -56 -74 -43 -123 -151 -103 -225 16 -60 98 -143 164 -167 73
-27 181 -46 219 -37 18 4 45 9 60 11 35 5 116 40 137 59 14 13 29 10 120 -21
58 -19 114 -39 125 -44 11 -5 61 -23 110 -40 130 -43 186 -64 221 -82 56 -30
141 -106 170 -153 44 -68 45 -67 63 65 6 47 20 108 31 135 l20 50 -7 -85 c-3
-47 -10 -93 -14 -102 -12 -23 -11 -98 1 -98 6 0 10 14 10 30 0 30 6 35 34 24
12 -5 13 -10 5 -26 -8 -16 -7 -22 8 -33 10 -7 15 -17 10 -21 -4 -4 -13 -2 -19
4 -17 17 -38 15 -38 -3 0 -8 9 -15 20 -15 11 0 20 -7 20 -15 0 -19 -4 -19 -39
0 l-29 14 -6 -38 c-9 -61 1 -96 30 -97 13 -1 24 2 24 7 0 5 -4 9 -10 9 -5 0
-10 5 -10 11 0 25 33 2 36 -26 5 -41 -3 -60 -19 -48 -29 23 -47 23 -47 -1 0
-19 4 -22 25 -18 15 2 25 0 25 -7 0 -6 -4 -11 -10 -11 -5 0 -10 -13 -10 -29 0
-20 6 -30 20 -34 12 -3 20 -14 20 -26 0 -17 -3 -20 -17 -13 -24 13 -43 4 -43
-19 0 -16 5 -18 25 -13 20 5 24 3 19 -10 -4 -11 -1 -16 10 -16 9 0 16 -4 16
-10 0 -5 -7 -10 -15 -10 -8 0 -15 -7 -15 -15 0 -18 12 -19 28 -3 9 9 12 8 12
-6 0 -11 -12 -22 -30 -29 -17 -6 -30 -17 -30 -25 0 -7 -4 -11 -9 -8 -10 6 -17
42 -30 161 -24 199 -27 211 -49 168 -24 -44 -76 -100 -112 -118 -22 -11 -53
-15 -108 -13 l-77 3 -26 55 c-28 58 -69 105 -69 79 0 -8 -23 -34 -51 -58 l-50
-43 -27 25 c-64 61 -175 70 -219 19 -41 -48 -47 -76 -27 -127 26 -70 92 -98
192 -80 23 4 45 12 48 16 11 18 41 8 72 -24 18 -18 32 -38 32 -44 0 -23 -118
-64 -202 -69 -99 -7 -164 12 -232 66 -64 50 -86 94 -86 169 0 106 40 159 165
217 51 24 72 28 142 27 46 0 89 -5 95 -10 20 -15 71 -26 63 -13 -18 28 -82 43
-190 44 -106 1 -113 -1 -178 -33 -78 -39 -125 -90 -156 -169 -85 -215 128
-415 398 -373 38 6 91 20 118 32 58 25 128 96 155 158 10 25 25 49 31 53 32
21 148 -2 212 -42 41 -25 82 -87 102 -153 13 -44 13 -60 2 -107 -26 -110 -33
-116 -286 -241 -126 -62 -256 -126 -290 -143 l-61 -30 -54 17 c-69 22 -95 23
-79 3 7 -8 9 -26 5 -43 -11 -47 -23 -54 -69 -47 -106 15 -175 -87 -106 -157
44 -44 81 -40 141 17 48 45 49 46 84 33 45 -16 46 -37 5 -79 -70 -70 -189 -98
-274 -66 -52 20 -80 55 -94 117 -9 38 -7 51 13 95 13 28 38 61 55 73 18 13 30
25 28 28 -12 11 -86 -39 -109 -74 -91 -137 -91 -203 0 -285 45 -41 107 -55
195 -43 128 18 243 127 278 263 l16 65 179 94 c322 169 361 187 424 191 88 6
221 -44 259 -97 29 -41 26 -72 -14 -135 -47 -74 -81 -99 -122 -91 -30 5 -34 3
-50 -32 -16 -33 -24 -38 -63 -45 -74 -12 -115 -81 -73 -123 26 -27 81 -13 121
30 28 31 38 35 63 30 38 -9 37 -30 -3 -67 -49 -46 -104 -68 -175 -68 -56 0
-63 2 -87 31 -14 17 -26 42 -26 55 0 24 25 78 56 121 25 35 -1 28 -45 -12 -49
-44 -85 -125 -77 -170 12 -63 78 -115 145 -115 36 0 106 26 149 55 20 13 38
23 40 20 2 -2 -10 -21 -27 -42 -17 -21 -31 -41 -31 -45 0 -17 59 -7 110 18 53
26 54 26 30 39 l-23 12 27 18 c21 14 30 15 39 6 9 -9 8 -14 -3 -21 -10 -7 -11
-10 -2 -10 32 0 119 61 310 221 115 96 238 250 330 416 83 147 81 180 -2 54
-60 -89 -155 -178 -200 -187 -44 -8 -96 4 -103 22 -8 20 5 30 19 16 16 -16 85
-15 95 2 4 7 22 20 38 29 35 18 95 80 114 119 8 15 23 37 34 48 11 12 17 29
14 41 -3 10 -1 22 4 25 5 3 19 26 31 51 21 44 21 46 3 59 -18 13 -18 14 3 14
26 0 28 15 7 37 -10 10 -12 19 -6 27 5 6 12 26 16 43 4 21 13 33 23 33 13 0
14 2 4 9 -19 11 -5 79 17 84 14 4 14 5 -1 6 -24 1 -22 15 5 34 18 13 19 16 5
16 -25 1 -25 76 0 90 9 6 12 11 7 11 -6 0 -11 40 -12 103 -2 127 -8 210 -16
224 -4 6 -6 34 -5 61 2 34 -3 57 -13 69 -9 10 -17 36 -18 57 -1 21 -6 48 -12
58 -6 11 -8 26 -5 34 3 8 -1 17 -9 20 -7 3 -11 12 -8 20 3 8 1 14 -5 14 -5 0
-12 12 -15 28 -8 36 -58 112 -74 112 -7 0 -13 9 -13 21 0 15 -5 19 -15 15 -9
-3 -19 3 -25 14 -10 19 -77 70 -92 70 -4 0 -5 -7 -1 -15 9 -25 -25 -57 -48
-45 -24 13 -104 6 -124 -10 -29 -24 -37 3 -10 32 28 30 33 53 10 45 -20 -8
-29 11 -15 28 14 17 60 20 60 4 0 -6 -4 -19 -10 -29 -7 -13 -6 -21 4 -29 19
-16 30 2 21 36 -9 36 8 43 80 36 l60 -6 -29 34 c-73 87 -291 260 -399 315 -17
9 -49 34 -70 56 -39 39 -75 47 -69 15 3 -20 -5 -21 -41 -4 -32 14 -35 27 -7
27 29 0 25 14 -14 44 -43 32 -81 35 -73 6 6 -24 4 -24 -41 -3 -43 20 -66 41
-75 66 -9 24 -34 22 -42 -4 -5 -15 1 -29 19 -48 35 -36 166 -104 241 -125 122
-34 286 -135 374 -229 50 -53 53 -59 39 -73 -23 -23 -97 -29 -140 -11 -20 8
-73 44 -118 79 -196 152 -374 262 -560 347 -52 23 -106 53 -120 65 -46 42 -74
56 -111 56 -20 0 -42 6 -48 14 -13 16 -94 46 -123 46 -24 0 -23 -19 4 -47 l21
-23 -22 0 c-13 0 -50 14 -82 31 -46 25 -59 37 -59 55 0 12 5 26 10 29 25 16 5
25 -54 25 -64 0 -64 0 -71 -32z m316 -126 c-7 -2 -18 1 -23 6 -8 8 -4 9 13 5
13 -4 18 -8 10 -11z m94 -12 c-3 -5 -15 -10 -25 -10 -10 0 -22 5 -25 10 -4 6
7 10 25 10 18 0 29 -4 25 -10z m1015 -620 c0 -12 -28 -25 -36 -17 -9 9 6 27
22 27 8 0 14 -5 14 -10z m250 -81 c0 -6 -4 -7 -10 -4 -5 3 -10 11 -10 16 0 6
5 7 10 4 6 -3 10 -11 10 -16z m75 -39 c3 -5 1 -10 -4 -10 -6 0 -11 5 -11 10 0
6 2 10 4 10 3 0 8 -4 11 -10z m-71 -213 c46 -26 123 -115 132 -154 5 -19 0
-42 -18 -77 -14 -28 -35 -72 -47 -98 -24 -55 -37 -60 -52 -20 -15 39 -79 102
-105 102 -56 0 -104 -107 -124 -277 -9 -83 -8 -96 10 -147 24 -62 77 -116 115
-116 36 0 93 55 106 102 10 38 11 39 29 23 10 -9 22 -36 25 -58 4 -23 15 -61
26 -83 l20 -42 -23 -38 c-39 -69 -98 -133 -144 -156 -41 -20 -49 -21 -92 -9
-85 22 -151 109 -197 260 -18 58 -21 92 -34 306 -5 77 -5 147 -1 155 4 8 11
33 15 55 12 68 69 177 117 223 75 72 168 91 242 49z m-603 -50 c-13 -13 -15 1
-4 30 7 17 8 17 11 -1 2 -10 -1 -23 -7 -29z m116 18 c-4 -8 -11 -15 -17 -15
-7 0 -7 6 0 21 13 23 26 19 17 -6z m-40 -1 c-3 -3 -12 -4 -19 -1 -8 3 -5 6 6
6 11 1 17 -2 13 -5z m-5 -84 c-6 -15 -11 -19 -16 -12 -10 17 4 56 15 45 6 -6
6 -19 1 -33z m-26 -45 l29 -15 -35 4 c-19 3 -36 5 -38 5 -4 1 8 21 12 21 2 0
17 -7 32 -15z m4 -54 c0 -6 -4 -12 -9 -15 -4 -3 -6 -18 -3 -33 5 -27 5 -28
-15 -10 -17 15 -19 22 -9 42 11 24 36 35 36 16z m-30 -701 c0 -28 -4 -40 -14
-40 -21 0 -25 31 -8 58 19 30 22 28 22 -18z m20 -55 c0 -8 -7 -15 -15 -15 -16
0 -20 12 -8 23 11 12 23 8 23 -8z m270 -300 c7 -9 9 -19 5 -23 -4 -4 -10 -2
-12 5 -2 7 -11 9 -19 6 -14 -5 -19 8 -7 20 10 11 19 8 33 -8z m90 -30 c16 -9
29 -10 37 -4 13 12 65 1 57 -12 -3 -5 -16 -6 -29 -3 -16 4 -30 -1 -44 -15 -27
-27 -27 -41 2 -41 16 0 28 -9 35 -25 11 -23 10 -25 -14 -25 -48 0 -64 17 -64
65 0 38 -3 45 -20 45 -22 0 -27 15 -7 23 18 8 20 8 47 -8z m-30 -85 c0 -14
-34 -12 -48 2 -7 7 -12 18 -12 25 0 11 6 10 30 -2 17 -9 30 -20 30 -25z m47
-124 c51 -55 46 -85 -27 -160 -51 -54 -75 -69 -162 -107 -56 -24 -121 -57
-145 -72 -57 -38 -71 -30 -33 18 47 59 70 109 70 154 0 31 9 51 44 98 53 70
71 87 111 101 53 20 106 8 142 -32z"/>
<path d="M620 2400 c0 -5 5 -10 11 -10 5 0 7 5 4 10 -3 6 -8 10 -11 10 -2 0
-4 -4 -4 -10z"/>
<path d="M2147 2323 c-9 -9 22 -43 40 -43 19 0 16 20 -4 36 -21 15 -27 17 -36
7z"/>
<path d="M1110 1490 c8 -6 24 -15 35 -21 16 -8 15 -6 -4 10 -13 12 -28 21 -35
21 -6 0 -4 -5 4 -10z"/>
<path d="M2516 1103 c-11 -11 -6 -23 9 -23 8 0 15 4 15 9 0 13 -16 22 -24 14z"/>
<path d="M2521 914 c0 -11 3 -14 6 -6 3 7 2 16 -1 19 -3 4 -6 -2 -5 -13z"/>
</g>
</svg>
