<svg xmlns="http://www.w3.org/2000/svg" width="164" height="123" fill="none"><path fill="#fff" d="M121.3 121.66h-5.36V102.2h5.35v19.46zm-4.8-.56h4.27v-18.38h-4.27v18.38z"/><path fill="#fff" d="M121.57 101.92v19.99h-5.35a.56.56 0 01-.56-.56c0-.3.25-.55.56-.55h4.27v-17.83h-4.27a.56.56 0 01-.56-.55c0-.3.25-.56.56-.56h5.35v.06zM163.57 102.03a.4.4 0 00-.33.17h-3.83a.4.4 0 00-.33-.17c-.22 0-.42.2-.42.42v10.3l-7.98-10.53a.43.43 0 00-.58-.08c-.03.03-.06.06-.09.08h-4.18v19.47h5.04v-.28c.09-.08.14-.2.14-.3v-10.3l4.94 6.52 3.21 4.33h4.66v-.25c.08-.08.14-.2.14-.3v-18.66c0-.23-.17-.42-.39-.42zm-17.19.72h3.69l9.43 12.42v-12.42h3.66v18.35h-3.44a.45.45 0 00-.09-.24l-9.42-12.45v12.7h-3.83v-18.36zM56.14 121.66h-4.66l-8.29-11.1v11.1h-5.04V102.2h4.66l8.31 11.11V102.2h5.02v19.46zm-4.38-.56h3.83v-18.38h-3.94v12.23l-9.15-12.23h-3.83v18.38h3.97v-12.2l9.12 12.2zm-.11.42a.43.43 0 01-.33-.17l-7.96-10.5v10.28c0 .22-.2.42-.42.42a.43.43 0 01-.41-.42v-12.7l9.42 12.45a.4.4 0 01-.08.59.53.53 0 01-.22.05zm4.24 0a.43.43 0 01-.41-.42v-18.65c0-.23.19-.42.41-.42.22 0 .42.2.42.42v18.65c-.03.23-.2.42-.42.42zm-4.07-6.35l-9.46-12.47a.4.4 0 01.09-.59.4.4 0 01.58.09L51 112.73v-10.31c0-.22.2-.42.42-.42.22 0 .41.2.41.42v12.75h-.02zM73.55 106.66a.5.5 0 100-1 .5.5 0 000 1z"/><path fill="#fff" d="M68.7 121.66h-5.35V106.6h-5.66v-4.44h16.7v4.44h-5.72v15.05h.03zm-4.82-.56h4.27v-15.05h5.7v-3.35H58.23v3.35h5.66v15.05zM84.59 121.88c-5.47 0-9.01-3.3-9.01-8.43V102.2h5.35v11.25c0 2.36 1.44 3.86 3.66 3.86 2.19 0 3.54-1.47 3.54-3.86V102.2h5.33v11.25c0 5.1-3.5 8.43-8.87 8.43zm-8.46-19.13v10.7c0 4.85 3.24 7.9 8.46 7.9 5.15 0 8.34-3.02 8.34-7.9v-10.7H88.7v10.7c0 2.7-1.6 4.41-4.08 4.41-2.52 0-4.21-1.77-4.21-4.4v-10.7h-4.27zm8.46 19.02a.43.43 0 01-.42-.42c0-.22.2-.41.42-.41 5.07 0 8.2-2.97 8.2-7.77V102.2c0-.23.2-.42.42-.42.22 0 .41.2.41.42v10.97c-.02 5.25-3.57 8.6-9.03 8.6zm.02-4.02c-2.6 0-4.35-1.83-4.35-4.55v-10.98c0-.22.2-.41.42-.41.22 0 .41.2.41.41v10.98c0 2.28 1.39 3.72 3.55 3.72 2.1 0 3.41-1.42 3.41-3.72v-10.98c0-.22.2-.41.42-.41.22 0 .41.2.41.41v10.98c-.05 2.75-1.72 4.55-4.27 4.55zM15.6 115.2a.53.53 0 00-.1-.33.4.4 0 00-.58 0 6.72 6.72 0 01-4.47 2.1c-2.77 0-4.85-2.22-4.85-5.15 0-2.89 2.08-5.08 4.85-5.08 1.58 0 3.27.89 4.44 2.3.08.09.2.14.3.14l.03.03.03-.03c.08 0 .16-.03.25-.08a.36.36 0 00.14-.36l2.74-3.24-.17-.17a11.25 11.25 0 00-7.81-3.27c-5.94-.03-10.4 4.21-10.4 9.81 0 5.71 4.38 10.01 10.2 10.01 2.8 0 5.88-1.36 8.01-3.55l.2-.2-2.8-2.93zm-5.4 6.13c-5.49 0-9.65-4.08-9.65-9.46 0-5.3 4.22-9.29 9.85-9.29 2.63 0 5.37 1.11 7.26 2.94l-2.33 2.75a6.83 6.83 0 00-4.85-2.36c-3.24 0-5.68 2.52-5.68 5.9 0 3.42 2.44 5.97 5.68 5.97 1.6 0 3.44-.8 4.85-2.14l2.36 2.47c-2.05 2-4.88 3.22-7.49 3.22zM133.77 101.95a.44.44 0 00-.25.08c-5.85.11-10.23 4.33-10.23 9.87 0 5.57 4.32 9.79 10.14 9.95.09.11.2.2.36.2 6.08 0 10.65-4.36 10.65-10.12-.03-5.69-4.6-9.98-10.67-9.98zm0 19.3a.32.32 0 00-.22.08c-5.55-.11-9.7-4.13-9.7-9.43 0-5.21 4.1-9.15 9.59-9.32.08.12.19.2.33.2 5.6 0 9.84 3.94 9.84 9.18 0 5.3-4.21 9.28-9.84 9.28z"/><path fill="#fff" d="M133.82 105.91a.52.52 0 00-.22.06 5.82 5.82 0 00-5.54 5.99c0 3.32 2.57 6.04 5.76 6.04.09 0 .14-.03.22-.06 3.08-.1 5.44-2.74 5.44-6.04 0-3.33-2.47-5.99-5.66-5.99zm-4.93 6.07a5 5 0 014.93-5.18.5.5 0 00.2-.06c2.6.12 4.66 2.33 4.66 5.19 0 2.94-2.14 5.24-4.83 5.24a.52.52 0 00-.2.05 5.12 5.12 0 01-4.76-5.24zM68.42 121.58c-.27 0-.5-.23-.5-.48v-15.27h5.71v-3.36c0-.27.23-.47.5-.47.28 0 .5.22.5.47v4.3h-5.7v14.3c-.04.28-.23.5-.5.5zM101.2 112.54h3.9c1.3 0 2.3-.42 2.88-1.17.53-.58.8-1.38.8-2.38 0-2.13-1.35-3.38-3.7-3.38h-4.05v6.84h.13v.09h.03zm6.78-3.52c0 2.19-1.58 2.63-2.88 2.63h-3.24v-5.13h3.24c.89 0 1.89.2 2.5.95.27.38.38.9.38 1.55z"/><path fill="#fff" d="M114 121.66l-.17-.25c.09-.14.11-.3 0-.44l-3.71-5.83c.64-.38 1.2-.86 1.63-1.41a7.26 7.26 0 001.61-4.85c0-4.44-3.02-7.02-8.26-7.02h-8.46c-.22 0-.41.2-.41.42 0 .11.05.22.14.3v19.1h5.38v-.19c.08-.08.14-.2.14-.3v-4.83h3.16l2.66 5.02c.02.06.05.09.1.11l.1.17H114zm-17.08-18.9h8.18c2.83 0 4.94.74 6.21 2.18.83 1 1.25 2.3 1.25 3.91 0 2.69-1.11 4.66-3.22 5.71l-.39.2 4.05 6.34h-4.55c0-.05-.02-.08-.05-.13l-2.94-5.55h-.39c-.2 0-.38.17-.41.36h-2.86a.42.42 0 00-.41-.36c-.23 0-.42.2-.42.42v5.26h-4.13v-18.35h.08zM35.6 117.33c-.09-.05-.17-.1-.28-.1-.11 0-.2.02-.25.08h-9.65v-3.28h8.3c.08.11.19.17.32.17.23 0 .42-.2.42-.42v-3.74a.44.44 0 00-.14-.3.45.45 0 00-.25-.09c-.1 0-.2.03-.25.09h-8.4v-3.22h9.2c.06.17.2.3.4.3.22 0 .41-.19.41-.41v-3.77a.44.44 0 00-.14-.3v-.14H19.93v19.46H35c.08.1.2.17.33.17.22 0 .42-.2.42-.42v-3.77a.45.45 0 00-.14-.3zm-15.11-14.58h14.14V106h-9.35a.44.44 0 00-.25-.09c-.1 0-.19.03-.25.09a.44.44 0 00-.13.3v3.74c0 .22.19.42.41.42.14 0 .25-.08.33-.17h8.3v3.24h-8.4a.45.45 0 00-.26-.08c-.1 0-.19.03-.25.08a.45.45 0 00-.13.31v3.8c0 .22.19.41.41.41.14 0 .25-.08.33-.16h9.54v3.24H20.52v-18.38h-.03zM150.26 120.74l-1.97-1.63-1.82 1.55-.17-.22 2-1.7 2.16 1.81-.2.2z"/><path fill="#fff" d="M146.41 121.05c-.14 0-.3-.06-.39-.2a.5.5 0 01-.1-.38c0-.14.07-.28.19-.36a.5.5 0 01.38-.11c.14 0 .28.08.36.19.2.22.17.55-.05.72a.66.66 0 01-.39.14zM150.35 121a.31.31 0 01-.22-.09c-.17-.14-.17-.36-.06-.53.06-.08.14-.1.25-.13.08 0 .2.02.28.08.08.05.1.14.14.25.02.1-.03.2-.09.28-.08.1-.2.13-.3.13zm-.06-.28c.03.02.11.02.14 0 .03-.03.03-.06.03-.06 0-.03-.03-.05-.03-.05-.03-.03-.06-.03-.06-.03-.02 0-.05.03-.05.03-.08 0-.06.08-.03.1zM162.02 118.97v-13.78l1.6-2.69-.16-.08-1.58 2.6-2.77-2.63-.14.14 2.83 2.69v13.72a.48.48 0 00-.45.47s0 0 0 .03h-1.19l-4.69-6.99 3.44 2.58c0 .09 0 .17.09.2.08.05.22.05.27-.03.06-.08.06-.22-.02-.28-.06-.05-.14-.05-.23-.03l-3.85-2.9-4.6-6.83-.03-.02h-1.94a.31.31 0 00-.3-.09l-1.78-2.19c.06-.1.06-.22-.03-.3-.08-.11-.27-.14-.39-.03-.1.08-.13.28-.02.39.08.08.2.1.3.08l1.78 2.2a.25.25 0 00.02.3c.03.02.03.02.06.02v2.7c-.08 0-.14.05-.17.13a.3.3 0 00.03.22l-1.83 4.63a.32.32 0 00-.36.22c-.08.17.03.4.2.45.16.08.38-.03.44-.2.05-.13 0-.3-.11-.38l1.77-4.55V119h.2v-10.43l.02-.02c.03-.06 0-.14-.02-.2v-2.72c.05 0 .1-.02.16-.05.06-.06.11-.14.11-.22h1.83l4.41 6.54-.11 2.66c-.14.03-.25.17-.28.33 0 .2.14.36.34.36.19 0 .36-.13.36-.33 0-.17-.09-.3-.25-.33l.1-2.41 5.02 7.45.03.03h1.3l-1.08.75a.74.74 0 00-1.3.5c0 .42.33.75.75.75a.75.75 0 00.67-1.08l1.1-.75c.09.08.2.14.34.14.25 0 .47-.2.47-.47-.06-.3-.17-.47-.36-.53zM54.34 118.97v-13.78l1.6-2.69-.16-.08-1.58 2.6-2.77-2.63-.14.14 2.83 2.69v13.72a.48.48 0 00-.45.47s0 0 0 .03h-1.19l-4.71-6.99 3.44 2.58c0 .09 0 .17.08.2.08.05.22.05.28-.03.05-.08.05-.22-.03-.28-.06-.05-.14-.05-.22-.03l-3.86-2.9-4.6-6.83-.03-.02h-1.96a.31.31 0 00-.31-.09l-1.77-2.19a.25.25 0 00-.03-.3c-.09-.11-.28-.14-.39-.03-.11.08-.14.28-.03.39.09.08.2.1.3.08l1.78 2.2c-.05.1-.05.21.03.3.03.02.03.02.05.02v2.7c-.08 0-.13.05-.16.13a.3.3 0 00.03.22l-1.83 4.63a.32.32 0 00-.36.22c-.09.17.02.4.19.45.17.08.39-.03.44-.2.06-.13 0-.3-.1-.38l1.77-4.55v10.17l-1.67 1.42c-.14-.08-.3-.08-.41.03-.14.1-.17.33-.03.5.14.16.33.16.5.02a.39.39 0 00.08-.41l1.61-1.36 1.89 1.55c-.03.08 0 .17.05.2.08.08.22.05.3-.03.09-.09.06-.22-.02-.3-.06-.06-.14-.06-.22-.04l-1.89-1.55v-10.42l.03-.03c.03-.06 0-.14-.03-.2v-2.71a.4.4 0 00.17-.06c.05-.05.1-.13.1-.22h1.84l4.4 6.54-.1 2.67c-.14.02-.25.16-.28.33 0 .2.14.36.33.36.2 0 .36-.14.36-.33 0-.17-.08-.3-.25-.34l.11-2.4 5.02 7.45.03.03h1.3l-1.08.75a.8.8 0 00-.55-.25.75.75 0 00-.75.75c0 .41.33.74.75.74a.74.74 0 00.66-1.08l1.11-.75c.08.09.2.14.33.14.25 0 .47-.2.47-.47 0-.25-.1-.41-.3-.47zM71.7 102.28l-2.75 3.08-2.47-2.05a.6.6 0 00.11-.34.56.56 0 00-1.1 0c0 .03 0 .06 0 .09l-6.83 2.85c-.1-.16-.3-.22-.5-.14-.22.09-.3.34-.22.56.09.22.34.3.56.22.2-.08.27-.28.25-.44l6.79-2.86c.08.14.22.25.39.28v7.07l-2.25-4.33-.16.09 2.4 4.63v4.18c-.08-.03-.13-.03-.21-.03-.5 0-.92.42-.92.92 0 .39.25.72.61.86l-1.36 3.19-.14.1H64l-.28.62a.3.3 0 00-.28.16c-.05.14 0 .3.14.36s.3 0 .36-.13c.06-.12.03-.23-.05-.31l.27-.66 4.22.6.02-.19-4.07-.58 4.24-3.33-2-.89a.9.9 0 00-.47-.6v-11.73c.09-.03.17-.06.23-.09l2.6 2.17c-.03.1 0 .22.08.3.12.11.3.09.4-.03.1-.1.08-.3-.04-.38a.21.21 0 00-.27-.03l2.52-2.86 1.72 3.41.17-.08-1.8-3.66zm-7.35 17.58l1.24-2.89c.03 0 .09 0 .12 0 .5 0 .88-.39.91-.88l1.6.72-3.87 3.05zM121.96 105.3a.25.25 0 00-.3-.03l-2.61-2.16a.6.6 0 00.1-.33c0-.3-.24-.56-.55-.56a.56.56 0 00-.08 1.11v7.07l-2.25-4.32-.16.08 2.4 4.63v4.19c-.07-.03-.13-.03-.21-.03-.5 0-.92.41-.92.91 0 .4.25.72.61.86l-1.36 3.2-.13.1h.08l-.28.61a.3.3 0 00-.28.17c-.05.14 0 .3.14.36s.3 0 .36-.14c.06-.11.03-.22-.05-.3l.28-.67 4.2.61.04-.2-4.08-.58 4.24-3.32-2-.89a.89.89 0 00-.46-.6v-11.74c.08-.02.16-.05.22-.08l2.6 2.16c-.02.11 0 .22.09.3.1.12.3.1.39-.02.1-.11.08-.3-.03-.39zm-5.05 14.36l1.25-2.88c.03 0 .08 0 .11 0 .5 0 .89-.39.92-.89l1.6.72-3.88 3.05zM93.3 110.98l-.23-.1-2.39 4.3c.14-.54.2-1.12.2-1.73v-7.07c.2-.05.33-.22.33-.44 0-.06 0-.08-.03-.14l1.92-3.33-.23-.1-1.85 3.2c-.09-.05-.17-.1-.28-.1-.11 0-.2.03-.28.1l-1.85-3.2-.23.1 1.92 3.33c0 .06-.03.08-.03.14 0 .22.14.39.33.44v7.07c0 .83-.14 1.58-.39 2.28h-.02c-.3 0-.56.24-.56.55 0 .14.06.28.14.36-1.03 1.66-2.94 2.64-5.49 2.64-3 0-5.13-1.3-5.99-3.5l2-1.2c.1.12.28.2.47.2.33 0 .6-.27.6-.6a.62.62 0 00-.6-.62c-.03 0-.06 0-.08 0l-2.78-8.04 2-2.55c.11.03.2 0 .28-.08.08-.11.08-.3-.06-.39-.1-.08-.3-.08-.39.06-.05.08-.08.2-.02.27l-1.94 2.47-1.5-2.27a.37.37 0 00.03-.42.36.36 0 00-.5-.1.36.36 0 00-.11.5c.08.13.25.18.38.16l1.58 2.38v7.93c0 .83.14 1.58.4 2.25l-1.03 1.71a.49.49 0 00-.53.2c-.14.22-.06.5.17.64.22.14.5.05.63-.17a.45.45 0 00-.05-.55l.94-1.56c.94 2.2 3.13 3.52 6.13 3.52l3.5 1c0 .03 0 .06 0 .09 0 .66.55 1.22 1.21 1.22.67 0 1.22-.56 1.22-1.22 0-.67-.55-1.22-1.22-1.22-.55 0-1.02.38-1.16.88l-2.75-.8c2.28-.17 4-1.14 4.94-2.7.05.04.1.04.2.04.3 0 .55-.25.55-.56 0-.16-.09-.3-.2-.41l2.7-4.86zm-15.34 2.5v-7.24l2.55 7.4a.6.6 0 00-.3.53c0 .09.02.14.02.22l-1.97 1.2c-.19-.67-.3-1.36-.3-2.11zM16 117.44c.05-.13.05-.27-.06-.38a.3.3 0 00-.36-.09l-.28-1.52-.2.03.31 1.63a.34.34 0 00-.02.36 9.06 9.06 0 01-5.71 2.3 8 8 0 01-1.17-.08l-.11-.11v-2.33l-2.88 1.3v-5.18l-3.3-1.58c0-.25-.17-.44-.39-.47.25-3 2.22-5.4 5.02-6.4.1.16.27.27.47.27.3 0 .58-.25.58-.58a8.57 8.57 0 017.9 2.3l-1 1.47.17.11 1.03-1.52 1.3-1.2c.14.09.3.09.42-.02a.38.38 0 00.02-.5.38.38 0 00-.5-.03.34.34 0 00-.05.42l-1.25 1.13a8.8 8.8 0 00-2.74-1.83l.77-1.02c.11.08.22.13.36.13.3 0 .59-.24.59-.58a.57.57 0 00-.59-.58.57.57 0 00-.58.58c0 .11.03.2.08.3l-.74 1-4.44-2.43-1.1 1.77a.52.52 0 00-.23-.06c-.3 0-.58.25-.58.59 0 .05 0 .08.02.14a7.5 7.5 0 00-5.12 6.54.5.5 0 00-.4.47c0 .11.04.22.12.3l-1.17 1.28.14.11 1.14-1.28c.03.03.08.03.14.06a7.65 7.65 0 003.71 6.46v.08l.09-.02c.88.52 1.9.88 3.02 1.02l1.69 1.64c-.03.08 0 .16.05.22.09.08.23.08.3 0a.22.22 0 000-.3c-.05-.06-.13-.06-.21-.06l-1.53-1.47c.3.03.64.06.97.06 2 0 4.22-.9 5.85-2.33.11.05.22.05.34 0l2.16.63.05-.16-2.1-.59zm-7.32-14.88l3.93 2.16a9.06 9.06 0 00-4.8-.3.4.4 0 00-.16-.25l1.03-1.61zM5.3 118.53a7.52 7.52 0 01-3.53-6.24c.17-.03.3-.14.4-.28l3.15 1.5v5.02H5.3zm2.9 1.08a8.36 8.36 0 01-2.6-.92l2.6-1.16v2.08zM35.02 117.39a.35.35 0 00-.48.05c-.08.14-.08.31 0 .42l-1.22 1.58H30a.57.57 0 00-.58-.5.62.62 0 00-.53.34l-3.3-1.72-.08.16 3.32 1.72h-7.2a.27.27 0 00-.25-.2c-.06 0-.12.04-.17.06l.78-1.8c.02.06.08.08.13.08.09 0 .17-.02.2-.1l2 .16c.02.14.13.28.3.28.2.02.36-.14.36-.3a.32.32 0 00-.3-.37c-.17 0-.31.08-.37.22l-2-.16c-.02-.09-.08-.12-.16-.14-.05 0-.08 0-.14.02v-4.96s0 0 .03 0c.08 0 .14-.05.2-.1h6.51c.11.13.25.19.44.19.17 0 .34-.09.45-.2h3.85c.03.11.14.2.25.2.17 0 .28-.11.28-.28 0-.17-.11-.28-.28-.28a.27.27 0 00-.25.2h-3.74c.03-.06.03-.11.03-.2 0-.03 0-.08 0-.11l3.52-1.3c.1.16.3.22.5.16.22-.08.33-.3.25-.52-.09-.22-.31-.34-.53-.25a.4.4 0 00-.28.44l-3.52 1.3c-.11-.16-.28-.3-.5-.3-.2 0-.39.11-.5.28l-3.71-1.56-2.78 2.03c-.02-.06-.1-.11-.16-.11 0 0 0 0-.03 0v-2.78c.22.03.42-.1.5-.3.06-.14.03-.25-.03-.36l.86-2.25c.11.11.28.14.42.09.16-.09.25-.3.16-.47-.02-.03-.05-.09-.08-.12l9.1-1.44.05.09c.03.02.03.05.05.08l1.53 1.91.14-.1-1.33-1.67c.22-.03.41-.2.41-.45a.46.46 0 00-.14-.33l1.4-1.22-.12-.14-1.44 1.28c-.03 0-.08-.03-.11-.03-.2 0-.36.14-.42.3H22.73l-.86-1.69v5.94a.5.5 0 00-.25.28c-.08.22 0 .47.2.58l-1.5 4.13c-.14 0-.3.08-.36.22-.05.17.03.39.2.44.16.06.38-.03.44-.2.05-.13 0-.3-.14-.38l1.36-3.74V112c0 .03 0 .03 0 .06 0 .02 0 .02 0 .05v5.24l-1.47 3.36a.34.34 0 00-.36.19c-.08.17 0 .39.17.44.16.06.38 0 .44-.16a.35.35 0 00-.11-.42l.55-1.25c.03.14.14.25.28.25.11 0 .22-.08.25-.2h7.2c0 .04.04.1.04.12l-1.58 1.58.13.14 1.53-1.55c.1.1.25.2.44.2.28 0 .53-.2.56-.48h3.4l1.28-1.66c.14.05.3.02.39-.11.25-.09.22-.31.06-.42zm-9.99-7.24l3.64 1.5c0 .06-.03.08-.03.14 0 .05 0 .14.03.2h-6.13l2.5-1.84zm7.46-6.01l-8.95 1.41-.72-1.41h9.67zm-10.42-1.11l1.33 2.63-.03.09c-.03.05-.05.1-.08.19l-.89 2.33c-.03-.03-.08-.06-.14-.08-.05-.03-.14-.03-.2-.03v-5.13zM108.43 113.67c.08-.02 1.36-.63 2.02-3.24.11.03.2-.03.28-.11a.25.25 0 000-.28l1.41-2.13c.2.05.42 0 .53-.17a.45.45 0 00-.14-.64.45.45 0 00-.64.14.5.5 0 00.03.56l-1.3 1.97c.03-.17.05-.31.08-.48.53-3.63-2.69-5.3-2.72-5.3H107.3l1.66-.35-.05-.25-1.66.36a.67.67 0 00-.64-.44c-.39 0-.7.3-.7.69h-6.95c-.06-.25-.25-.44-.48-.47v-.86h-.24v.86c-.28.05-.5.3-.5.6 0 .31.22.56.5.62v7.07c-.06.03-.09.03-.14.05l-1.36-1.52-.2.16 1.36 1.56a.6.6 0 00-.08.33c0 .2.11.39.25.5l-1.3 7.26c-.06 0-.11-.03-.17-.03-.5 0-.92.42-.92.92s.42.91.92.91.91-.41.91-.91a.96.96 0 00-.52-.83l.41-2.36 3.55 3.27.17-.2-3.63-3.4.83-4.6c.05 0 .08.02.14.02.08 0 .16-.02.25-.05l1.63 1.86c-.1.16-.2.36-.2.55 0 .5.42.91.92.91s.92-.41.92-.91a.77.77 0 00-.08-.36l.74-1.28h5.8zm-6.68 1.03a.93.93 0 00-.7-.33c-.2 0-.38.08-.55.2l-1.6-1.84a.57.57 0 00.16-.41c0-.34-.28-.61-.59-.61v-7.02c.25-.05.45-.25.48-.47h7.01c.11.25.33.42.64.42a.7.7 0 00.64-.42h.66c.3.17 3.05 1.75 2.58 5.05-.03.25-.08.47-.14.69-.03.03-.03.03-.06.06a.27.27 0 00-.02.24c-.59 2.42-1.72 3.08-1.89 3.2h-5.6l.78-1.31-.22-.11-1.58 2.66z"/><path fill="#fff" d="M112.34 120.5a.8.8 0 00-.25.05l-2-1.25-3.05-5.15a.25.25 0 000-.28c-.08-.14-.25-.17-.39-.11-.14.08-.16.25-.1.39.05.08.16.13.24.13l3.13 5.33-1.08 1.16a.38.38 0 00-.41.09.36.36 0 00.02.52c.17.14.4.14.53-.03.11-.1.11-.27.06-.41l1.16-1.28 1.7 1.06a.45.45 0 00-.09.25c0 .27.22.5.5.5a.5.5 0 00.5-.5c0-.28-.2-.47-.47-.47zm.2.33l-.12-.06c.05 0 .08.03.11.06zM143.47 115.31l-1.88-3.02c-.03-3.44-1.67-5.08-2.06-5.4l1.22-1.14c.14.08.3.08.42-.03a.38.38 0 00.03-.5.38.38 0 00-.5-.03.34.34 0 00-.06.42l-1.24 1.13a8.81 8.81 0 00-2.75-1.83l.78-1.02c.1.08.22.14.36.14.3 0 .58-.25.58-.59a.57.57 0 00-.58-.58.57.57 0 00-.58.58c0 .12.02.2.08.3l-.75 1-4.44-2.43-1.1 1.77a.51.51 0 00-.23-.05c-.3 0-.58.25-.58.58 0 .05 0 .08.03.14a7.6 7.6 0 00-5.13 6.57.5.5 0 00-.39.47c0 .11.03.22.11.3l-1.13 1.28.13.11 1.14-1.28c.03.03.08.03.14.06a7.76 7.76 0 006.82 7.57l1.7 1.64c-.04.08 0 .16.05.22.08.08.22.08.3 0a.22.22 0 000-.3c-.05-.06-.14-.06-.22-.06l-1.53-1.47c.31.03.64.05.98.05 1.71 0 3.57-.66 5.1-1.74l-1.75 2.9.17.09 1.77-2.94c.08-.05.36-.25.72-.58.09 0 .2-.03.25-.08a.36.36 0 00.11-.28c.89-.92 2-2.5 2.08-4.63l1.75 2.77.08-.11zm-11.31-12.75l3.94 2.16a9.07 9.07 0 00-4.8-.3.4.4 0 00-.17-.25l1.03-1.61zm-3.38 15.74c-.06.03-.11.09-.11.14a7.53 7.53 0 01-3.41-6.18c.16-.03.3-.14.38-.28l3.17 1.5v4.82h-.03zm11.92-3.02l-5.35 1.97.05.17 5.16-1.89a7.95 7.95 0 01-1.14 1.55s0-.02-.02-.02a.38.38 0 00-.5-.03.34.34 0 00-.06.41 9.06 9.06 0 01-5.71 2.3 8 8 0 01-1.16-.08l-.12-.1v-1.78a.24.24 0 00.12-.2c0-.1-.09-.2-.2-.2-.1 0-.2.1-.2.2 0 .09.06.14.12.2v1.83a8 8 0 01-2.7-.97c.06-.03.1-.09.1-.17 0-.08-.06-.14-.12-.2v-4.9l-3.3-1.58c0-.25-.16-.44-.39-.47.25-3 2.22-5.4 5.02-6.4.11.16.28.27.47.27.3 0 .59-.25.59-.58a8.57 8.57 0 017.9 2.3l-.64.94c-.06 0-.11-.02-.17-.02a.77.77 0 00-.77.77c0 .45.33.78.77.78.45 0 .78-.33.78-.78 0-.3-.17-.55-.44-.7l.6-.88c.37.3 1.97 1.89 2 5.3a6.16 6.16 0 01-.7 2.96zm-2.2-6.68c0 .03-.07.03-.07 0s.02-.03.02-.03c.03 0 .06 0 .06.03zM109.81 34.22l-.52-.36c.25.36.5.72.75 1.16l1.94-1.41c-.11-.28-.2-.56-.3-.8l-.04.02c0 .2-.05.39-.16.47-.14.09-.28-.02-.3-.3-.06-.25.02-.56.13-.64a.18.18 0 01.17 0c-.09-.2-.17-.36-.25-.55l-.39 1.69-1.03.72zM93.9 47.08c0-.28 0-.52 0-.8 0-.25 0-.5.03-.75a.6.6 0 01-.11.2c-.03.02-.06.02-.11.02l-.25 1-2.97 2.16c0 .22 0 .42.03.64l3.38-2.47zM99.06 31.22l-.06.25a.4.4 0 01.06.2c0 .05.03.14.03.2.47-.4.97-.7 1.5-.92l-.5-.47-1.03.74zM112.72 35.9c-.08-.3-.16-.6-.27-.88l-1.92 1.42-.63 1.44.08.08 2.74-2.05zM110.2 35.27c.14.22.25.45.4.7l1.77-1.3a6.35 6.35 0 00-.28-.78l-1.89 1.38zM112.86 55.95c.03.06.03.09.06.14 0 .06.03.14.03.2.27-1.2.52-2.42.72-3.72l-.8 3.38zM94.7 60.78l-1.58 1.16c.14.3.25.58.4.86l1.46-1.08.45-1.97 1.02-.75.61.42c-.28-.39-.53-.8-.75-1.25l-3.63 2.66c.11.28.2.53.3.8l1.64-1.21c0-.2.06-.4.17-.47.14-.09.27.02.3.3.06.25-.03.55-.14.64-.08.05-.16 0-.25-.11zM93.62 55.68l-2.05 1.52c.08.33.17.64.25.97l3.41-2.52c-.11-.33-.22-.7-.33-1.05l-.39.27-.64-.64-2.55 1.89c.06.25.11.47.17.72l2.08-1.52c0-.2.05-.36.16-.42.14-.08.28.03.3.3.06.25-.02.56-.13.64-.08.06-.2 0-.28-.16z"/><path fill="#fff" d="M93.54 45.58c-.03-.05-.03-.08-.06-.16-.05-.25.03-.56.14-.64.14-.08.28.03.3.3a4250.38 4250.38 0 01.15-1.66c.25-2.38.75-4.54 1.5-6.4l.8-3.72 1.72-1.27.44-1.97 1.66-1.22 1.78 1.66c.2-.02.39-.05.58-.05l-2.41-2.28-2.22 1.64-.42 1.83-1.5 1.1-2.3 10.16-3.15 2.32c-.03.3-.03.59-.06.9l2.44-1.81c0-.2.06-.36.17-.44.14-.09.27.02.3.3.06.25-.03.56-.14.64-.1.08-.2 0-.27-.14l-2.5 1.86c0 .14 0 .27 0 .41 0 .14 0 .28 0 .45l2.22-1.64c.03-.17.08-.3.17-.36.13-.08.27.03.3.3.06.26-.03.56-.14.64-.11.09-.22 0-.28-.2L90.5 47.8c0 .25 0 .53 0 .78l2.83-2.08.22-.92zM91.99 51.02l-1.28.94c.03.17.03.36.06.53l1.77-1.3.61-2.47.8-.61c0-.2 0-.39-.02-.61l-3.36 2.47c0 .19.03.38.03.58l1.67-1.22c0-.2.05-.4.16-.45.14-.08.28.03.3.3.06.26-.02.56-.13.65-.09.08-.2 0-.28-.14l-1.69 1.25c.03.19.03.41.06.6l1.24-.9c0-.2.06-.4.17-.45.14-.09.28.02.3.3.06.25-.02.56-.13.64-.12.08-.23.03-.28-.11z"/><path fill="#fff" d="M100.2 29.28l-1.53 1.11-.44 1.97-1.72 1.28-.53 2.38c.2-.44.42-.86.67-1.25l.13-.66.56-.42c.41-.55.86-1.05 1.3-1.47a1.34 1.34 0 01-.08-.2c-.06-.24.03-.55.14-.63.03-.03.05-.03.08-.03l.08-.41 1.17-.86.8.75c.25-.09.47-.17.72-.23l-1.36-1.33zM100.39 52.99c.22.3 1 1.3 2.22 1.44 1.6.16 3.4-1.25 3.9-3.58l1.14.03.06.14 3.99-2.94.17-.75a.4.4 0 01-.06-.2c-.06-.24.03-.55.14-.63.14-.08.28.03.3.3.06.25-.02.56-.13.64-.03.03-.06.03-.09.03l-.2.91-3.98 2.94.25.56c.05.05.1.16.13.28 0 0 0 0 0 .02l.2.4.05-.29c-.05-.05-.08-.13-.1-.25-.06-.25.02-.55.13-.63.14-.09.28.02.3.3.06.25-.02.56-.13.64h-.03l-.11.5.22.5.36-1.58c-.03-.06-.05-.14-.08-.22-.06-.25.03-.56.14-.64.13-.09.27.03.3.3.06.25-.03.56-.14.64-.03 0-.03.03-.05.03l-.39 1.77.22.47.64-2.82c-.03-.06-.08-.14-.08-.23-.06-.25.02-.55.13-.63.14-.09.28.02.3.3.06.25-.02.56-.13.64l-.03.03-.69 3.05.25.5.91-4.16a2.11 2.11 0 01-.08-.22c-.05-.25.03-.56.14-.64.14-.09.28.03.3.3.06.25-.02.56-.13.64-.03 0-.03.03-.06.03l-.97 4.35.28.58 1.19-5.51c-.06-.06-.08-.14-.11-.25-.06-.25.03-.56.14-.64.14-.08.27.03.3.3.06.25-.03.56-.14.64h-.02L110 56.12l.25.5s-.2.44-.58 1.08l-.3 1.36-1.59 1.16-.03.03c-.6.64-1.16 1.05-1.63 1.39-.03.14-.09.25-.14.27-.08.06-.17.03-.22-.05-.11.05-.22.1-.3.16l.66.64 1.02-.75.06-.22c-.03-.05-.06-.1-.06-.2-.05-.24.03-.55.14-.63.14-.08.28.03.3.3.06.26-.02.56-.13.64-.03.03-.06.03-.08.03l-.09.39-1.16.86-.97-.92c-.25.11-.5.2-.7.25l1.56 1.47 1.52-1.1.44-1.97 1.72-1.28 2.11-9.73c-.06-.06-.08-.14-.11-.25-.06-.25.03-.56.14-.64.14-.08.28.03.3.3.06.26-.02.56-.14.64 0 0-.02 0-.02.03l-2.17 9.95-1.71 1.28-.45 1.97L106 64.3l-1.91-1.8c-.14.02-.34.05-.56.05l2.52 2.39 2.22-1.64.42-1.83 1.5-1.1 2.3-10.16 1.44-1.05c.02-.3.02-.58.05-.89l-.72.53c0 .2-.05.36-.16.44-.14.09-.28-.02-.3-.3-.07-.25.02-.56.13-.64.11-.08.2 0 .28.14l.8-.58c0-.22.03-.45.03-.67 0-.05 0-.1 0-.2l-.53.4c-.03.16-.08.3-.17.36-.13.08-.27-.03-.3-.3-.06-.26.03-.56.14-.65.11-.08.22 0 .28.2l.58-.42c0-.25 0-.52 0-.77l-1.14.83-.2.86c.03.05.03.08.06.16.06.25-.03.56-.14.64-.13.08-.27-.03-.3-.3-.06-.25.03-.56.14-.64.03-.03.05-.03.1-.03l.26-1 1.27-.94c0-.22 0-.42-.02-.64l-6.96 5.13c0 .2-.06.36-.17.42-.14.08-.28-.03-.3-.3-.06-.26.02-.56.14-.64.1-.09.19 0 .27.13l6.99-5.15c0-.17 0-.3-.03-.47a.62.62 0 01-.14.3c-.14.08-.28-.03-.3-.3-.06-.25.02-.56.14-.64.08-.08.19 0 .27.14l.03-.03c-.03-.22-.03-.42-.06-.64-.02-.05-.02-.1-.05-.16a.78.78 0 010-.37c0-.13-.03-.24-.03-.38l-.1.08-.62 2.47-1.44 1.05c0 .17-.06.33-.17.39-.14.08-.27-.03-.3-.3-.06-.26.03-.56.14-.64.1-.09.22 0 .27.16l1.33-1 .61-2.46.2-.14c-.03-.22-.06-.42-.08-.64l-.25.2-.59 2.43-.77.59c0 .2-.06.33-.17.41-.14.09-.28-.03-.3-.3-.06-.25.02-.56.13-.64.12-.08.23 0 .28.17l.7-.53.58-2.44.36-.25c-.03-.28-.09-.53-.11-.8l-.4.3-.6 2.58-1 .72-.53 2.3c0 .03.03.06.03.11.06.25-.03.56-.14.64-.14.08-.27-.03-.3-.3-.06-.25.03-.56.14-.64.05-.03.08-.03.14-.03l.55-2.41 1-.75.6-2.58.48-.36c-.06-.25-.08-.5-.14-.75l-1 .72-.64-.6-.44.33c0 .19-.05.36-.17.44-.13.08-.27-.03-.3-.3-.06-.26.03-.56.14-.64.11-.09.2 0 .28.14l.52-.4.64.62.91-.67c-.05-.25-.1-.47-.13-.72l-.45.33c0 .2-.05.36-.16.42-.14.08-.28-.03-.3-.3-.06-.26.02-.56.13-.64.11-.09.22 0 .28.14l.41-.31c-.08-.33-.16-.64-.25-.97l-2.85 2.1-.2-.19-.27.61 1.27 1.22c.03-.02.06-.05.09-.08.13-.08.27.03.3.3.06.25-.03.56-.14.64-.14.09-.28-.03-.3-.3 0-.06-.03-.14-.03-.22l-1.33-1.28-1.55 3.41-1.14-.03c-.5-2.6-2.22-4.3-3.8-4.24a2.7 2.7 0 00-1.83.86c-.05.06-.1.11-.16.2-.09.1-.4.44-.7 1.05-.16.33-.39.77-.58 1.36-.06.16-.11.36-.17.52-.02.09-.05.25-.1.47-.06.2-.1.36-.12.5-.03.17-.05.3-.08.47-.22 1.25-.22 2.56-.22 2.56a18.67 18.67 0 00.41 4.02c.03.16.09.3.09.33.02.14.05.25.1.33.03.11.09.22.12.33.05.17.1.28.1.3.06.12.1.23.12.31.05.11.08.2.14.3.05.15.1.26.14.29.05.1.1.19.14.24-.03.42.02.5.08.59z"/><path fill="#fff" d="M109.45 58.25c-.19.3-.41.61-.63.92l.52-.39.11-.53zM92.15 39.6c0-.2.06-.4.17-.45.14-.08.28.03.3.3.06.26-.02.56-.13.65-.09.08-.2 0-.28-.14l-1.16.86c-.06.38-.12.77-.17 1.16l1.72-1.27.8-3.47c-.03-.06-.03-.08-.05-.14-.06-.25.02-.55.14-.64.13-.08.27.03.3.3.06.26-.03.56-.14.65-.03.02-.08.02-.1.02l-.84 3.58-1.91 1.41c-.03.28-.06.59-.11.9l2.38-1.76 1.55-6.46c-.03-.05-.03-.1-.05-.16-.06-.25.02-.56.14-.64.13-.08.27.03.3.3.06.26-.03.56-.14.64-.03.03-.05.03-.08.03l-1.58 6.6-2.55 1.88c-.03.34-.06.7-.09 1.06l3-2.2 2.3-10.14 1.5-1.1.41-1.84 2.36-1.74 2.66 2.5 3.77-2.78 3.1 2.91c.03-.03.06-.06.09-.08.14-.09.28.02.3.3.06.25-.02.56-.14.64-.13.08-.27-.03-.3-.3 0-.09-.03-.14-.03-.23l-3.02-2.83-3.38 2.5a4.2 4.2 0 011 .03l2.46-1.83 2.39 2.24c.03-.05.05-.08.08-.1.14-.1.28.02.3.3.06.25-.02.55-.13.63-.14.09-.28-.02-.3-.3 0-.06-.03-.14-.03-.2l-2.33-2.18-2 1.47c.3.05.64.16 1 .3l1-.75 1.52 1.44c.03-.02.03-.05.06-.05.14-.09.27.03.3.3.06.25-.03.56-.14.64-.14.08-.27-.03-.3-.3a.38.38 0 010-.25l-1.42-1.33-.63.47c.16.08.33.16.5.25l.1-.09.48.45c.14.1.3.22.44.36l.03-.03c.14-.08.28.03.3.3v.03c.2.17.4.36.59.58a.65.65 0 01.08-.13c.14-.09.28.02.3.3 0 .06 0 .11.03.17l.92.63.88-.66.4-1.66c-.15-.28-.28-.56-.42-.84-.03.09-.06.14-.12.17-.13.08-.27-.03-.3-.3-.03-.2 0-.42.06-.53-.09-.14-.14-.25-.23-.39l-.08.06c0 .19-.06.36-.17.41-.13.08-.27-.03-.3-.3-.06-.25.03-.56.14-.64.03-.03.08-.03.1-.03-.07-.11-.13-.22-.21-.33l-.5.36-1.72-1.64c-.03.03-.06.06-.06.09-.14.08-.27-.03-.3-.3-.06-.26.03-.56.14-.65.14-.08.28.03.3.3 0 .1.03.15 0 .23l1.64 1.55.3-.22c-.08-.11-.14-.2-.22-.3-.14.08-.28-.03-.3-.3 0-.06 0-.12-.03-.15-.28-.36-.58-.69-.89-1a.54.54 0 01-.14.25c-.14.09-.27-.02-.3-.3a.78.78 0 010-.36 7.34 7.34 0 00-4.74-2.03c-5.33-.08-9.96 6.69-11.6 16l1.03-.66zm18.14-7.74c0-.2.05-.39.16-.44.14-.09.28.03.3.3.06.25-.02.56-.13.64-.09.08-.2 0-.28-.14l-.83.61c0 .2-.06.39-.17.45-.14.08-.27-.03-.3-.31-.06-.25.03-.55.14-.64.08-.08.2 0 .27.14l.84-.6z"/><path fill="#fff" d="M112.78 56.73c-.14.08-.28-.03-.3-.3-.06-.25.02-.56.13-.64.03-.03.09-.03.11-.03l.84-3.58.2-.14c.02-.27.07-.58.1-.88l-.66.47-1.56 6.46c.03.05.03.1.06.16.05.25-.03.56-.14.64-.14.09-.28-.03-.3-.3-.06-.25.02-.56.13-.64.03-.03.06-.03.09-.03l1.58-6.6.83-.6c.03-.37.05-.7.08-1.06l-1.27.94-2.3 10.15-1.5 1.1-.42 1.84-2.35 1.75-2.66-2.5-3.77 2.77-3.11-2.9c-.03.02-.06.05-.08.07-.14.09-.28-.02-.3-.3-.06-.25.02-.55.13-.64.14-.08.28.03.3.3 0 .09.03.15.03.23l3.03 2.83 3.57-2.64c-.08 0-.2 0-.28 0-.08 0-.47 0-.72 0l-2.69 1.97-2.38-2.24a.38.38 0 01-.08.1c-.14.09-.28-.02-.3-.3-.06-.25.02-.55.13-.64.14-.08.28.03.3.3 0 .06.03.15.03.2l2.33 2.2 2.17-1.59a3.78 3.78 0 01-1.11-.25l-1.06.78-1.52-1.44c-.03.03-.03.05-.06.05-.14.09-.28-.02-.3-.3-.06-.25.02-.56.14-.64.13-.08.27.03.3.3.03.09.03.17 0 .26l1.41 1.33.7-.5c-.17-.09-.36-.17-.53-.25l-.11.08-.44-.42c-.17-.1-.34-.24-.5-.36 0 0 0 .03-.03.03-.14.09-.28-.03-.3-.3 0 0 0 0 0-.03-.2-.2-.4-.39-.59-.58-.03.05-.05.1-.08.14-.14.08-.28-.03-.3-.3 0-.06 0-.12-.03-.18l-.92-.63-.89.66-.44 1.97-1.44 1.08c.14.3.3.58.47.86l1.44-1.05c0-.22.06-.45.17-.53.14-.08.28.03.3.3.06.26-.02.56-.14.64-.08.06-.16.03-.24-.08l-1.36 1c.1.2.22.36.33.55l1.66-1.22c0-.2.06-.36.17-.41.14-.09.28.03.3.3.06.25-.02.56-.13.64-.12.08-.23 0-.28-.17l-1.55 1.14c.1.17.22.33.33.5l2.08-1.53 1.72 1.64c.02-.03.05-.06.05-.08.14-.09.28.02.3.3.06.25-.02.56-.13.64-.14.08-.28-.03-.3-.3 0-.09-.03-.14 0-.23l-1.64-1.55-1.89 1.39c.11.14.2.27.3.41l1.34-.97c0-.2.05-.33.16-.41.14-.09.28.02.31.3.06.25-.03.56-.14.64-.11.08-.22 0-.28-.17l-1.16.86c.3.39.64.75 1 1.06l1.47-1.09c0-.19.05-.38.16-.44.14-.08.28.03.3.3.06.26-.02.56-.13.64-.08.09-.2 0-.28-.14l-1.3.95a7.24 7.24 0 004.77 2.05c4.77.08 8.98-5.35 10.98-13.2-.03 0-.03.03-.06.03zm-16.8 4.6c0 .2-.06.39-.17.45-.13.08-.27-.03-.3-.3-.06-.26.03-.56.14-.65.08-.08.2 0 .27.14l.84-.6c0-.2.05-.4.16-.45.14-.08.28.03.3.3.06.25-.02.56-.13.64-.08.08-.2 0-.28-.14l-.83.61zM96.15 57.84c-.11-.22-.23-.47-.34-.72l-3.52 2.6c.09.25.17.53.28.78l3.58-2.66zM95.67 56.81c-.1-.27-.22-.55-.33-.86l-3.44 2.53c.09.3.17.6.28.88l3.5-2.55zM92.82 52.07l.58-2.44.61-.44c-.03-.22-.03-.47-.05-.7l-.7.5-.6 2.47-1.86 1.39c.02.22.05.41.08.64l1.94-1.42z"/><path fill="#fff" d="M93.1 53.01l.58-2.4.44-.34a5.86 5.86 0 01-.05-.72l-.5.36-.58 2.44-2.03 1.47c.03.22.06.44.11.66l2.03-1.47z"/><path fill="#fff" d="M93.9 53.85l.64.6.28-.19c-.3-1.1-.53-2.3-.67-3.57l-.33.25-.58 2.4-2.14 1.59c.06.3.11.58.17.88l2.63-1.96z"/><path fill="#fff" d="M111.2 26.26c-4.5-6.62-11.7-12.2-19.35-16.24.14-.7-1.72-2.25-4.44-3.64-2.94-1.5-5.8-2.21-6.32-1.63-.55.58 1.33 2.77 4.3 4.27 2.13 1.08 4.19 1.74 5.38 1.83 4.3 2.33 6.98 4.02 9.7 7.04.17.17.17.17.33.64.09.25-.16.77-.58 1.02-1.1.61-2.74.78-5.43-1.22 0 0-3.38-2.74-3-2.38-3.07-2.6-9.5-6.82-17.77-10.2-.86-1.28-3.13-2.7-6.85-4.08-6.01-2.25-8.59-1.86-9.2-.97-.61.89 2.47 2.94 6.85 4.57 3.55 1.34 6.87 2 8.32 1.72 9.84 4.08 16.71 8.35 21.12 13.31.78.72.17 3.94-2.8 4.4-1.39.23-1.8.12-2.47-.16-.25-.1-.5-.25-.75-.41l-4.57-3.39c1.16-2.05-.8-5.18-4.71-7.4-4.36-2.44-8.96-2.8-11.2-.25-1.86 2.14.02 5.66 3.88 7.8 4.02 2.24 8.73 2.74 11 1.24l4.5 2.97c.19.14.36.27.52.47 1.11 1.44 1.5 4.8-1.85 7.35-1.09.83-1.89 1.63-5.52 1.08a4.54 4.54 0 01-1.06-.28l-13.3-4.82c1.72-3.28-.8-6.9-5.74-8.46-5.02-1.58-10.43-.06-12.31 3.27-1.89 3.3.3 7.38 5.32 8.98 4.3 1.36 9.04.53 11.48-1.83l15.28 5.41c.16.06.33.14.5.22 2.68 1.64 6.23 4.41 6.23 7.74 0 3.9-1.86 6.1-3.57 7.32-.67.47-1.5.72-2.33.69l-3.77-.06c-.61-4.18-5.05-7.48-10.6-7.37-5.84.1-9.92 3.66-9.75 8.18.16 4.52 4.54 8.23 10.42 8.12 5.5-.11 9.57-3.22 9.98-7.35l2.86.09c1.16.02 2.3.36 3.3 1a6.99 6.99 0 013.46 5.73c.11 2.5-.72 4.8-2.22 6.32-.3.3-.63.53-1.02.73l-15.42 7.29c-3.24-1.72-7.15-1.36-10.12.02-3.4 1.58-5.48 6.02-4.2 8.57 1.6 3.19 6.31 4.16 10.55 1.64A9.87 9.87 0 0069.23 77l14.5-7.52c.47-.25.94-.39 1.47-.47 2.4-.36 5.07-.33 7.7 1.36a5.16 5.16 0 011.64 1.66c.41.7.39 1.56-.03 2.25-1.2 2-1.36 2.02-3.22 3.88a9.47 9.47 0 00-7.73.89c-3.91 2.19-4.38 6.18-3.1 7.76 1.66 2.02 4.87 2.16 8.06.14 3.6-2.3 4.77-6.46 4.1-7.68.84-1.05 1.28-1.39 2.42-2.91a4.45 4.45 0 012.33-1.64 6.26 6.26 0 011.58-.25c1.94 0 3.27 1.56 3.24 3.5 0 .14.03.44-.14.77-.75 1.11-2 2.6-4.21 4.05-1.03.17-3.36 1.1-5.88 2.63-2.77 1.7-3.63 2.64-3.22 3.03.42.38 3.22-.84 4.88-1.8 1.72-1 4.05-2.86 4.88-3.7 5.9-3.96 10.01-9.8 12.76-14.55 2.93-5.02 5.54-13.5 5.57-20.35-.03-8.43-.8-14.64-5.63-21.79zM85.42 6.96c.22.31 1.05.95 2.44 1.53.97.42 1.5.44 1.5.44l.69.64s-1.28-.1-3.72-1.33c-2.22-1.1-3.96-2.33-3.96-2.94 0-.64 1.94-.22 4.3.89 2.02.94 3.32 2 3.52 2.16.02 0 .02.03.05.03l.33.28-.97-.2s-.08-.1-.58-.47a9.77 9.77 0 00-2.38-1.25c-1.17-.44-1.56-.22-1.22.23zM64.07 2.62c.3.34 1.3.95 2.94 1.39 1.16.33 1.74.25 1.74.25l.86.64s-1.47.13-4.38-.86c-2.66-.92-4.76-2.05-4.82-2.83-.06-.78 2.19-.7 4.99.2 2.41.74 4 1.77 4.24 1.93.03 0 .03.03.06.03l.39.28-1.14-.03s-.11-.11-.7-.44c-.66-.4-1.6-.78-2.82-1.06-1.39-.33-1.8 0-1.36.5zm9.23 14.4c.25.8 1.44 2.1 3.74 2.65 1.64.4 2.64-.1 2.64-.1l.91 1.43s-2.4 1.03-6.37-.5c-3.6-1.4-6.19-3.74-5.74-5.96.44-2.19 3.96-2.96 7.84-1.69 3.3 1.08 5.16 3.33 5.44 3.66.03.03.05.06.05.09l.45.6-1.8.42s-.09-.25-.81-.97a6.41 6.41 0 00-3.8-1.75c-2.02-.24-2.94.95-2.55 2.11zM56.78 28.5c1.1.2 2.52-.09 3.66-.67l2.16 2.39a10.4 10.4 0 01-6.46 1.05c-4.38-.72-7.24-3.63-6.7-6.8.52-3.13 4.18-4.9 8.67-4.15 2.19.36 4.4 1.47 5.65 2.88L60.94 25c-.78-1-2.03-1.8-3.22-2-1.97-.33-3.63.61-3.9 2.19-.29 1.55 1.02 3 2.96 3.33zm10.48 27.11a6.6 6.6 0 004.07-1.36l2.72 2.66a11.33 11.33 0 01-7.26 2.25c-5.1-.28-8.68-3.5-8.46-7.54.22-4 4.21-6.71 9.4-6.43a11 11 0 016.8 2.8l-3.03 2.6a5.86 5.86 0 00-3.88-2.05c-2.28-.14-4.08 1.28-4.19 3.3-.08 2.02 1.55 3.66 3.83 3.77zm-4.1 28.61c-3.44 1.36-6.77.3-7.85-2.41-1.05-2.69.72-5.71 4.24-7.1a8.02 8.02 0 015.32-.2l-1.19 2.64c-1-.47-2.24-.52-3.19-.16-1.52.6-2.3 2.08-1.74 3.43.55 1.36 2.1 1.94 3.63 1.33a4.8 4.8 0 002.27-2.13l2.6.94a8.4 8.4 0 01-4.1 3.66zm24.67 1.64c-2.63 1.47-5.32 1.19-6.32-.64-1-1.8.22-4.21 2.88-5.71a7.3 7.3 0 014.19-.92l-.78 2.08c-.8-.2-1.8-.05-2.52.34-1.17.66-1.67 1.83-1.17 2.74.5.92 1.78 1.11 2.94.44.67-.36 1.3-1.1 1.67-1.85l2.1.3a7.41 7.41 0 01-3 3.22zm6.35-.09c-1.06.7-2 1.06-2.75 1.03-.72-.03-.3-.8.75-1.5 1.06-.69 2.14-1.02 2.14-1.02l.16-.06-.1.3s0 0-.4.15c-.38.13-.77.36-1.27.74-.5.4-.22.61.22.5.47-.1 1-.36 1.5-.72.52-.36.5-.52.5-.52l.6-.17c.06.03-.3.58-1.35 1.27zm21.76-37.17c0 .44-.11.55-.33.5-.33-.09-.67-.12-.97-.17-.14.78-.11.83.28.91.3.09.6.17.97.28a210.8 210.8 0 01-.42 3.05c-.03.11-.2.25-.28.22-.27-.08-.55-.27-.83-.33-.08-.03-.22.17-.3.28.05.16.08.41.16.5.25.22.56.33.8.52.09.06.2.34.17.42-.22.97-.44 1.94-.7 3-.32-.28-.63-.53-.9-.76-.31-.24-.31-.24-.48.5.3.3.61.61.92.95.14.14.25.27.1.58-.3.86-.6 1.72-.93 2.63-.28-.36-.56-.66-.8-1.02-.26-.36-.42-.3-.53.33.3.47.63.97 1 1.55-.45.86-.87 1.7-1.3 2.6-.26-.46-.5-.82-.7-1.27-.22-.44-.36-.41-.53.2.25.55.53 1.16.83 1.83-.5.72-1 1.41-1.52 2.16-.28-.7-.5-1.3-.78-1.97-.11.17-.22.28-.36.44.22.72.42 1.39.67 2.17-.53.5-1.03 1-1.56 1.47-.05.05-.22-.09-.25-.23-.13-.44-.22-.94-.36-1.35-.05-.17-.19-.2-.3-.3-.03.18-.14.43-.11.6.05.5.16.97.28 1.44.05.33.02.53-.17.64-.44.25-.89.53-1.33.8-.2.11-.28 0-.3-.36-.06-.5-.12-1-.2-1.47-.03-.16-.17-.25-.25-.36-.06.2-.2.4-.17.59.03.52.11 1.05.11 1.58 0 .16-.1.44-.16.47-.45.16-.89.25-1.36.39-.28.08-.33-.14-.36-.59 0-.58-.03-1.13-.06-1.74-.13 0-.25 0-.41-.03 0 .66-.03 1.3 0 1.91 0 .45-.09.64-.33.61-.42-.05-.86-.05-1.28-.08-.22 0-.3-.17-.28-.58.03-.61.06-1.25.06-1.89-.25-.2-.39-.08-.45.47-.02.5-.08.97-.16 1.47-.03.14-.17.36-.25.33-.47-.13-.92-.3-1.39-.52-.08-.03-.16-.36-.16-.56.02-.44.1-.88.19-1.3.11-.55.03-.8-.33-.8-.11.58-.25 1.19-.36 1.8-.09.39-.17.53-.4.36-.38-.33-.77-.61-1.16-.89-.25-.16-.27-.41-.13-.83.13-.42.25-.86.33-1.3.03-.17-.06-.36-.08-.56-.12.06-.25.06-.31.2-.2.55-.39 1.16-.61 1.85-.53-.6-1.03-1.19-1.55-1.83.22-.58.41-1.13.6-1.66.12-.25.17-.53-.02-.66-.08-.06-.25.05-.33.19-.25.47-.47 1-.72 1.55-.45-.77-.9-1.5-1.36-2.3.33-.64.64-1.22.97-1.86-.11-.19-.2-.33-.3-.52-.31.47-.56.88-.84 1.33-.1.2-.22.36-.33.05-.3-.8-.64-1.58-.97-2.44.39-.52.72-1 1.08-1.47-.06-.58-.22-.72-.5-.36-.28.34-.55.64-.91 1-.25-.97-.5-1.91-.75-2.85-.03-.09.08-.36.16-.45.3-.3.64-.58.95-.86 0-.63-.17-.8-.45-.55-.22.2-.47.33-.69.53-.2.13-.3.1-.36-.28-.11-.8-.22-1.61-.36-2.39-.06-.38.03-.55.22-.63.25-.11.5-.25.75-.4.17-.08.33-.19.22-.55-.03-.13-.2-.27-.3-.25-.28.06-.59.23-.86.28-.09.03-.23-.14-.25-.25-.09-1-.11-2-.17-3.08.33-.08.67-.16.97-.19.39-.06.42-.11.33-.89-.36.03-.69.06-1.05.09-.17.02-.25-.09-.25-.45.03-.97.06-1.97.11-3 .47.04.89.04 1.36.06.03-.27.03-.47.06-.74-.34-.09-.67-.2-.97-.25-.25-.06-.37-.17-.28-.7.1-.77.22-1.58.33-2.38.06-.36.17-.44.33-.36.28.14.53.28.8.36.09.03.2-.2.31-.3-.05-.17-.1-.4-.2-.48-.32-.25-.66-.44-1.02-.7.25-.99.47-1.96.72-2.87.03-.11.2-.2.28-.17.28.17.53.44.78.61.08.06.22-.08.33-.11-.03-.2-.03-.5-.11-.58-.28-.36-.61-.67-.97-1.03.33-.91.64-1.8.97-2.66.03-.08.22-.08.28 0 .25.25.47.6.72.86.08.08.2-.06.3-.08 0-.2 0-.48-.05-.59-.2-.36-.42-.66-.64-.97-.17-.22-.22-.44-.03-.77.3-.59.61-1.2.92-1.83.13-.28.25-.3.38-.03.23.44.48.86.7 1.27.39-.33.39-.41.14-.94-.2-.41-.4-.83-.56-1.27 0-.03 0-.09-.03-.23.47-.66.95-1.35 1.47-2.07.25.66.5 1.27.75 1.9.42-.24.42-.3.22-.9-.16-.5-.3-1-.5-1.59.59-.55 1.11-1.08 1.7-1.66.19.75.36 1.47.55 2.22.14-.11.25-.2.39-.3-.14-.78-.28-1.53-.42-2.4.58-.32 1.11-.66 1.64-.93.05-.03.22.19.25.36.1.6.16 1.22.27 1.85.14-.05.25-.08.42-.13-.06-.8-.11-1.61-.2-2.5.59-.17 1.17-.33 1.73-.44.05 0 .16.25.16.41.03.5.03 1.03.09 1.53.02.16.13.3.19.44.08-.17.22-.33.22-.5.03-.5.03-1.02.03-1.55 0-.39.08-.56.3-.53.45.03.89.06 1.33.09.23 0 .28.16.25.55-.02.5-.08 1.03-.08 1.55 0 .17.11.36.2.45.05.02.19-.2.22-.34.08-.52.14-1.05.16-1.58.03-.38.14-.52.34-.44.41.17.83.33 1.24.5.25.08.33.3.22.75-.1.58-.19 1.16-.27 1.77.14.08.25.14.39.22.13-.63.27-1.22.38-1.83.09-.41.17-.52.4-.36.38.3.8.64 1.18.92.22.16.25.36.14.72-.1.39-.2.8-.3 1.16-.2.56-.06.78.25.86.22-.69.44-1.38.69-2.16.5.58.94 1.1 1.41 1.7.06.05.06.38 0 .52-.19.55-.41 1.08-.63 1.66.1.17.19.3.3.47.3-.63.58-1.27.92-1.97.44.78.88 1.5 1.35 2.3-.33.62-.63 1.2-.94 1.8.08.2.17.37.28.59.25-.42.5-.75.72-1.16.25-.48.42-.4.58.1.2.59.45 1.14.67 1.67.16.39.1.61-.11.86-.23.25-.45.53-.64.83-.06.11-.11.39-.08.56.05.33.19.27.33.1.3-.33.6-.66.97-1.07.28 1.02.53 2 .83 3.04-.33.31-.66.61-.97.9-.17.13-.3.3-.17.6.06.14.23.2.34.17.27-.14.52-.39.8-.53.08-.05.28.06.28.17.16.97.3 1.94.47 2.94-.44.25-.86.47-1.25.69-.03.72 0 .8.36.66.14-.05.3-.1.45-.16.55-.2.58-.2.63.83.06.64.06 1.28.09 1.91.02.45-.09.59-.3.61-.34.06-.65.11-.98.2 0 .25-.03.47-.03.72.36 0 .72.05 1.09.03.22 0 .27.13.27.52-.05.75-.08 1.58-.1 2.39z"/><path fill="#fff" d="M90.68 56.56c0-.63-.13-.8-.44-.52-.22.2-.44.33-.66.52-.2.14-.3.11-.36-.27-.12-.8-.23-1.58-.37-2.36-.05-.39.03-.55.23-.64.25-.1.5-.25.72-.39.16-.08.3-.19.22-.55-.03-.14-.2-.28-.3-.25-.28.06-.56.22-.87.28-.08.03-.22-.14-.22-.25-.08-.97-.1-1.97-.16-3.05.33-.08.63-.17.94-.2.39-.05.39-.1.33-.88-.33.02-.7.05-1.05.08-.17.03-.25-.08-.25-.44.03-.97.05-1.97.11-3 .47.03.89.03 1.33.06.03-.28.03-.47.06-.75-.34-.08-.64-.2-.97-.25-.25-.06-.36-.17-.28-.7.1-.77.22-1.57.3-2.38.06-.36.14-.44.34-.36.25.14.52.28.77.36.09.03.2-.2.3-.3-.05-.17-.1-.4-.19-.45-.3-.25-.63-.44-1.02-.69.25-1 .44-1.94.7-2.88.02-.11.18-.2.27-.17.28.17.5.44.77.61.09.06.23-.08.3-.11-.02-.2-.02-.5-.1-.58-.28-.36-.58-.64-.94-1.03.33-.91.63-1.8.97-2.66.02-.08.22-.08.27 0 .25.25.45.61.7.86.08.08.19-.06.3-.08 0-.2 0-.47-.05-.59-.2-.36-.42-.66-.61-.94-.17-.22-.2-.44-.03-.77.3-.59.6-1.2.91-1.8.14-.28.25-.31.4-.03.21.44.43.86.68 1.27.36-.33.4-.41.14-.94-.2-.42-.36-.83-.55-1.25 0-.03 0-.08-.03-.22.47-.67.94-1.33 1.44-2.08.25.67.5 1.28.72 1.89.4-.25.42-.3.22-.92-.16-.5-.3-1-.5-1.58a93.4 93.4 0 001.67-1.64c.2.75.36 1.45.55 2.2.14-.12.25-.2.4-.31-.15-.78-.29-1.52-.42-2.36.55-.33 1.08-.66 1.6-.94.06-.03.2.2.23.36.1.58.16 1.22.25 1.86.13-.06.24-.08.41-.14a96.8 96.8 0 00-.2-2.47c.59-.16 1.14-.33 1.7-.44.05 0 .17.25.17.41.02.5.02 1.03.08 1.53.03.17.14.3.2.44.08-.16.21-.33.21-.5.03-.5.03-1.02.03-1.52 0-.39.09-.56.28-.53.44.03.86.06 1.3.09.2 0 .28.16.25.55-.03.5-.08 1.03-.08 1.53 0 .16.1.36.2.44.05.03.19-.2.21-.33.09-.53.12-1.06.17-1.58.03-.4.14-.53.33-.45.42.17.8.33 1.22.5.25.08.3.3.22.75-.1.55-.16 1.14-.27 1.77.14.09.25.14.39.23.13-.61.27-1.2.38-1.8.09-.42.17-.53.4-.37.38.3.77.64 1.18.92.23.16.23.36.11.72-.1.39-.19.8-.3 1.16-.17.56-.06.78.25.86.22-.69.44-1.36.7-2.16.46.58.94 1.1 1.38 1.7.05.05.05.38 0 .52-.2.55-.39 1.08-.61 1.66.1.17.2.3.3.47.3-.63.59-1.24.9-1.94.43.78.85 1.5 1.32 2.3-.33.61-.6 1.17-.94 1.8.08.2.16.37.28.59.25-.42.5-.75.72-1.17.25-.47.41-.38.58.11.2.59.41 1.14.66 1.67.17.39.11.6-.1.86-.23.25-.45.52-.62.83-.05.11-.1.39-.08.55.06.34.2.28.33.11.3-.33.61-.66.97-1.08.28 1 .53 2 .8 3.05-.32.3-.63.61-.96.89-.17.14-.3.3-.17.61.06.14.22.2.33.14.28-.14.53-.39.78-.53.08-.05.28.06.28.17.16.94.3 1.91.47 2.94-.44.25-.83.47-1.22.69-.03.7 0 .8.36.67.14-.06.3-.12.44-.17.56-.2.56-.2.64.8.06.64.06 1.28.08 1.92.03.41-.08.55-.3.58-.3.05-.64.1-.97.2 0 .24-.03.46-.03.71.36 0 .72.06 1.05.03.23 0 .28.14.28.53-.03.8-.08 1.6-.08 2.44 0 .44-.11.55-.33.5-.34-.09-.64-.11-.97-.17-.12.78-.12.83.27.91.3.09.61.17.95.25-.14 1.06-.28 2.06-.42 3.05-.03.11-.2.25-.25.23-.28-.09-.55-.28-.83-.34-.09-.02-.2.17-.3.28.05.17.08.42.16.5.25.2.53.33.8.53.09.05.2.33.17.41-.22.97-.44 1.94-.7 2.97-.33-.28-.6-.53-.9-.75-.31-.25-.31-.25-.48.5.3.3.58.6.89.91.14.14.22.28.1.59-.3.86-.6 1.69-.9 2.6-.28-.36-.56-.64-.78-1-.25-.36-.4-.3-.53.34.3.47.61.97.97 1.55-.44.86-.83 1.69-1.3 2.58-.25-.47-.47-.83-.7-1.28-.19-.44-.36-.41-.52.2.25.55.52 1.13.83 1.83-.5.72-1 1.41-1.5 2.13-.25-.7-.5-1.3-.75-1.97-.1.17-.22.28-.36.45.22.72.42 1.38.64 2.13-.53.5-1 1-1.52 1.47-.06.06-.23-.08-.25-.22-.14-.45-.22-.94-.34-1.36-.05-.17-.19-.2-.3-.3-.03.19-.14.44-.11.6.05.5.16.97.25 1.42.05.33.03.53-.17.64-.44.25-.89.52-1.33.8-.2.11-.28 0-.3-.36-.06-.5-.11-1-.2-1.47-.03-.17-.16-.22-.25-.36-.05.2-.16.39-.16.58.02.53.1 1.06.1 1.58 0 .17-.1.45-.16.47-.44.17-.89.25-1.33.4-.28.07-.33-.15-.36-.6 0-.57-.03-1.13-.06-1.7-.13 0-.25 0-.41-.04 0 .64-.03 1.28 0 1.92 0 .44-.08.6-.3.58-.42-.06-.84-.06-1.28-.09-.22 0-.28-.16-.25-.58.03-.6.05-1.22.05-1.85-.25-.2-.38-.09-.44.47-.03.5-.08.97-.17 1.44-.02.14-.16.36-.25.33a8.1 8.1 0 01-1.35-.53c-.09-.02-.17-.36-.17-.55.03-.44.11-.89.2-1.3.1-.56.02-.8-.31-.78-.11.58-.25 1.2-.36 1.8-.09.4-.14.53-.36.36-.4-.33-.78-.6-1.17-.88-.25-.17-.27-.42-.14-.84.14-.41.25-.83.34-1.27.02-.17-.06-.36-.06-.56-.1.06-.25.06-.3.2-.2.55-.36 1.13-.59 1.83-.52-.61-1-1.2-1.52-1.8.22-.59.42-1.14.61-1.64.11-.25.17-.53-.03-.67-.08-.05-.25.06-.33.2-.25.47-.44.97-.72 1.55-.45-.77-.86-1.5-1.33-2.3.33-.64.64-1.2.97-1.83-.11-.2-.2-.33-.3-.53-.28.48-.56.9-.84 1.33-.11.2-.22.37-.33.06-.3-.78-.64-1.58-.97-2.41.36-.5.72-.97 1.05-1.47-.05-.58-.2-.72-.47-.36-.28.33-.55.64-.89 1-.25-.97-.5-1.92-.72-2.86-.03-.08.09-.36.17-.44.41-.53.72-.78 1.02-1.06zm24.1-17.27c-.22.14-.42.28-.61.42-.2.14-.28 0-.34-.34-.08-.5-.16-1-.27-1.5-.25-1.16-.25-1.16.36-1.74.58-.55.6-.3.27-1.5-.3-1.19-.22-1.02-.8-.41-.42.44-.42.52-.06 1.27a8 8 0 01.17-.58c.06-.14.11-.25.17-.36.05.08.14.14.16.25.06.17.09.36.14.58-.2.2-.39.36-.55.56-.2.22-.3.14-.39-.22-.2-.67-.39-1.3-.61-1.95-.11-.3-.11-.5.08-.72.28-.36.53-.74.83-1.16-.25-.61-.47-1.14-.69-1.75-.28.45-.53.86-.8 1.28.1.28.22.47.33.75.08-.23.14-.4.2-.56.02-.16.05-.36.08-.52.08.08.16.16.22.27.14.25.17.53-.03.75-.16.2-.33.44-.53.7-.24-.56-.47-1.06-.69-1.56-.44-.91-.44-.91.03-1.86.47-.94.47-.72 0-1.58-.47-.83-.39-.83-.8.09-.34.72-.34.72.13 1.27.03-.25.06-.47.06-.66.03-.14.03-.3.05-.45.09.03.14.03.23.09.1.1.22.25.33.36-.22.44-.36.69-.5 1-.14.33-.28.3-.42.02-.3-.5-.6-.97-.94-1.41-.16-.22-.16-.42-.05-.75.16-.39.3-.78.44-1.2.06-.13.06-.46 0-.52-.28-.36-.55-.66-.86-1.02-.2.58-.36 1.1-.53 1.66.17.17.28.3.53.58 0-.39-.03-.58-.03-.8 0-.14-.02-.3.03-.4.06-.07.14-.07.2-.02.22.2.36.42.13.92-.08.2-.14.44-.25.63-.05.12-.16.2-.22.14-.47-.47-.94-.97-1.41-1.44.05-.28.1-.5.17-.72.38-1.58.36-1.7-.53-2.13-.03-.03-.06-.06-.08-.06-.06.03-.14.08-.17.17-.11.5-.2 1-.33 1.58.19.05.38.22.47.1.2-.19.03-.44-.03-.66-.03-.05.11-.39.17-.39.27-.02.38.36.27.84-.05.19-.08.38-.14.6-.05.37-.16.42-.36.28-.25-.16-.5-.36-.75-.5-.66-.41-.66-.41-.5-1.71.14-.95.14-.95-.35-1.2-.64-.3-.64-.3-.78.86-.11.86-.08.89.44.92 0-.2 0-.4-.02-.58a3.31 3.31 0 00-.11-.5c.1-.03.22-.06.3-.06.08 0 .14.06.25.11-.06.42-.11.8-.14 1.22-.03.36-.14.42-.33.36-.42-.14-.86-.25-1.28-.33-.16-.03-.22-.17-.22-.47.03-.47.06-.94.06-1.42.02-.3 0-.58-.23-.55-.3.03-.63.11-.94.17 0 0 0 .08 0 .1-.03.5-.03 1-.05 1.5.14.03.19.06.25.06.1-.06.19-.14.3-.22-.05-.14-.11-.3-.17-.45-.02-.1-.08-.25-.05-.38 0-.06.11-.14.17-.17.1-.03.25 0 .41 0 0 .42-.03.75-.03 1.08 0 .5-.08.67-.36.67-.38-.03-.8 0-1.19.05-.2.03-.28-.08-.3-.47-.09-2.02-.09-2.02-1.17-1.55-.03 0-.03.05-.08.1.05.56.08 1.15.14 1.73.08 0 .1.03.14 0 .1-.11.22-.22.33-.3-.08-.15-.17-.28-.22-.42-.03-.09-.09-.23-.09-.3 0-.1.09-.23.14-.26.14-.05.25-.05.42-.05.03.47.08.86.08 1.27 0 .14-.08.39-.14.42-.52.22-1.05.41-1.6.6-.06-.4-.14-.77-.2-1.16-.17-1.3-.14-1.05-.7-.72-.69.42-.63.22-.4 1.44.13.8.16.8.6.3-.05-.13-.08-.3-.17-.4a4.06 4.06 0 00-.24-.37c.08-.1.19-.22.27-.3.17-.14.25-.06.3.28.04.27.12.55.12.85 0 .17-.06.45-.11.48-.5.38-.97.72-1.5 1.08-.17-.67-.36-1.33-.55-2.05-.36.36-.7.69-1.09 1.05.17.58.34 1.08.48 1.6.1-.1.22-.16.3-.27a.94.94 0 00.11-.33.67.67 0 00-.16-.28c-.09-.08-.17-.14-.23-.22.06-.14.11-.3.2-.42.16-.25.3-.22.39.2.05.22.1.47.16.66.09.28.06.45-.1.61-.4.42-.78.83-1.15 1.28-.19.22-.27.16-.38-.14-.14-.39-.28-.78-.45-1.11-.05-.11-.22-.2-.3-.14-.28.33-.53.72-.8 1.14.22.5.41.97.63 1.44.08-.11.14-.14.17-.22.05-.17.14-.34.2-.5-.12-.06-.2-.11-.31-.2-.06-.05-.14-.1-.17-.22-.03-.05.03-.25.08-.3.09-.17.2-.28.34-.45.14.36.3.7.38 1.06.03.14 0 .44-.05.55-.33.56-.67 1.08-1 1.64-.16.27-.28.25-.39 0a8.5 8.5 0 00-.55-1c-.06-.08-.22-.08-.28 0-.25.42-.47.89-.72 1.39.28.41.5.8.78 1.19.1-.28.22-.5.39-.86a9.5 9.5 0 00-.73-.2c.4-.94.4-.94.75-.33.03.08.09.14.11.22.17.23.2.45.03.78-.25.53-.53 1.05-.75 1.66-.2.53-.33.5-.58.2-.78-1-.78-.97-1.27.6 0 .03-.03.03-.03.06.03.17 0 .45.05.5.23.28.45.47.67.7.05-.09.08-.12.11-.14.05-.23.08-.48.14-.7-.11 0-.22.06-.36.03-.09-.03-.17-.11-.33-.25.27-.22.22-.94.55-.64.2.17.36.45.58.67-.28.94-.55 1.86-.83 2.74-.03.09-.2.11-.25.06-.25-.17-.5-.42-.75-.56-.08-.05-.25.03-.28.14-.16.56-.27 1.14-.41 1.78.3.2.55.39.83.5.06.02.17-.14.2-.28.02-.17 0-.39.02-.58-.08 0-.16 0-.25 0-.08.02-.2.08-.27.1 0-.19 0-.4.05-.57.06-.14.17-.36.22-.34.25.14.47.36.7.53-.2 1-.34 1.88-.53 2.77-.03.14-.22.3-.3.3-.34-.08-.64-.24-1-.38-.11.75-.2 1.44-.3 2.16.38.11.68.2 1.04.3 0-.38-.02-.66-.02-.94-.11.09-.22.23-.34.25-.08.03-.22-.02-.25-.14-.1-.44.12-.88.37-.8.1.03.24.08.36.14.16.05.22.25.19.58-.08.75-.17 1.53-.22 2.27-.03.4-.11.56-.33.53-.31-.03-.64-.03-1-.05-.03.63-.06 1.22-.06 1.8 0 .14.11.36.2.36.25.03.52-.03.77-.03.03-.14.06-.2.06-.25-.03-.22-.06-.47-.09-.7-.1.12-.19.29-.3.37-.08.05-.25.05-.28-.06-.14-.41.06-.91.3-.91.15 0 .28-.03.42.05.09.03.2.2.2.3 0 1 0 2.03 0 3.06-.22.08-.42.14-.59.16a.99.99 0 01-.27.06c-.34-.03-.45.25-.36.83.02.11.02.25.02.39.06 1.08.06 1.08.64.91.47-.13.5-.19.34-1.13-.09.1-.17.22-.25.33-.09.11-.14.22-.23.36-.05-.22-.13-.41-.13-.64 0-.14.08-.38.13-.41.25-.11.5-.14.75-.2.09 1 .17 1.94.28 2.86 0 .11.03.2.03.36-.14.08-.25.2-.36.25-.92.5-.97.64-.59 2.27 0 .03 0 .06 0 .06.09.05.17.22.23.16.27-.16.52-.36.8-.55-.03-.17-.03-.25-.05-.33-.06-.17-.14-.34-.2-.5a2.4 2.4 0 01-.2.47c-.05.11-.13.2-.19.3-.3-.86-.27-1 .22-1.27.14-.08.28-.14.45-.22.2.94.39 1.83.53 2.74a.84.84 0 01-.14.53c-.23.28-.47.44-.7.7a.73.73 0 00-.14.46c.14.59.28 1.14.45 1.75.33-.36.6-.7.89-1-.03-.14-.03-.2-.06-.25-.08-.16-.17-.3-.28-.47-.05.2-.08.42-.14.56-.05.1-.22.19-.27.13a.75.75 0 01.08-.97c.11-.1.22-.2.3-.3.2-.22.28-.11.37.2.19.66.38 1.32.6 1.93.14.4.09.59-.1.84-.28.33-.53.69-.8 1.08.24.63.46 1.16.68 1.74.25-.39.47-.69.67-1.02a.68.68 0 00.03-.47c-.06-.17-.2-.25-.28-.36-.03.16-.08.33-.11.52-.03.14-.06.3-.08.36-.06.06-.14-.03-.2-.1-.08-.17-.14-.37-.22-.6.25-.35.5-.68.72-1.02.39.86.75 1.67 1.14 2.5-.28.58-.56 1.14-.89 1.75.3.5.55.97.86 1.5.25-.53.44-1 .66-1.48a1.81 1.81 0 00-.24-.41c-.06-.06-.17-.09-.2-.03-.05.06-.08.25-.08.36-.03.17-.03.36-.03.53-.11-.09-.25-.14-.33-.3-.06-.1-.06-.42 0-.53.14-.37.33-.67.5-.98.38.59.69 1.14 1.05 1.58.28.34.28.61.08 1.11-.55 1.47-.55 1.5.28 2.3.03.03.06.09.08.09.09-.03.17-.03.2-.11.16-.45.3-.92.44-1.39-.08-.11-.11-.17-.17-.2-.1-.05-.19-.08-.3-.1 0 .19.03.38 0 .58 0 .16-.06.33-.11.55-.2-.22-.3-.36-.47-.55.16-.5.33-.94.5-1.44.52.52 1.02 1.02 1.52 1.58-.14.55-.28 1.1-.39 1.66-.02.2-.02.55.06.64.28.28.58.47.91.72.11-.56.23-1.03.3-1.53a.67.67 0 00-.1-.41c-.09-.09-.22-.03-.3-.06 0 .2.02.36.02.56 0 .2 0 .36.03.6-.58-.35-.58-.35-.36-1.24.03-.11.05-.2.08-.3.06-.34.14-.42.33-.28.4.27.78.5 1.2.72.19.1.25.28.19.64-.08.58-.17 1.16-.25 1.83.39.16.78.3 1.16.44.09-.7.14-1.25.2-1.8-.06-.06-.06-.11-.08-.11-.14 0-.28.02-.42.02.06.2.11.4.11.59 0 .16-.05.44-.11.47-.28.14-.44-.2-.39-.72.03-.2.06-.4.08-.56.03-.36.12-.52.34-.44.41.14.86.22 1.27.33.2.03.25.22.23.56-.03.5-.06.97-.06 1.47 0 .13.08.38.17.41.91.33 1.1-.05.97-1.88-.14.02-.36-.03-.45.13-.14.3.03.5.17.67a.9.9 0 01-.08.44c-.25.25-.48-.02-.45-.58 0-.22.03-.41.03-.64 0-.36.08-.5.28-.5.41 0 .83-.02 1.27-.08.25-.03.34.14.34.58 0 .45.02.9.05 1.33 0 .14.08.4.11.36.36-.05.72-.16 1.11-.25-.05-.72-.11-1.27-.17-1.85-.1.03-.22.03-.3.08-.06.06-.17.17-.17.22 0 .14.06.28.11.4.06.13.11.27.17.43-.11.09-.22.23-.33.23-.09 0-.2-.14-.22-.25-.06-.45-.06-.92-.09-1.36.5-.2.95-.3 1.36-.56.33-.2.44-.02.53.56.22 1.66.33 1.74 1.19.94.06-.05.14-.3.14-.42-.06-.47-.17-.94-.25-1.44-.14.09-.25.09-.33.2a.6.6 0 00-.11.33c0 .11.08.22.13.3.09.12.14.23.22.34-.08.1-.16.25-.24.3-.17.14-.3.11-.36-.3-.03-.28-.11-.53-.11-.78 0-.17.05-.41.1-.47.5-.39 1-.72 1.53-1.1.14.55.28 1.1.42 1.63.05.14.19.3.27.27.3-.25.59-.55.92-.88-.17-.59-.33-1.11-.56-1.8-.14.33-.25.55-.36.77.11.11.22.17.3.33.06.11.1.42.06.5-.19.42-.38.34-.52-.16-.06-.17-.09-.36-.14-.5-.14-.36-.06-.56.14-.75.36-.39.72-.78 1.08-1.22.2-.25.3-.17.41.17.17.5.36.94.56 1.46.33-.5.64-.91.97-1.38-.2-.47-.39-.86-.56-1.25-.02-.05-.19 0-.25.08-.08.12-.1.34-.16.5.08.09.14.17.22.2.08.05.17.1.28.16-.09.17-.14.4-.22.5-.09.09-.23.09-.28 0-.17-.3-.28-.7-.42-1.05.47-.78.92-1.5 1.39-2.25.3.53.58 1.03.89 1.56.25-.5.5-.97.72-1.47.02-.09.02-.34-.03-.42-.2-.33-.39-.64-.64-1-.05.14-.1.25-.14.36-.05.17-.05.36-.1.56.07.03.19.03.27.05.05.03.17.03.17.09.02.1.02.3 0 .38-.06.2-.17.34-.28.56-.17-.3-.3-.56-.47-.8-.17-.25-.17-.45 0-.73.27-.58.55-1.19.8-1.8.14-.39.28-.36.44-.14.25.34.5.61.78.97.2-.58.39-1.08.58-1.6a.97.97 0 00-.03-.42c-.22-.28-.47-.5-.72-.75-.05.11-.08.17-.08.22-.03.22-.05.45-.1.7.1-.03.21-.06.32-.06.09 0 .17.06.25.08.03.09.03.14.06.23-.17.19-.34.6-.45.58-.22-.09-.41-.45-.63-.7.3-1 .6-1.94.91-2.93.2.13.39.27.56.41.66.5.55.61.83-.64.25-1 .22-1-.3-1.35-.48-.3-.48-.3-.59.74.22-.08.44-.13.67-.22-.2 1.11-.2 1.11-.67.75-.06-.03-.11-.11-.17-.14-.22-.1-.22-.33-.13-.66.16-.7.3-1.42.41-2.14.08-.5.2-.55.42-.44.28.14.58.25.91.39.09-.67.2-1.22.25-1.8 0-.14-.08-.42-.14-.45-.25-.11-.5-.14-.74-.2-.03.09-.06.15-.06.2 0 .25-.06.56.03.7.14.27.22 0 .3-.23 0-.03.22.09.25.17.09.47-.14.86-.39.75a1.67 1.67 0 00-.33-.14c-.2-.03-.25-.22-.2-.56.09-.8.17-1.6.23-2.4.03-.37.1-.5.3-.48.25.03.53.08.78.08.08 0 .22-.19.22-.3.06-.61.06-1.22.09-1.83-.37 0-.67-.03-1.03-.03.03.33.03.61.05.89.12-.11.23-.25.37-.3.08-.03.22 0 .24.08.14.39-.02.86-.3.86-.11 0-.22-.03-.33 0-.22.02-.3-.11-.3-.56.02-.75.02-1.5 0-2.24 0-.47.08-.64.32-.7.3-.05.61-.14.95-.22-.06-.77-.09-1.47-.14-2.19-.36.14-.67.25-1.03.39.06.33.06.72.17.83.17.2.22-.17.3-.41 0-.06.23-.03.25.05.14.44.06.8-.22.92-.14.05-.28.1-.41.08-.09-.03-.2-.2-.23-.36-.08-.78-.13-1.58-.22-2.36-.03-.36.03-.52.22-.64.3-.16.64-.36.97-.58a23.8 23.8 0 00-.27-1.69c-.03-.14-.17-.33-.22-.28-.25.14-.53.36-.78.56.03.22.05.41.08.58.03.11.11.25.17.22.08-.03.14-.2.2-.3.05-.11.1-.28.16-.4.05.15.14.23.17.4-.17.14-.17.3-.14.55z"/></svg>