<svg xmlns="http://www.w3.org/2000/svg" width="157" height="30" fill="none"><path fill="#fff" d="M122.47 22.27h-4.2V6.98h4.2v15.29zm-3.77-.42h3.36V7.4h-3.36v14.45z"/><path fill="#fff" d="M122.69 6.77v15.71h-4.2a.44.44 0 01-.44-.43c0-.24.2-.44.43-.44h3.36v-14h-3.36a.44.44 0 01-.43-.43c0-.24.2-.44.43-.44h4.21v.03zM155.72 6.85a.3.3 0 00-.26.13h-3a.31.31 0 00-.27-.13.34.34 0 00-.33.33v8.09l-6.28-8.29a.34.34 0 00-.46-.06c-.02.02-.04.04-.06.06h-3.3v15.3h3.98v-.19c.06-.06.1-.15.1-.24v-8.09l3.89 5.13 2.53 3.4h3.66v-.2c.06-.06.1-.15.1-.24V7.15c.03-.17-.12-.3-.3-.3zm-13.52.55h2.9l7.42 9.77V7.4h2.87v14.43h-2.7a.35.35 0 00-.06-.2l-7.42-9.78v9.98h-3V7.4zM71.26 22.27h-3.67l-6.51-8.72v8.72H57.1V6.98h3.66l6.54 8.75V6.98h3.95v15.29zm-3.45-.42h3.01V7.4h-3.1V17L60.54 7.4h-3v14.45h3.1v-9.6l7.18 9.6zm-.1.3a.34.34 0 01-.27-.12l-6.26-8.27v8.1c0 .17-.15.32-.32.32a.34.34 0 01-.33-.33v-10l7.41 9.78c.11.14.1.35-.06.46a.25.25 0 01-.18.07zm3.33 0a.34.34 0 01-.33-.32V7.16c0-.18.15-.33.33-.33.17 0 .33.15.33.33v14.67c-.03.2-.16.33-.33.33zm-3.2-4.96L60.4 7.38a.32.32 0 01.07-.46c.13-.11.34-.09.45.06l6.28 8.29V7.16c0-.18.15-.33.33-.33.17 0 .33.15.33.33v10.03h-.03zM84.93 10.5a.4.4 0 100-.8.4.4 0 000 .8z"/><path fill="#fff" d="M81.11 22.27h-4.2V10.45h-4.45V6.96h13.12v3.49h-4.47v11.82zm-3.8-.42h3.37V10.01h4.49V7.38H72.89V10h4.45v11.84h-.02zM93.6 22.44c-4.29 0-7.08-2.6-7.08-6.63V6.98h4.2v8.86c0 1.85 1.14 3.03 2.89 3.03 1.72 0 2.79-1.16 2.79-3.03V6.98h4.18v8.86c.02 4-2.72 6.6-6.97 6.6zM86.97 7.4v8.41c0 3.82 2.55 6.22 6.65 6.22 4.05 0 6.56-2.38 6.56-6.22V7.4h-3.34v8.41c0 2.12-1.26 3.47-3.2 3.47-1.99 0-3.32-1.4-3.32-3.47V7.4h-3.35zm6.65 14.95a.34.34 0 01-.33-.32c0-.18.15-.33.33-.33 3.99 0 6.45-2.33 6.45-6.1V7c0-.17.15-.32.33-.32.17 0 .32.15.32.33v8.63c-.02 4.08-2.79 6.71-7.1 6.71zm.02-3.16c-2.05 0-3.43-1.44-3.43-3.57V7c0-.18.16-.33.33-.33.18 0 .33.15.33.33v8.63c0 1.79 1.09 2.92 2.79 2.92 1.66 0 2.68-1.11 2.68-2.92V7c0-.18.15-.33.33-.33.17 0 .32.15.32.33v8.63c-.04 2.16-1.35 3.55-3.35 3.55zM39.36 17.2a.42.42 0 00-.09-.25.32.32 0 00-.46 0 5.29 5.29 0 01-3.5 1.65c-2.19 0-3.82-1.74-3.82-4.05 0-2.27 1.63-4 3.81-4 1.25 0 2.58.7 3.5 1.82.06.06.15.1.23.1l.02.03.03-.02c.06 0 .13-.02.2-.07a.28.28 0 00.1-.28l2.16-2.55-.13-.13a8.85 8.85 0 00-6.15-2.58c-4.64 0-8.15 3.34-8.15 7.74 0 4.5 3.44 7.88 8.02 7.88 2.2 0 4.62-1.07 6.3-2.8l.15-.15-2.22-2.33zm-4.23 4.83c-4.34 0-7.6-3.2-7.6-7.44 0-4.16 3.3-7.3 7.73-7.3 2.07 0 4.23.87 5.71 2.31l-1.83 2.16a5.37 5.37 0 00-3.81-1.86c-2.55 0-4.47 1.99-4.47 4.65 0 2.68 1.92 4.69 4.47 4.69 1.26 0 2.7-.64 3.81-1.68L41 19.5a8.76 8.76 0 01-5.87 2.53zM132.3 6.79a.35.35 0 00-.2.06c-4.6.09-8.06 3.4-8.06 7.76 0 4.39 3.4 7.7 7.98 7.83.07.09.15.15.28.15 4.78 0 8.38-3.42 8.38-7.95 0-4.47-3.6-7.85-8.38-7.85zm0 15.17a.25.25 0 00-.17.07c-4.36-.09-7.63-3.25-7.63-7.42 0-4.1 3.23-7.2 7.54-7.32.07.09.16.15.27.15 4.4 0 7.73 3.1 7.73 7.22-.02 4.16-3.33 7.3-7.73 7.3z"/><path fill="#fff" d="M132.35 9.9a.4.4 0 00-.17.05 4.58 4.58 0 00-4.37 4.7 4.65 4.65 0 004.54 4.76c.06 0 .1-.02.17-.04 2.42-.09 4.28-2.16 4.28-4.76-.03-2.63-1.97-4.7-4.45-4.7zm-3.9 4.78c0-2.29 1.7-4.08 3.88-4.08a.4.4 0 00.15-.04c2.05.09 3.66 1.83 3.66 4.08 0 2.3-1.68 4.12-3.8 4.12a.4.4 0 00-.14.04 4.07 4.07 0 01-3.75-4.12zM80.9 22.2c-.22 0-.4-.17-.4-.37V9.82H85V7.2c0-.22.17-.37.39-.37.21 0 .39.17.39.37v3.38h-4.5v11.25c0 .2-.17.37-.39.37zM106.67 15.12h3.07c1.02 0 1.8-.33 2.27-.92a2.7 2.7 0 00.63-1.88c0-1.67-1.07-2.65-2.92-2.65h-3.19v5.38h.11v.07h.03zm5.36-2.8c0 1.73-1.24 2.08-2.27 2.08h-2.55v-4.02h2.55c.7 0 1.48.16 1.96.75.2.3.3.72.3 1.2z"/><path fill="#fff" d="M116.74 22.27l-.13-.2c.06-.1.08-.24 0-.35l-2.92-4.58c.5-.3.93-.67 1.28-1.1a5.71 5.71 0 001.27-3.82c0-3.5-2.38-5.52-6.5-5.52h-6.65a.34.34 0 00-.33.33c0 .08.05.17.11.24v15.02h4.2v-.15c.08-.07.12-.16.12-.24v-3.82h2.48l2.1 3.95c.02.04.04.06.08.08l.07.14h4.82v.02zM103.3 7.4h6.43c2.22 0 3.88.59 4.88 1.72.66.78.98 1.8.98 3.07 0 2.12-.87 3.67-2.52 4.5l-.33.15 3.18 5h-3.58c0-.05-.02-.07-.04-.12l-2.3-4.36h-.32c-.15 0-.3.13-.32.28h-2.25a.33.33 0 00-.32-.28.33.33 0 00-.33.33v4.14h-3.25V7.4h.09zM55.08 18.89c-.07-.05-.13-.09-.22-.09s-.15.02-.2.07H47.1V16.3h6.52c.06.1.15.14.26.14.18 0 .33-.16.33-.33v-2.97a.35.35 0 00-.11-.24.35.35 0 00-.2-.06c-.06 0-.15.02-.2.06h-6.56v-2.53h7.24c.05.14.15.24.3.24.18 0 .33-.15.33-.32V7.3a.35.35 0 00-.1-.24v-.09H42.83v15.3h11.84c.06.1.15.14.26.14.17 0 .32-.15.32-.33v-2.96c-.06-.11-.1-.2-.17-.24zM43.2 7.39h11.12v2.56h-7.35a.35.35 0 00-.2-.07c-.06 0-.15.02-.2.07a.35.35 0 00-.1.24v2.94c0 .18.15.33.32.33.11 0 .2-.07.27-.13h6.52v2.55H47a.35.35 0 00-.2-.07c-.06 0-.15.03-.19.07a.35.35 0 00-.1.24v2.99c0 .17.14.32.32.32.1 0 .2-.06.26-.13h7.5v2.55H43.26V7.4h-.06zM145.28 21.57l-1.57-1.29-1.44 1.2-.13-.15L143.7 20l1.7 1.4-.13.17z"/><path fill="#fff" d="M142.22 21.8c-.1 0-.23-.03-.3-.14a.4.4 0 01-.09-.3c0-.12.07-.23.16-.3a.4.4 0 01.3-.08c.11 0 .22.07.28.15.16.18.14.44-.04.57-.13.07-.22.1-.3.1zM145.32 21.77a.25.25 0 01-.17-.07c-.13-.1-.13-.28-.05-.41.05-.07.11-.1.2-.11.06 0 .15.02.22.06.06.05.08.11.1.2 0 .09-.02.15-.06.22a.35.35 0 01-.24.1zm-.04-.24c.02.02.09.02.1 0 .03-.03.03-.05.03-.05 0-.02-.02-.04-.02-.04-.02-.02-.05-.02-.05-.02-.02 0-.04.02-.04.02-.04.02-.04.06-.02.09zM154.5 20.15V9.34l1.26-2.12-.13-.06-1.24 2.05-2.18-2.07-.1.1 2.22 2.12v10.8a.38.38 0 00-.35.36s0 0 0 .02h-.94l-3.69-5.49 2.7 2.03c0 .06 0 .13.07.15.07.04.18.04.22-.02.04-.07.04-.18-.02-.22-.04-.04-.1-.04-.17-.02l-3.01-2.31-3.62-5.37-.02-.02h-1.55a.25.25 0 00-.24-.06l-1.4-1.73c.05-.08.05-.17-.02-.24-.06-.08-.22-.1-.3-.02-.1.07-.11.22-.03.3.07.07.16.1.24.07l1.4 1.73a.2.2 0 00.02.24c.02.02.02.02.04.02v2.11c-.06 0-.1.05-.13.11-.02.07 0 .13.03.18l-1.44 3.64a.25.25 0 00-.29.17c-.06.13.02.3.16.35.13.07.3-.02.34-.15.05-.11 0-.24-.08-.3l1.4-3.58v8.06h.14v-8.24l.03-.02c.02-.04 0-.1-.03-.15V9.62c.05 0 .1-.02.14-.04.04-.05.08-.11.08-.18h1.44l3.47 5.15-.09 2.1c-.1.01-.2.12-.22.25 0 .16.11.29.26.29.16 0 .29-.11.29-.26 0-.14-.07-.24-.2-.27l.09-1.9 3.95 5.87.02.02h1.02l-.85.6a.63.63 0 00-.43-.2.59.59 0 00-.6.58c0 .33.27.6.6.6.32 0 .59-.27.59-.6a.58.58 0 00-.07-.26l.87-.59c.07.07.15.11.26.11.2 0 .37-.15.37-.37a.46.46 0 00-.28-.37zM69.82 20.15V9.34l1.26-2.12-.13-.06-1.24 2.05-2.18-2.07-.11.1 2.22 2.12v10.8a.38.38 0 00-.34.36s0 0 0 .02h-.94l-3.7-5.49 2.7 2.03c0 .06 0 .13.06.15.07.04.17.04.22-.02.04-.07.04-.18-.02-.22-.05-.04-.11-.04-.18-.02l-3.03-2.29-3.57-5.39-.03-.02h-1.54a.25.25 0 00-.24-.06l-1.4-1.73a.2.2 0 00-.02-.24c-.07-.08-.22-.1-.3-.02-.1.07-.12.22-.03.3.07.07.15.1.24.07l1.4 1.73c-.05.08-.05.17.02.24.02.02.02.02.04.02v2.11c-.06 0-.1.05-.13.11-.02.07 0 .13.02.18l-1.44 3.64a.26.26 0 00-.28.17c-.06.13.02.3.15.35.13.07.3-.02.35-.15.05-.11 0-.24-.08-.3l1.4-3.58v8l-1.32 1.11c-.1-.07-.24-.07-.32.02-.11.09-.14.26-.03.4.1.1.27.13.4.02a.3.3 0 00.06-.33l1.27-1.07 1.48 1.22c-.02.07 0 .13.04.15.07.07.18.05.24-.02.07-.06.05-.17-.02-.24-.04-.04-.1-.04-.17-.02l-1.49-1.22v-8.2l.03-.02c.02-.04 0-.1-.03-.15V9.62c.05 0 .1-.02.13-.04.05-.05.1-.11.1-.18h1.43l3.47 5.15-.09 2.1c-.1.01-.2.12-.22.25 0 .16.11.29.26.29.16 0 .29-.11.29-.26 0-.14-.07-.24-.2-.27l.09-1.9 3.94 5.87.03.02h1.02l-.85.6a.63.63 0 00-.44-.2.59.59 0 00-.58.58c0 .33.26.6.58.6a.59.59 0 00.53-.86l.87-.59c.07.07.15.11.26.11.2 0 .37-.15.37-.37-.04-.17-.13-.3-.28-.37zM83.47 7.05l-2.14 2.42-1.96-1.61a.47.47 0 00.09-.27c0-.24-.2-.43-.44-.43s-.44.2-.44.43c0 .03 0 .05 0 .07L73.22 9.9c-.09-.13-.24-.17-.4-.1-.17.06-.23.26-.17.43.07.18.26.24.44.18a.32.32 0 00.2-.35l5.34-2.25c.06.11.17.2.3.22v5.56l-1.76-3.4-.13.06 1.9 3.64v3.3c-.07-.03-.12-.03-.18-.03-.4 0-.72.33-.72.72 0 .31.2.57.48.68l-1.07 2.5-.11.1h.07l-.22.47a.24.24 0 00-.22.14c-.04.1 0 .24.1.28.12.04.25 0 .3-.11.04-.09.01-.17-.05-.24l.22-.52 3.31.48.02-.16-3.2-.45L81 18.43l-1.57-.7a.7.7 0 00-.37-.48V8.03c.07-.02.13-.04.18-.07l2.05 1.7c-.03.1 0 .18.06.24.09.1.24.07.3-.02.1-.08.07-.24-.01-.3a.17.17 0 00-.22-.02L83.4 7.3l1.35 2.68.13-.06-1.41-2.88zM77.7 20.87l.98-2.27c.02 0 .07 0 .09 0 .4 0 .7-.3.72-.7l1.26.57-3.05 2.4zM123 9.4a.2.2 0 00-.25-.02l-2.04-1.7a.46.46 0 00.08-.26c0-.24-.2-.44-.43-.44-.24 0-.44.2-.44.44 0 .22.15.4.37.44v5.55l-1.79-3.37-.13.06 1.9 3.64v3.3c-.06-.03-.1-.03-.17-.03-.4 0-.72.33-.72.72 0 .3.2.57.48.68l-1.07 2.5-.11.1h.06l-.21.47a.24.24 0 00-.22.13c-.05.11 0 .24.1.29.12.04.25 0 .29-.11.04-.09.02-.18-.04-.24l.22-.53 3.3.48.03-.15-3.2-.46 3.33-2.61-1.57-.7a.7.7 0 00-.37-.48V7.88c.07-.02.13-.05.17-.07l2.06 1.7c-.03.09 0 .18.06.24.09.09.24.07.3-.02.11-.1.11-.24 0-.33zm-3.97 11.32l.98-2.27c.02 0 .06 0 .09 0 .39 0 .7-.3.72-.7l1.26.57-3.05 2.4zM100.47 13.9l-.17-.1-1.88 3.39c.11-.42.16-.88.16-1.35v-5.56a.35.35 0 00.26-.35c0-.05 0-.07-.02-.11l1.5-2.62-.17-.09-1.46 2.53c-.07-.04-.14-.08-.22-.08a.28.28 0 00-.22.08l-1.46-2.53-.18.1 1.5 2.6c0 .05-.01.07-.01.12 0 .17.1.3.26.35v5.56c0 .65-.11 1.24-.3 1.78h-.03c-.24 0-.43.2-.43.44 0 .1.04.22.1.28-.8 1.31-2.3 2.07-4.31 2.07-2.36 0-4.04-1.02-4.71-2.74l1.57-.94c.08.09.22.15.37.15.26 0 .48-.22.48-.48a.48.48 0 00-.48-.48c-.02 0-.05 0-.07 0L88.37 9.6l1.57-2c.09.02.16 0 .22-.07.07-.09.07-.24-.04-.3-.09-.07-.24-.07-.3.04-.05.06-.07.15-.03.21l-1.53 1.95-1.17-1.8a.3.3 0 00.02-.32.28.28 0 10-.48.3c.06.11.2.16.3.14l1.25 1.87v6.24a5 5 0 00.3 1.76l-.8 1.35a.38.38 0 00-.42.16c-.1.17-.04.39.13.5.18.1.4.04.5-.13a.36.36 0 00-.04-.44l.74-1.22c.74 1.72 2.46 2.77 4.82 2.77l2.75.78c0 .03 0 .05 0 .07 0 .52.43.96.96.96.52 0 .95-.44.95-.96a.97.97 0 00-.95-.96c-.44 0-.81.3-.92.7l-2.16-.63c1.79-.13 3.14-.9 3.88-2.12.05.02.09.02.15.02.24 0 .44-.2.44-.43a.46.46 0 00-.15-.33l2.11-3.82zM88.4 15.83v-5.7l2.01 5.83a.47.47 0 00-.24.41c0 .07.02.1.02.17l-1.55.94a5.63 5.63 0 01-.24-1.65zM39.67 18.95c.04-.1.04-.22-.05-.3a.24.24 0 00-.28-.07l-.22-1.2-.15.03.24 1.28a.27.27 0 00-.02.28 7.13 7.13 0 01-4.5 1.81c-.3 0-.63-.02-.91-.06l-.09-.09v-1.8l-2.29 1v-4.06l-2.6-1.24c0-.2-.12-.35-.3-.37a5.84 5.84 0 013.95-5.04c.09.13.22.22.37.22.24 0 .46-.2.46-.46a6.77 6.77 0 016.21 1.81l-.78 1.16.13.08.8-1.2 1.03-.93c.1.06.24.06.33-.03.1-.1.1-.28.02-.39a.3.3 0 00-.4-.02.26.26 0 00-.04.33l-.98.9a6.93 6.93 0 00-2.16-1.45l.61-.8c.09.06.18.1.29.1.24 0 .45-.2.45-.45 0-.27-.2-.46-.45-.46a.46.46 0 00-.4.7l-.59.78-3.48-1.92-.88 1.4a.41.41 0 00-.17-.05c-.24 0-.46.2-.46.46 0 .05 0 .07.02.11a5.98 5.98 0 00-4.03 5.17.4.4 0 00-.3.37c0 .09.02.17.08.24l-.9 1 .12.09.9-1c.01.02.06.02.1.04A6.01 6.01 0 0031.27 20v.06l.07-.02c.7.42 1.5.7 2.37.81l1.33 1.29c-.02.06 0 .13.05.17.06.07.17.07.24 0a.17.17 0 000-.24c-.05-.04-.11-.04-.18-.04l-1.2-1.16c.24.02.5.05.77.05 1.57 0 3.31-.7 4.6-1.84.08.05.17.05.26 0l1.7.5.04-.13-1.65-.5zM33.93 7.27l3.1 1.7a7.13 7.13 0 00-3.77-.24.32.32 0 00-.14-.2l.81-1.26zM31.27 19.8a5.91 5.91 0 01-2.77-4.9c.13-.02.24-.11.3-.22l2.5 1.18v3.94h-.03zm2.27.88a6.55 6.55 0 01-2.05-.72l2.05-.92v1.64zM54.62 18.9a.27.27 0 00-.37.05c-.06.11-.06.24 0 .33l-.96 1.24h-2.61a.45.45 0 00-.46-.39c-.18 0-.33.1-.42.26l-2.6-1.35-.06.13 2.62 1.35h-5.67a.2.2 0 00-.2-.15c-.04 0-.08.02-.13.04l.61-1.41c.03.04.07.06.11.06.07 0 .13-.02.16-.09l1.57.14c.02.1.1.21.24.21.15.03.28-.1.28-.24a.25.25 0 00-.24-.28c-.13 0-.24.07-.28.17l-1.57-.13c-.03-.06-.07-.08-.13-.1-.05 0-.07 0-.11.02V14.9s0 0 .02 0c.06 0 .1-.05.15-.09h5.15c.08.1.2.15.35.15.13 0 .26-.06.34-.15h3.03c.03.09.11.15.2.15.13 0 .22-.08.22-.22 0-.13-.09-.21-.22-.21a.2.2 0 00-.2.15H50.5c.02-.04.02-.09.02-.15 0-.02 0-.07 0-.09l2.77-1.03c.09.14.24.18.4.14.17-.07.26-.24.2-.42-.07-.17-.25-.26-.42-.2a.31.31 0 00-.22.35l-2.77 1.03c-.09-.13-.22-.24-.4-.24-.15 0-.3.09-.39.22l-2.92-1.22-2.18 1.59c-.02-.05-.08-.09-.13-.09 0 0 0 0-.02 0V12.4c.17.02.33-.09.4-.24.04-.1.01-.2-.03-.28l.68-1.77c.08.09.21.11.32.07.13-.07.2-.24.13-.37-.02-.03-.04-.07-.06-.1l7.15-1.13.04.07c.03.02.03.04.05.07l1.2 1.5.1-.09-1.04-1.3c.17-.03.33-.16.33-.35 0-.11-.05-.2-.11-.27l1.09-.96-.09-.1-1.13 1c-.03 0-.07-.02-.1-.02-.14 0-.27.1-.32.24h-8.04l-.68-1.33v4.66a.39.39 0 00-.2.22c-.06.18 0 .37.16.46l-1.18 3.25c-.1 0-.24.06-.28.17-.05.13.02.3.15.35.13.04.3-.02.35-.15.04-.11 0-.24-.11-.3l1.07-2.95v1.98c0 .02 0 .02 0 .05 0 .02 0 .02 0 .04v4.12l-1.16 2.64a.26.26 0 00-.28.15c-.07.13 0 .3.13.35.13.07.3 0 .35-.13a.28.28 0 00-.09-.33l.44-.98c.02.11.1.2.22.2a.2.2 0 00.2-.15h5.66c0 .02.02.06.02.08l-1.24 1.25.1.1 1.2-1.22c.1.1.2.16.36.16.21 0 .41-.16.43-.37h2.68l1-1.31c.12.04.25.02.31-.09.15-.1.13-.26 0-.37zm-7.85-5.66l2.86 1.18c0 .04-.02.06-.02.1 0 .05 0 .12.02.16H44.8l1.96-1.44zm5.89-4.73l-7.04 1.11-.57-1.11h7.61zm-8.22-.9l1.05 2.08-.02.06c-.03.05-.05.09-.07.15l-.7 1.84c-.02-.03-.06-.05-.1-.07-.05-.02-.12-.02-.16-.02V7.62zM112.36 15.99c.06-.02 1.06-.5 1.59-2.55.08.02.15-.02.22-.09a.2.2 0 000-.22l1.1-1.68c.16.05.33 0 .42-.13.11-.17.07-.39-.1-.5a.36.36 0 00-.5.11.4.4 0 00.01.44l-1.07 1.59c.03-.13.05-.24.07-.37.41-2.86-2.11-4.17-2.14-4.17h-.54l1.3-.28-.04-.2-1.3.29a.52.52 0 00-.5-.35c-.31 0-.55.24-.55.54h-5.47c-.05-.2-.2-.35-.38-.37v-.67h-.2v.67a.5.5 0 00-.38.48c0 .24.17.44.39.48v5.56c-.05.02-.07.02-.11.04l-1.07-1.2-.15.14 1.07 1.22a.46.46 0 00-.07.26c0 .15.09.3.2.4l-1.03 5.7c-.04 0-.08-.02-.13-.02-.39 0-.72.33-.72.72 0 .4.33.72.72.72.4 0 .72-.33.72-.72a.76.76 0 00-.41-.65l.32-1.86 2.8 2.58.13-.16-2.88-2.63.65-3.62c.05 0 .07.02.11.02.07 0 .13-.02.2-.05l1.28 1.47a.81.81 0 00-.15.43c0 .4.33.72.72.72.4 0 .72-.33.72-.72 0-.1-.02-.2-.06-.28l.58-1h4.63v-.1zm-5.26.83a.73.73 0 00-.54-.27c-.16 0-.3.07-.44.16l-1.27-1.44c.1-.09.14-.2.14-.33 0-.26-.22-.48-.46-.48V8.95c.2-.05.35-.2.37-.38h5.52c.08.2.26.33.5.33.22 0 .41-.13.5-.33h.52c.24.14 2.4 1.38 2.03 3.97-.02.2-.07.37-.11.55-.02.02-.02.02-.04.04a.21.21 0 00-.02.2c-.46 1.9-1.36 2.42-1.49 2.5h-4.4l.6-1.02-.17-.09-1.24 2.1z"/><path fill="#fff" d="M115.45 21.37c-.06 0-.13.02-.2.05l-1.56-.98-2.4-4.06a.2.2 0 000-.22c-.07-.1-.2-.13-.3-.09-.12.07-.14.2-.1.31.05.07.14.1.2.1l2.47 4.2-.83.91a.3.3 0 00-.33.07c-.11.1-.11.3.02.41.11.11.3.11.41-.02.1-.09.1-.22.05-.33l.91-1 1.33.83a.36.36 0 00-.06.2c0 .21.17.39.4.39a.4.4 0 00.38-.4c0-.21-.2-.37-.39-.37zm.13.24l-.08-.04c.04 0 .06.02.08.04zM139.91 17.27l-1.48-2.37c-.02-2.7-1.3-4-1.61-4.25l.96-.9c.1.07.24.07.32-.02.11-.1.11-.28.03-.4a.3.3 0 00-.4-.01.27.27 0 00-.04.32l-.98.9a6.92 6.92 0 00-2.16-1.44l.61-.8c.09.06.18.1.28.1.25 0 .46-.2.46-.46s-.2-.46-.46-.46-.45.2-.45.46c0 .09.02.16.06.24l-.59.79-3.49-1.92-.87 1.4a.41.41 0 00-.17-.05c-.24 0-.46.2-.46.46 0 .04 0 .06.02.1a5.98 5.98 0 00-4.03 5.17.4.4 0 00-.3.38c0 .08.02.17.08.23l-.9 1 .12.1.89-1c.02.01.07.01.1.04a6.1 6.1 0 005.37 5.95l1.33 1.28c-.02.07 0 .14.05.18.06.06.17.06.24 0a.17.17 0 000-.24c-.05-.04-.11-.04-.18-.04l-1.2-1.16a7.18 7.18 0 004.77-1.33l-1.37 2.29.13.06 1.4-2.3c.06-.05.28-.2.57-.46.06 0 .15-.03.2-.07a.28.28 0 00.08-.22 5.59 5.59 0 001.63-3.64l1.38 2.18.06-.09zm-8.9-10l3.1 1.7a7.13 7.13 0 00-3.77-.24.32.32 0 00-.13-.2l.8-1.26zm-2.65 12.36c-.05.02-.09.06-.09.1a5.92 5.92 0 01-2.68-4.85c.13-.03.24-.11.3-.22l2.5 1.18v3.79h-.03zm9.37-2.36l-4.2 1.55.04.13 4.06-1.48c-.29.5-.6.9-.9 1.22 0 0 0-.02-.02-.02a.3.3 0 00-.4-.02.27.27 0 00-.04.32 7.13 7.13 0 01-4.49 1.81c-.3 0-.63-.02-.91-.06l-.1-.09v-1.4a.18.18 0 00.1-.15.15.15 0 00-.16-.15.15.15 0 00-.15.15c0 .07.04.11.09.16v1.44a6.3 6.3 0 01-2.12-.77c.05-.02.07-.06.07-.13 0-.06-.04-.1-.09-.15v-3.86l-2.6-1.24c0-.2-.12-.35-.3-.37a5.83 5.83 0 013.95-5.04c.09.13.22.22.37.22.24 0 .46-.2.46-.46a6.77 6.77 0 016.21 1.81l-.5.74c-.04 0-.09-.02-.13-.02a.6.6 0 00-.61.61c0 .35.26.61.6.61a.6.6 0 00.62-.61.6.6 0 00-.35-.55l.48-.7c.28.25 1.55 1.49 1.57 4.17.02.9-.22 1.68-.55 2.33zm-1.72-5.25c0 .02-.06.02-.06 0s.02-.02.02-.02.04 0 .04.02zM20.72 11.32l-.18-.13c.1.11.18.24.27.37l.63-.48c-.05-.09-.07-.17-.11-.26 0 .07-.02.13-.04.15-.05.02-.1-.02-.11-.1-.03-.1 0-.18.04-.22.02-.03.04-.03.07 0-.03-.07-.05-.13-.1-.18l-.12.55-.35.3zM15.46 15.57c0-.08 0-.17 0-.26s0-.17 0-.24c0 .02-.02.07-.04.07s-.02 0-.04 0l-.07.35-.98.72c0 .06 0 .13 0 .2l1.13-.84zM17.16 10.34l-.02.09c0 .02.02.04.02.06 0 .03 0 .05 0 .07.16-.13.33-.22.5-.3l-.17-.16-.33.24zM21.68 11.89c-.02-.11-.07-.2-.09-.3l-.63.47-.22.48.02.02.92-.67zM20.85 11.67c.04.07.09.15.13.24l.59-.44c-.02-.08-.07-.17-.09-.26l-.63.46zM21.72 18.52c0 .02.02.02.02.04s0 .04 0 .07c.1-.4.18-.81.24-1.23l-.26 1.12zM15.73 20.1l-.53.4c.05.09.09.2.13.28l.48-.34.16-.66.34-.26.2.13a2.57 2.57 0 01-.24-.41l-1.22.89c.04.09.07.17.1.26l.55-.4c0-.06.03-.12.05-.14.04-.03.08.02.1.1.03.1 0 .18-.04.22-.04 0-.06-.02-.08-.06zM15.36 18.43l-.68.5c.02.11.04.22.09.33l1.13-.83c-.04-.11-.07-.22-.1-.35l-.14.09-.22-.2-.83.61c.03.09.05.15.05.24l.7-.5c0-.06.02-.1.04-.13.04-.02.09.02.1.1.03.1 0 .18-.04.23-.04-.03-.08-.05-.1-.09z"/><path fill="#fff" d="M15.33 15.1c0-.03-.02-.03-.02-.05-.02-.09 0-.17.05-.22.04-.02.08.02.1.09 0-.13.03-.26.03-.4 0-.06 0-.12.02-.17.09-.78.26-1.5.5-2.11l.26-1.22.57-.42.15-.65.55-.42.58.55c.07 0 .13-.02.2-.02l-.8-.74-.75.54-.13.61-.5.37-.76 3.36-1.05.76c0 .09 0 .2-.02.29l.8-.6c0-.06.03-.12.05-.14.04-.03.09.02.1.1.03.1 0 .18-.04.22-.02.02-.06 0-.08-.04l-.83.6c0 .05 0 .1 0 .14 0 .04 0 .09 0 .15l.74-.54c0-.05.02-.11.04-.13.05-.03.1.02.11.1.02.1 0 .18-.04.22-.04.03-.07 0-.09-.06l-.74.54c0 .1 0 .18 0 .26l.94-.7.06-.28zM14.81 16.88l-.41.3c0 .07.02.12.02.18l.59-.43.2-.83.25-.2c0-.06 0-.13 0-.2l-1.1.83c0 .07 0 .13 0 .2l.54-.42c0-.06.02-.13.04-.15.04-.02.09.02.11.11.02.09 0 .18-.04.22-.03.02-.07 0-.1-.04l-.56.41c0 .07 0 .13.02.2l.42-.3c0-.07.02-.14.04-.16.05-.02.09.02.11.1.02.1 0 .18-.04.23-.02.02-.07 0-.09-.05z"/><path fill="#fff" d="M17.54 9.69l-.5.37-.16.65-.57.42-.17.8c.07-.15.13-.28.22-.41l.04-.22.2-.13c.13-.2.28-.35.43-.48 0-.02-.02-.04-.02-.07-.02-.08 0-.17.05-.21h.02l.02-.13.4-.29.25.26c.1-.02.16-.04.24-.06l-.45-.5zM17.6 17.54c.07.1.33.43.72.48.52.06 1.13-.42 1.29-1.18h.37l.02.04 1.33-.98.06-.24c0-.02-.02-.04-.02-.06-.02-.1 0-.18.05-.22.04-.02.08.02.1.1.03.1 0 .18-.04.22h-.02l-.07.3-1.33.97.1.17c.01.02.04.05.04.09l.06.13.02-.09c-.02-.02-.02-.04-.02-.08-.02-.09 0-.18.04-.22.05-.02.1.02.11.1.03.1 0 .18-.04.23l-.04.17.06.15.11-.52c-.02-.02-.02-.04-.02-.07-.02-.08 0-.17.04-.21.05-.03.09.02.11.1.02.1 0 .18-.04.22h-.02l-.13.6.06.14.22-.93c-.02-.02-.02-.05-.02-.09-.02-.09 0-.17.04-.22.04-.02.09.02.11.11.02.09 0 .18-.04.22 0 0 0 0-.03 0l-.21 1 .08.18.3-1.38c-.01-.02-.01-.04-.01-.06-.03-.09 0-.18.04-.22.04-.02.09.02.1.1.03.1 0 .18-.03.23 0 0 0 0-.03 0l-.32 1.44.08.2.4-1.82c-.03-.02-.03-.04-.05-.09-.02-.08 0-.17.05-.21.04-.03.08.02.1.1.03.1 0 .18-.04.22l-.41 1.9.08.17s-.06.16-.2.35l-.08.46-.57.4s0 0-.02.02c-.2.2-.39.34-.54.45 0 .05-.02.1-.05.1-.02.01-.04 0-.06-.03-.04.02-.07.04-.11.04l.22.22.35-.24.02-.06c0-.03-.02-.05-.02-.07-.03-.09 0-.17.04-.22.04-.02.09.02.1.11.03.09 0 .18-.03.22h-.03l-.02.13-.39.28-.33-.3c-.08.04-.15.06-.24.09l.5.47.5-.37.16-.65.57-.41.7-3.2c0-.05 0-.07 0-.12-.03-.09 0-.17.04-.22.04-.02.08.03.1.11.03.09 0 .18-.04.22l-.72 3.3-.56.4-.16.66-.54.42-.63-.6c-.05 0-.11.03-.18.03l.83.78.74-.54.13-.61.5-.37.77-3.36.48-.35c0-.09.02-.2.02-.28l-.24.17c0 .07-.02.13-.05.15-.04.03-.08-.02-.1-.1-.03-.1 0-.18.04-.22.02-.02.06 0 .09.04l.26-.2c0-.06 0-.15 0-.21 0-.02 0-.05 0-.07l-.18.13c0 .05-.02.11-.04.13-.04.03-.09-.02-.1-.1-.03-.1 0-.18.03-.22.05-.03.07 0 .1.06l.19-.13c0-.09 0-.17 0-.26l-.37.28-.07.29c0 .02.02.02.02.04.03.09 0 .17-.04.22-.04.02-.09-.02-.1-.11-.03-.09 0-.18.03-.22.03 0 .03 0 .05 0l.09-.33.41-.3c0-.07 0-.13 0-.22l-2.29 1.7c0 .07-.02.11-.04.13-.05.02-.1-.02-.11-.1-.02-.1 0-.18.04-.23.04-.02.07 0 .09.05l2.31-1.7c0-.05 0-.11 0-.15 0 .04-.02.08-.04.1-.05.03-.1-.02-.11-.1-.03-.1 0-.18.04-.22.02-.02.07 0 .09.04 0-.06 0-.13-.02-.2 0-.02-.03-.04-.03-.04 0-.04 0-.09 0-.1 0-.05 0-.1-.02-.14l-.04.02-.2.83-.48.35c0 .07-.02.1-.04.13-.04.02-.09-.02-.11-.1-.02-.1 0-.18.04-.23.05-.02.07 0 .1.07l.43-.33.2-.83.06-.04c0-.07-.02-.13-.02-.22l-.09.07-.2.8-.28.24c0 .07-.02.11-.04.13-.05.03-.1-.02-.11-.1-.02-.1 0-.18.04-.22.04-.02.07 0 .09.04l.24-.17.2-.81.1-.09c-.02-.08-.02-.17-.04-.26l-.13.09-.2.85-.32.24-.18.76s0 .02 0 .05c.02.08 0 .17-.04.21-.05.03-.09-.02-.11-.1-.02-.1 0-.18.04-.22.02 0 .02-.03.05 0l.17-.79.33-.24.2-.85.15-.1c-.03-.1-.03-.18-.05-.25l-.32.24-.22-.2-.16.12c0 .06-.02.13-.04.15-.04.02-.09-.02-.1-.11-.03-.09 0-.18.04-.22.02-.02.06 0 .08.04l.18-.13.22.2.3-.22c-.02-.09-.04-.15-.04-.24l-.16.11c0 .07-.02.11-.04.13-.04.02-.09-.02-.1-.1-.03-.1 0-.18.04-.23.04-.02.06 0 .08.05l.13-.11c-.02-.11-.04-.22-.08-.33l-.94.7-.07-.07-.08.2.43.42c0-.03.02-.03.02-.03.05-.02.1.03.11.11.02.09 0 .18-.04.22-.04.02-.09-.02-.11-.1 0-.03 0-.05 0-.07l-.44-.42-.5 1.14h-.37c-.17-.88-.74-1.42-1.26-1.4-.09 0-.33.02-.61.28-.02.03-.05.05-.07.07-.02.04-.13.15-.24.35-.06.1-.13.26-.2.46-.02.06-.04.1-.04.17 0 .02-.02.09-.04.15-.02.07-.02.11-.05.18 0 .04-.02.1-.02.15-.06.41-.06.85-.06.85 0 .5.06.96.1 1.2 0 .04.03.09.03.1.02.07.02.12.02.12.02.04.02.08.02.1.02.05.02.07.05.12.02.04.04.08.04.1.02.05.02.07.04.11.02.05.02.07.05.11.02.05.04.09.04.09.02.02.04.06.04.09.05.04.07.08.1.1z"/><path fill="#fff" d="M20.59 19.28c-.07.09-.13.2-.22.3l.17-.13.05-.17zM14.88 13.11c0-.07.02-.13.04-.15.04-.02.09.02.1.1.03.1 0 .18-.03.22-.03.03-.07 0-.1-.04l-.38.28c-.03.13-.05.27-.07.4l.57-.42.26-1.13c0-.02-.02-.02-.02-.05-.02-.08 0-.17.04-.21.04-.02.09.02.11.1.02.1 0 .18-.04.22-.03 0-.03 0-.05 0l-.26 1.18-.63.48c-.02.09-.02.2-.02.28l.78-.58.53-2.14c0-.02-.03-.04-.03-.07-.02-.08 0-.17.05-.21.04-.03.08.02.1.1.03.1 0 .18-.04.22h-.02l-.52 2.18-.85.61c0 .11-.03.24-.03.35l.99-.72.76-3.35.5-.38.13-.6.79-.57.87.83 1.24-.92 1.03.96c0-.02.02-.02.02-.02.04-.02.09.02.1.1.03.1 0 .18-.04.22-.04.03-.08-.02-.1-.1 0-.03 0-.05 0-.07l-1-.94-1.12.83c.06 0 .2-.02.33 0l.8-.61.79.74c0-.02.02-.02.02-.04.04-.02.09.02.1.1.03.1 0 .18-.03.23-.05.02-.1-.03-.11-.11 0-.03 0-.05 0-.07l-.77-.72-.65.48c.1.02.22.07.33.11l.32-.24.5.48.03-.02c.04-.02.08.02.1.1.03.1 0 .18-.04.23-.04.02-.09-.03-.1-.11 0-.03 0-.07 0-.1l-.49-.43-.22.16c.05.02.11.04.16.08l.04-.02.15.15c.05.05.11.07.16.11.04-.02.08.02.1.11 0 0 0 0 0 .02.07.07.14.13.2.2 0-.02.02-.04.02-.04.05-.03.1.02.11.1 0 .03 0 .05 0 .05l.3.2.31-.22.13-.55c-.04-.09-.08-.2-.13-.28 0 .02-.02.04-.04.06-.04.03-.09-.02-.11-.1a.23.23 0 01.02-.18c-.02-.04-.04-.09-.06-.13l-.05-.02c0 .06-.02.1-.04.13-.04.02-.09-.02-.1-.11-.03-.09 0-.18.03-.22.03 0 .03 0 .05 0-.02-.04-.05-.06-.07-.1l-.17.12-.57-.54-.02.02c-.04.02-.09-.02-.11-.1-.02-.1 0-.18.04-.23.05-.02.1.02.11.11 0 .02 0 .05 0 .07l.55.52.1-.06c-.01-.05-.04-.07-.06-.11-.04.02-.09-.03-.1-.11 0-.02 0-.05 0-.05-.1-.1-.2-.21-.31-.32 0 .04-.02.06-.05.08-.04.03-.08-.02-.1-.1 0-.05 0-.1 0-.11-.49-.42-1-.66-1.58-.68-1.76-.02-3.29 2.2-3.83 5.3l.35-.22zm6-2.55c0-.07.01-.13.04-.15.04-.03.08.02.1.1.03.1 0 .18-.04.22-.02.03-.06 0-.09-.04l-.28.2c0 .06-.02.13-.04.15-.05.02-.09-.02-.11-.11-.02-.09 0-.17.04-.22.02-.02.07 0 .09.04l.28-.2z"/><path fill="#fff" d="M21.7 18.78c-.04.02-.09-.02-.1-.11-.03-.09 0-.18.03-.22.03 0 .03-.02.05 0l.26-1.18.06-.04c.03-.09.03-.2.05-.28l-.22.15-.52 2.14c0 .02.02.04.02.06.02.09 0 .18-.04.22-.05.02-.1-.02-.11-.1-.03-.1 0-.18.04-.23h.02l.53-2.18.28-.2c.02-.1.02-.23.02-.34l-.41.3-.77 3.36-.5.37-.1.57-.8.56-.86-.82-1.25.91-1.02-.96c0 .02-.02.02-.02.02-.05.03-.1-.02-.11-.1-.02-.1 0-.18.04-.22.04-.02.09.02.11.1 0 .03 0 .05 0 .07l1 .94 1.18-.87c-.02 0-.07 0-.09 0-.02 0-.15 0-.24 0l-.9.65-.78-.74c0 .02-.02.02-.02.04-.04.03-.08-.02-.1-.1-.03-.1 0-.18.04-.22.04-.03.08.02.1.1 0 .03 0 .05 0 .07l.77.72.72-.52a2.28 2.28 0 01-.37-.09l-.35.26-.5-.48-.02.02c-.05.03-.1-.02-.11-.1-.03-.1 0-.18.04-.22.04-.03.09.02.1.1 0 .03 0 .07 0 .1l.49.43.22-.18a.65.65 0 01-.18-.08l-.04.02-.15-.13c-.07-.05-.11-.09-.16-.13-.04.02-.08-.02-.1-.11-.07-.07-.14-.13-.2-.2 0 .02-.02.05-.02.05-.05.02-.1-.03-.11-.11 0-.03 0-.05 0-.05l-.3-.2-.31.22-.16.66-.47.35c.04.1.1.2.15.28l.48-.35c0-.06.02-.15.04-.17.04-.02.09.02.11.1.02.1 0 .18-.04.22-.03.03-.07 0-.1-.02l-.45.33c.04.07.07.13.11.17l.55-.41c0-.07.02-.1.04-.13.04-.02.09.02.1.1.03.1 0 .18-.04.23-.04.02-.06 0-.08-.05l-.5.37c.04.07.06.11.1.16l.7-.5.57.54.02-.02c.04-.02.09.02.11.1.02.1 0 .18-.04.23-.05.02-.1-.03-.11-.11 0-.03 0-.05 0-.07l-.55-.52-.6.48c.04.04.06.08.1.13l.44-.33c0-.06.02-.1.04-.13.04-.02.09.02.1.1.03.1 0 .18-.03.23-.05.02-.07 0-.1-.05l-.38.29c.1.13.21.24.32.35l.48-.37c0-.07.02-.14.05-.16.04-.02.08.02.1.11.03.09 0 .18-.04.22-.02.02-.06 0-.09-.04l-.43.3c.48.44 1 .68 1.57.68 1.57.02 2.96-1.77 3.64-4.36v.02zm-5.56 1.5c0 .07-.02.13-.04.16-.05.02-.1-.03-.11-.11-.02-.1 0-.18.04-.22.02-.02.07 0 .09.04l.28-.2c0-.06.02-.13.05-.15.04-.02.08.02.1.11.03.09 0 .18-.04.22-.02.02-.06 0-.09-.04l-.28.2zM16.2 19.15c-.04-.09-.06-.15-.1-.24l-1.16.85c.02.09.07.17.09.26l1.18-.87zM16.03 18.8c-.04-.09-.06-.17-.1-.28l-1.14.83c.02.1.06.2.09.3l1.15-.85zM15.1 17.23l.19-.8.2-.16c0-.09 0-.15-.03-.24l-.21.18-.2.82-.61.46c0 .07.02.15.02.22l.63-.48z"/><path fill="#fff" d="M15.18 17.54l.2-.79.15-.1c0-.1-.02-.16-.02-.25l-.18.13-.2.81-.67.48c0 .06.02.15.04.22l.68-.5z"/><path fill="#fff" d="M15.44 17.82l.22.2.09-.07a9.41 9.41 0 01-.22-1.18l-.1.09-.2.78-.7.53c.02.1.04.2.04.28l.87-.63z"/><path fill="#fff" d="M21.18 8.7c-1.49-2.2-3.86-4.03-6.4-5.38.05-.24-.56-.74-1.45-1.2-.98-.5-1.92-.74-2.1-.54-.17.2.44.91 1.42 1.41.7.35 1.38.6 1.79.61 1.42.79 2.31 1.33 3.2 2.34.05.06.05.06.11.21.03.1-.06.27-.2.33-.36.2-.89.26-1.8-.41 0 0-1.11-.92-1-.79A23.2 23.2 0 008.87 1.9C8.6 1.5 7.83 1 6.61.55 4.63-.19 3.78-.05 3.56.22c-.2.31.8.99 2.25 1.53 1.17.44 2.26.65 2.74.57 3.27 1.35 5.54 2.77 7 4.4.26.24.05 1.31-.94 1.46-.45.07-.58.05-.8-.04a2.38 2.38 0 01-.24-.13L12.04 6.9c.4-.68-.26-1.73-1.57-2.45-1.44-.8-2.96-.93-3.7-.08-.62.7 0 1.87 1.28 2.57 1.33.74 2.88.92 3.64.41l1.49.98c.06.05.13.1.17.16.4.46.52 1.55-.59 2.4-.37.28-.63.54-1.83.34-.11-.02-.24-.04-.35-.08l-4.4-1.6c.56-1.08-.27-2.28-1.9-2.78C2.64 6.24.86 6.74.22 7.83-.4 8.93.33 10.28 2 10.8c1.42.46 2.99.17 3.8-.61l5.05 1.8c.07.03.11.05.15.07.9.55 2.05 1.46 2.05 2.55a2.8 2.8 0 01-1.17 2.42c-.22.16-.5.24-.77.24l-1.24-.02c-.2-1.37-1.68-2.48-3.5-2.44-1.95.04-3.28 1.2-3.24 2.7.05 1.5 1.5 2.73 3.45 2.69 1.8-.05 3.16-1.07 3.3-2.42l.93.02c.4 0 .76.13 1.09.32.57.35 1.11.96 1.15 1.9.05.83-.24 1.6-.74 2.1a1.8 1.8 0 01-.32.23l-5.1 2.4a3.81 3.81 0 00-3.34 0c-1.14.53-1.81 1.99-1.4 2.84.53 1.07 2.1 1.37 3.5.54a3.24 3.24 0 001.63-2.7l4.8-2.49c.15-.08.3-.13.47-.15.8-.1 1.68-.1 2.55.46.24.15.42.35.55.54.13.22.13.53 0 .74-.4.66-.46.68-1.07 1.3a3.1 3.1 0 00-2.55.3c-1.29.72-1.44 2.05-1.03 2.57.55.67 1.62.72 2.66.04 1.2-.76 1.57-2.13 1.36-2.53.28-.35.41-.45.8-.96.2-.26.46-.45.79-.54.17-.04.35-.09.52-.09.63 0 1.1.52 1.07 1.16 0 .04 0 .15-.04.26-.27.37-.66.85-1.4 1.33-.35.04-1.11.37-1.94.87-.92.57-1.2.87-1.07 1 .13.13 1.07-.28 1.62-.58a9.94 9.94 0 001.6-1.23 14.34 14.34 0 004.22-4.81A15.13 15.13 0 0023 15.9c.02-2.79-.24-4.84-1.83-7.2zm-8.53-6.38c.09.1.35.3.8.5.34.13.51.15.51.15l.22.2s-.42-.05-1.22-.44c-.74-.37-1.31-.76-1.31-.98 0-.2.65-.06 1.42.28.67.3 1.09.66 1.15.72 0 0 0 0 .02.03l.11.08-.32-.06s-.03-.05-.2-.16a3.18 3.18 0 00-.79-.41c-.39-.13-.5-.07-.39.09zM5.6.88c.08.1.43.3.98.46.4.1.59.08.59.08l.28.22S6.96 1.7 6 1.36c-.87-.3-1.57-.68-1.59-.94-.02-.26.72-.24 1.66.07a5.79 5.79 0 011.41.65l.14.09h-.38S7.2 1.18 7 1.07a3.02 3.02 0 00-.93-.34C5.59.6 5.44.7 5.59.88zm3.05 4.75c.09.26.48.7 1.24.87.55.13.87-.04.87-.04l.31.48s-.8.35-2.11-.17C7.75 6.3 6.9 5.52 7.05 4.8c.15-.72 1.3-.98 2.6-.56a3.9 3.9 0 011.78 1.2l.02.02.16.2-.6.12s-.02-.08-.26-.32c-.26-.26-.67-.5-1.26-.6-.68-.01-.98.4-.85.77zM3.19 9.45c.37.06.83-.02 1.2-.22l.72.78a3.4 3.4 0 01-2.14.35C1.51 10.12.57 9.16.75 8.1c.17-1.03 1.4-1.62 2.88-1.38.71.11 1.46.48 1.87.96l-.94.59a1.85 1.85 0 00-1.07-.65c-.65-.11-1.2.2-1.28.71-.11.53.33 1 .98 1.12zm3.44 8.96c.44.02.96-.15 1.36-.46l.89.87c-.63.5-1.57.79-2.4.74-1.68-.08-2.88-1.15-2.79-2.48.07-1.31 1.4-2.23 3.12-2.14.83.04 1.72.42 2.24.94l-1 .87a1.97 1.97 0 00-1.28-.68c-.75-.04-1.36.42-1.4 1.1-.02.65.52 1.2 1.26 1.24zm-1.35 9.46c-1.13.44-2.24.1-2.6-.8-.34-.9.25-1.9 1.4-2.34a2.74 2.74 0 011.77-.06l-.4.87a1.46 1.46 0 00-1.04-.07c-.5.2-.76.7-.59 1.14.18.43.7.63 1.2.43.28-.1.59-.4.74-.7l.85.3a2.6 2.6 0 01-1.33 1.23zm8.16.55c-.88.47-1.77.39-2.1-.2-.32-.59.07-1.4.96-1.9.44-.24.96-.35 1.38-.3l-.27.67a1.22 1.22 0 00-.82.11c-.4.22-.55.61-.4.9.18.3.6.37.99.15.21-.13.43-.37.54-.61l.7.1c-.18.4-.55.81-.98 1.08zm2.11-.05c-.35.24-.65.35-.9.35-.23 0-.1-.26.25-.5s.72-.35.72-.35l.06-.02-.04.1s0 0-.13.05c-.13.04-.26.11-.42.24-.17.13-.08.2.07.18.15-.05.33-.11.5-.24.18-.11.18-.18.18-.18l.2-.06c-.03.02-.14.21-.49.43zm7.2-12.3c0 .16-.05.18-.11.18-.11-.02-.22-.04-.33-.04-.04.26-.04.28.09.3.1.02.2.07.32.09-.04.35-.08.67-.13 1 0 .04-.06.09-.08.09-.1-.02-.18-.09-.29-.11-.02 0-.06.06-.1.09.02.06.02.13.06.15.09.06.17.1.26.17.02.03.07.11.07.13-.07.33-.16.64-.24.99-.11-.1-.22-.18-.3-.24-.12-.1-.12-.1-.16.17.09.1.2.2.3.3.05.05.1.1.05.2-.11.29-.2.57-.3.87-.1-.1-.18-.21-.27-.32-.09-.11-.13-.11-.17.1.1.16.21.33.32.5-.15.29-.28.57-.43.86-.09-.16-.16-.29-.24-.42-.07-.15-.13-.13-.18.07.09.2.18.37.29.6-.18.25-.33.47-.5.73-.1-.22-.18-.44-.27-.66-.04.05-.06.1-.1.16.06.24.13.45.21.72-.17.17-.35.32-.5.48-.02.02-.06-.03-.09-.07-.04-.15-.06-.3-.1-.46-.03-.04-.07-.06-.11-.1a.81.81 0 00-.05.19c.02.15.07.33.09.48.02.1.02.17-.04.22-.16.09-.3.17-.44.26-.07.04-.09 0-.1-.11-.03-.17-.05-.33-.07-.48 0-.04-.05-.09-.1-.1-.01.06-.06.12-.06.19 0 .17.05.35.05.52 0 .04-.05.15-.07.15-.15.05-.3.1-.44.13-.08.03-.1-.04-.1-.2 0-.19-.03-.36-.03-.56-.04 0-.08 0-.13 0 0 .22 0 .44 0 .63 0 .16-.02.2-.1.2-.14-.02-.29-.02-.42-.02-.09 0-.09-.07-.09-.2.02-.2.02-.41.02-.6-.08-.07-.13-.03-.15.14-.02.16-.02.33-.04.48 0 .05-.07.11-.09.11-.15-.04-.3-.1-.46-.17-.02-.02-.06-.13-.04-.18.02-.15.04-.28.07-.43.04-.2.02-.26-.11-.26-.05.2-.1.39-.13.59-.03.13-.05.17-.14.1-.13-.1-.26-.2-.39-.28-.09-.06-.09-.13-.04-.28.04-.13.09-.29.1-.44 0-.04-.01-.13-.01-.17-.05.02-.1.02-.11.06-.07.18-.13.37-.2.61-.17-.2-.35-.39-.52-.6.06-.2.13-.38.2-.55.04-.09.06-.18 0-.22-.03-.02-.1.02-.12.06-.08.16-.15.33-.24.53-.15-.26-.28-.5-.43-.77.1-.21.22-.39.33-.6a.65.65 0 01-.1-.18c-.08.15-.19.3-.28.44-.04.06-.06.13-.1.02-.11-.26-.22-.53-.33-.8.13-.18.24-.34.35-.49-.02-.2-.07-.24-.15-.13-.1.1-.2.22-.31.33-.09-.33-.17-.63-.24-.94 0-.02.02-.1.07-.15.1-.11.21-.2.3-.29 0-.21-.04-.26-.15-.17-.07.06-.15.1-.22.17-.07.05-.1.05-.1-.08-.05-.27-.07-.53-.14-.79-.02-.13 0-.17.07-.22.08-.04.17-.08.24-.13.04-.02.1-.06.06-.17-.02-.05-.06-.09-.1-.09-.1.02-.2.07-.3.09-.01 0-.06-.05-.08-.09-.02-.33-.04-.65-.06-1.02.1-.03.21-.05.32-.07.13-.02.13-.04.11-.3-.1 0-.24.02-.35.02-.06 0-.08-.02-.08-.15.02-.33.02-.66.04-.99.15 0 .28 0 .44.03 0-.1.02-.16.02-.24-.11-.03-.22-.07-.33-.1-.09-.01-.1-.06-.09-.2.05-.27.07-.53.11-.8.02-.13.05-.15.11-.1.09.04.18.08.26.1.02 0 .07-.06.11-.1-.02-.05-.04-.13-.06-.16-.11-.08-.22-.15-.35-.21.08-.33.15-.66.24-.96 0-.05.06-.07.08-.05.1.07.18.16.27.2.02.02.06-.02.1-.04-.02-.07 0-.18-.04-.2-.09-.1-.2-.22-.33-.35.11-.3.22-.59.33-.9a.07.07 0 01.09 0c.09.1.15.2.24.29.02.02.06-.02.1-.02 0-.07 0-.15-.01-.2-.07-.1-.14-.22-.22-.32-.07-.1-.07-.16 0-.27.1-.2.2-.39.3-.6.05-.1.09-.12.13 0 .07.15.16.28.24.4.13-.1.13-.12.05-.3-.07-.13-.13-.28-.2-.41 0 0 0-.02 0-.07.15-.22.3-.43.48-.7.09.22.18.44.24.64.13-.09.13-.11.07-.3-.05-.18-.11-.34-.16-.53.2-.2.37-.35.57-.55.07.24.13.48.17.74.05-.04.1-.06.14-.1-.05-.27-.1-.5-.16-.79.2-.1.37-.22.55-.3.02 0 .06.06.08.1.05.2.07.4.1.62.04-.03.08-.03.12-.05-.02-.26-.04-.52-.06-.83.2-.04.37-.1.56-.15.03 0 .05.09.07.13.02.18 0 .35.02.5 0 .07.05.11.07.16.02-.07.06-.11.06-.18.02-.17 0-.35 0-.5 0-.13.02-.17.09-.17.15.02.28.02.44.02.06 0 .08.06.08.2-.02.17-.02.34-.02.5 0 .04.04.13.07.15.02 0 .06-.07.06-.11.02-.18.05-.35.07-.53.02-.13.04-.17.1-.15.14.07.29.11.42.15.09.03.11.1.09.24-.02.18-.07.38-.09.6.04.02.09.04.13.06.05-.2.09-.4.13-.61.02-.13.07-.18.13-.13.13.1.26.22.4.3.06.05.08.13.04.24-.04.13-.07.26-.11.4-.07.17-.02.26.09.28.06-.22.15-.46.24-.72.15.2.3.37.45.57.03.02.03.13 0 .17-.06.17-.13.35-.21.55.04.04.06.1.1.15.11-.22.2-.42.31-.66.15.27.28.5.44.77-.11.2-.2.39-.3.59.01.06.04.1.08.2.09-.14.17-.25.24-.4.09-.15.13-.13.2.04.06.2.15.37.21.55.07.13.05.2-.02.28-.06.09-.15.18-.22.28a.3.3 0 00-.02.2c.02.11.07.09.11.04.11-.1.2-.21.33-.34.09.32.17.65.26 1-.11.1-.22.2-.33.28-.04.05-.1.11-.06.2.02.04.06.06.1.04.1-.04.18-.13.27-.17.02-.02.08.02.08.06.07.33.11.64.16.98-.16.1-.29.16-.42.24-.02.24 0 .27.11.22.05-.02.11-.04.15-.06.2-.07.2-.07.22.26.02.22.02.41.02.63 0 .15-.02.2-.1.2-.11.02-.22.04-.33.06 0 .09 0 .15 0 .24.13 0 .24.02.35 0 .06 0 .08.05.08.18.05.3.03.56.03.82z"/><path fill="#fff" d="M14.4 18.71c0-.21-.05-.26-.16-.17-.06.06-.15.1-.21.17-.07.05-.11.05-.14-.08-.04-.27-.06-.53-.1-.79-.03-.13 0-.17.06-.22.09-.04.15-.08.24-.13.04-.02.11-.06.07-.17-.03-.05-.07-.09-.11-.09-.09.02-.2.07-.29.09-.02 0-.06-.05-.08-.09-.03-.33-.05-.65-.07-1 .11-.02.22-.05.3-.07.14-.02.14-.04.12-.3-.11 0-.24.02-.35.02-.07 0-.1-.02-.1-.15.03-.33.03-.66.05-.99.16 0 .29 0 .44.03 0-.09 0-.16.02-.24-.1-.02-.22-.07-.33-.09-.08-.02-.1-.07-.08-.22.04-.26.06-.52.1-.78.03-.13.05-.16.11-.11.1.04.18.08.27.1.02 0 .06-.06.1-.1-.02-.05-.04-.13-.06-.15-.1-.1-.22-.16-.33-.22.09-.33.16-.64.24-.96 0-.05.07-.07.09-.05.09.07.17.16.26.2.02.02.07-.02.11-.04 0-.07 0-.18-.04-.2-.09-.1-.2-.22-.3-.35.1-.3.21-.59.32-.87a.07.07 0 01.09 0c.08.09.15.2.24.28.02.02.06-.02.1-.02 0-.06 0-.15-.02-.2-.06-.1-.13-.21-.2-.3-.06-.09-.06-.15 0-.26.12-.2.2-.4.31-.59.05-.09.09-.1.13 0 .07.15.16.28.22.41.13-.1.13-.13.04-.3a3.36 3.36 0 01-.17-.42s0-.02 0-.06c.15-.22.3-.44.48-.7.09.22.15.42.24.63.13-.08.13-.1.06-.3-.04-.18-.1-.33-.15-.52.2-.18.37-.35.55-.55.06.24.1.48.17.72.05-.04.09-.07.13-.11-.04-.26-.08-.5-.13-.78.2-.11.35-.22.52-.31.03 0 .07.07.1.1.04.2.06.4.08.62.04-.02.09-.02.13-.04-.02-.27-.04-.53-.07-.83.2-.05.38-.11.57-.15.02 0 .05.08.07.13.02.17 0 .32.02.5 0 .06.04.1.06.15.03-.04.07-.1.07-.15.02-.18 0-.35 0-.5 0-.13.02-.18.09-.18.15.02.28.02.43.02.07 0 .09.07.09.18-.04.2-.04.37-.04.52 0 .04.04.13.06.15.02 0 .07-.06.07-.1.02-.18.04-.35.06-.53.02-.13.05-.17.11-.15.13.06.26.1.42.15.08.02.1.09.06.24-.04.2-.06.37-.09.59.05.02.1.04.14.07.04-.2.08-.4.13-.6.02-.12.06-.17.13-.12.13.1.26.21.39.3.06.04.09.13.04.24-.04.13-.06.26-.1.4-.07.17-.03.25.08.28.07-.22.15-.46.22-.72.15.2.3.37.46.56.02.03.02.13 0 .18-.07.17-.13.35-.2.54.04.05.07.1.11.16.1-.22.2-.42.3-.66.16.26.29.5.44.77-.1.2-.2.39-.3.58.02.07.04.11.08.2.09-.13.18-.24.24-.4.09-.15.13-.12.2.05.06.2.13.37.22.55.06.13.04.2-.02.28-.07.09-.16.17-.2.28-.02.05-.04.13-.02.18.02.1.06.08.1.04.1-.1.2-.22.33-.35.09.33.18.66.26 1-.1.11-.21.2-.32.29-.05.04-.09.1-.05.2.03.04.07.06.11.04.09-.05.18-.13.26-.18.03-.02.1.03.1.07.06.3.1.63.14.96-.15.09-.28.15-.41.22-.02.24 0 .26.11.21.04-.02.09-.04.15-.06.18-.07.2-.07.22.26.02.22.02.42.02.63 0 .16-.02.2-.09.2-.1.02-.21.04-.32.06 0 .1 0 .16 0 .24.13 0 .24.03.35 0 .06 0 .08.05.08.18-.02.26-.02.54-.02.8 0 .16-.04.18-.1.18-.12-.02-.23-.04-.33-.04-.05.26-.05.28.08.3.11.02.2.07.3.09-.04.35-.08.68-.12 1 0 .05-.07.09-.09.09-.09-.02-.17-.09-.28-.11-.02 0-.07.07-.11.09.02.06.02.13.04.15.09.07.18.1.26.17.02.03.07.11.07.14-.07.32-.15.63-.22.98-.1-.1-.2-.18-.3-.24-.11-.1-.11-.1-.16.15.09.1.2.2.3.3.05.05.1.1.05.2-.1.28-.2.57-.3.87-.1-.1-.18-.22-.27-.32-.08-.11-.13-.11-.17.1.1.16.2.33.33.5-.16.29-.29.57-.44.86-.09-.16-.15-.29-.22-.42-.06-.15-.1-.13-.17.07.09.2.17.37.26.6-.17.25-.33.47-.5.7a7.9 7.9 0 01-.24-.65c-.04.05-.07.09-.11.15.07.24.13.46.22.7-.18.18-.33.33-.5.48-.03.02-.07-.02-.1-.06-.03-.16-.06-.3-.1-.46-.02-.05-.07-.07-.09-.09a.81.81 0 00-.04.2c.02.15.06.32.09.48.02.1.02.17-.05.22-.15.08-.28.17-.43.26-.07.04-.09 0-.11-.11a26.5 26.5 0 00-.07-.48c0-.05-.04-.09-.08-.11-.03.06-.07.13-.07.2 0 .17.02.34.04.52 0 .04-.02.15-.06.15-.15.04-.29.09-.44.13-.08.02-.1-.04-.1-.2 0-.19-.03-.36-.03-.56-.04 0-.09 0-.13 0 0 .22 0 .41 0 .63 0 .15-.02.2-.1.2-.14-.02-.3-.02-.42-.02-.07 0-.09-.07-.09-.2.02-.2.02-.41.02-.61-.09-.07-.13-.02-.15.15-.02.15-.02.33-.04.48 0 .04-.07.11-.1.11-.14-.04-.3-.1-.45-.17-.02-.03-.06-.13-.04-.18.02-.15.04-.28.06-.43.05-.2.02-.27-.1-.27-.05.2-.1.4-.12.6-.02.12-.04.17-.13.1-.13-.1-.26-.2-.37-.28-.08-.07-.08-.13-.04-.26s.09-.29.1-.44c0-.04-.01-.13-.01-.17-.05.02-.1.02-.11.06-.07.18-.13.37-.2.61-.17-.2-.33-.4-.5-.59.07-.2.13-.37.2-.54.04-.09.06-.18 0-.22-.03-.02-.1.02-.11.07-.09.15-.16.32-.24.52-.16-.26-.29-.5-.44-.76.11-.2.22-.4.33-.61a.65.65 0 01-.09-.18c-.09.15-.17.3-.28.44-.05.06-.07.13-.11.02-.11-.26-.2-.52-.33-.8.13-.18.24-.34.35-.49-.02-.2-.07-.24-.15-.13-.09.11-.18.22-.29.33-.08-.33-.17-.63-.24-.94 0-.02.03-.1.07-.15-.02-.13.09-.22.2-.3zm7.95-5.7c-.08.03-.13.08-.2.12-.06.05-.08 0-.1-.1-.02-.18-.07-.33-.09-.5-.09-.4-.09-.38.13-.58.2-.2.2-.08.09-.5-.1-.39-.07-.32-.26-.13-.13.15-.13.18-.02.42.02-.07.04-.13.04-.2.02-.04.04-.09.04-.13.03.02.05.04.07.09.02.06.02.13.04.2-.06.06-.13.1-.17.17-.07.06-.09.04-.13-.07-.07-.22-.13-.43-.2-.65-.04-.11-.02-.18.02-.24.09-.11.18-.24.29-.4-.1-.2-.16-.37-.24-.58-.1.15-.18.28-.27.41.05.09.07.15.11.24a.74.74 0 01.07-.17c.02-.07.02-.11.02-.18.02.02.04.07.09.09.04.09.06.17-.02.26-.07.07-.11.15-.18.24-.09-.17-.15-.35-.24-.52-.15-.3-.15-.3.02-.61.16-.3.16-.24 0-.53-.15-.28-.13-.28-.26.03-.1.24-.1.24.05.41 0-.09.02-.15.02-.22 0-.04.02-.09.02-.15.02 0 .04 0 .06.02.05.04.07.09.11.13-.06.15-.13.24-.15.33-.04.1-.09.1-.13.02-.1-.15-.2-.33-.3-.46a.23.23 0 01-.03-.24c.05-.13.11-.26.16-.39.02-.04.02-.15 0-.17-.1-.13-.18-.22-.29-.35-.06.2-.1.37-.17.54.04.07.09.11.17.2 0-.13 0-.2 0-.26 0-.05 0-.11 0-.13-.02.04 0 .04.02.04.07.06.14.13.05.3-.02.07-.05.16-.09.22-.02.02-.06.07-.06.05-.16-.16-.31-.33-.46-.48.02-.1.04-.16.04-.24.13-.53.13-.55-.17-.7l-.03-.02c-.02.02-.04.02-.06.04-.04.15-.07.33-.11.52.07.03.13.07.15.05.07-.07.02-.15-.02-.22 0-.02.04-.13.04-.13.1 0 .14.1.1.28-.03.07-.03.13-.05.2.02.13-.02.13-.07.1-.08-.06-.17-.1-.26-.17-.22-.13-.22-.13-.15-.56.04-.3.04-.3-.13-.4-.22-.1-.22-.1-.26.29-.05.28-.03.3.15.3 0-.06 0-.13-.02-.2 0-.06-.02-.1-.05-.17.05 0 .07-.02.11-.02.02 0 .05.02.09.04a2.4 2.4 0 00-.04.4c-.03.1-.05.13-.11.13A2.9 2.9 0 0018.7 8c-.06-.02-.08-.07-.06-.15 0-.16.02-.31.02-.46 0-.11 0-.2-.07-.18-.1.02-.2.05-.3.07 0 0 0 .02 0 .04 0 .18-.02.33-.02.5.04 0 .06.03.08.03.05-.03.07-.05.1-.07-.03-.04-.05-.09-.05-.15-.02-.05-.02-.09-.02-.13 0-.03.04-.05.04-.05.04 0 .09 0 .13 0 0 .13-.02.24 0 .35 0 .15-.02.22-.13.22-.13 0-.26 0-.4.02-.06 0-.08-.02-.1-.15-.02-.68-.02-.68-.4-.52 0 0-.02.02-.02.04.03.17.03.37.05.57.02 0 .04 0 .04 0 .04-.03.07-.07.11-.11-.02-.05-.04-.09-.07-.13-.02-.03-.02-.07-.02-.11 0-.02.02-.07.05-.09.04-.02.08-.02.13-.02 0 .15.02.28.02.41 0 .05-.02.13-.04.13-.18.07-.35.13-.53.2-.02-.13-.04-.26-.06-.4-.07-.43-.05-.34-.24-.23-.24.13-.22.08-.13.48.04.26.06.26.2.08-.03-.04-.03-.08-.05-.13-.02-.04-.04-.08-.09-.13.02-.04.07-.06.09-.1.04-.05.09-.03.1.08.03.09.05.2.05.28 0 .05-.02.16-.04.16-.15.13-.33.24-.5.37-.07-.22-.11-.44-.18-.68-.13.13-.24.22-.35.35.07.2.11.35.16.52a.38.38 0 01.1-.08c.03-.03.05-.1.03-.11 0-.05-.05-.07-.07-.09-.02-.02-.04-.04-.06-.07.02-.04.04-.1.06-.13.07-.08.11-.08.13.07.02.09.05.15.07.22.02.08.02.15-.05.2-.13.12-.26.28-.37.4-.06.07-.08.07-.13-.04-.04-.13-.08-.26-.15-.37-.02-.04-.09-.06-.09-.04-.08.1-.17.24-.26.37.07.18.13.33.22.48.02-.04.04-.04.06-.07.03-.04.05-.1.07-.15-.04-.02-.07-.04-.1-.06-.03-.02-.05-.05-.07-.07 0-.02 0-.09.02-.1.02-.05.06-.1.1-.16.05.13.12.22.14.35.02.04 0 .15-.02.17-.11.2-.22.35-.33.55-.05.09-.09.09-.13 0-.07-.11-.11-.22-.18-.33a.07.07 0 00-.08 0c-.1.13-.16.3-.24.46.08.13.17.26.26.4.04-.1.06-.18.13-.3-.09-.01-.15-.04-.24-.06.13-.3.13-.3.24-.1.02.02.02.04.04.06.07.09.07.15 0 .26-.09.18-.17.35-.24.55-.06.17-.1.17-.2.06-.26-.33-.26-.33-.4.2v.02c0 .06 0 .15.01.17.07.1.16.16.22.24.02-.02.02-.04.02-.04.02-.07.02-.15.05-.22-.05 0-.09.02-.11 0-.02 0-.07-.04-.11-.09.09-.06.06-.3.17-.21.07.06.13.15.2.21-.09.31-.18.62-.28.92 0 .02-.07.04-.1.02-.08-.06-.14-.13-.23-.2-.02-.02-.09 0-.09.05-.04.17-.09.37-.13.59.09.06.18.13.26.17.02 0 .07-.04.07-.08.02-.07 0-.14 0-.2-.02 0-.05 0-.09 0a.17.17 0 00-.09.04c0-.06 0-.13.03-.2.02-.04.06-.12.06-.1.09.04.15.1.22.17-.07.33-.11.63-.18.92 0 .04-.06.1-.1.08-.11-.02-.22-.08-.33-.13-.05.24-.07.48-.11.72.13.05.22.07.35.11 0-.13 0-.22 0-.3-.05.02-.07.06-.11.08-.02 0-.07 0-.09-.04-.04-.15.05-.28.13-.26.05.02.09.02.13.04.07.02.1.09.07.2-.02.24-.04.5-.07.76 0 .13-.04.2-.1.18-.11-.03-.22 0-.33-.03 0 .22-.02.42-.02.6 0 .04.04.1.06.12.09 0 .18 0 .26 0 0-.04.02-.06.02-.08 0-.09-.02-.16-.02-.24a.26.26 0 01-.1.1c-.03.03-.1.03-.1-.02-.04-.13.03-.3.12-.3.04 0 .08 0 .13.02.02.02.06.07.06.11 0 .33 0 .68 0 1-.06.02-.13.05-.2.07-.06 0-.1 0-.13 0-.1 0-.15.09-.1.28 0 .05 0 .09 0 .13.02.35.02.35.2.3.14-.04.17-.06.1-.36-.02.04-.06.06-.09.1a.48.48 0 01-.06.12.65.65 0 01-.05-.22c0-.05.03-.13.05-.13.09-.05.15-.05.24-.07.02.33.06.63.09.96 0 .04 0 .07 0 .1-.05.03-.1.07-.11.1-.3.17-.33.2-.2.74v.02c.02.02.04.07.07.07.08-.05.17-.11.26-.18 0-.06 0-.09-.02-.1-.03-.07-.05-.12-.07-.18-.02.04-.04.1-.07.15-.02.04-.04.07-.06.1-.09-.27-.09-.32.06-.43.05-.02.1-.04.16-.06.06.3.13.6.17.91 0 .05-.02.16-.04.18-.07.08-.15.15-.24.24-.02.02-.07.1-.05.15.05.2.1.37.16.57.1-.13.2-.22.28-.33 0-.04-.02-.07-.02-.09-.02-.04-.07-.1-.09-.15-.02.07-.02.13-.04.17-.02.05-.09.07-.09.05-.06-.11-.06-.24.02-.33.05-.04.07-.06.11-.1.07-.07.09-.05.13.06.07.22.13.43.2.65.04.13.02.2-.05.26-.08.11-.17.24-.26.35.09.22.16.4.24.6.09-.14.16-.23.22-.36.02-.02.02-.13.02-.15-.02-.04-.06-.09-.08-.13-.03.06-.03.1-.05.17 0 .05-.02.11-.02.11-.02.02-.04 0-.07-.04-.02-.05-.04-.11-.06-.2.09-.13.15-.22.24-.33.13.29.24.55.37.83-.09.2-.2.37-.28.57.08.17.2.33.28.5.09-.17.15-.33.22-.48-.02-.06-.05-.1-.09-.13-.02-.02-.04-.02-.06 0-.03.02-.03.09-.03.13 0 .07 0 .11 0 .18-.04-.03-.08-.05-.1-.11-.03-.02-.03-.13 0-.18.04-.1.1-.21.15-.32.13.2.24.37.35.52.08.1.08.2.02.37-.2.48-.18.5.09.76l.02.02c.02 0 .06 0 .06-.04.05-.15.09-.3.15-.46-.02-.02-.04-.06-.06-.06-.02-.02-.07-.02-.11-.05 0 .07 0 .14 0 .2 0 .07-.02.11-.02.2a1.2 1.2 0 01-.15-.2c.06-.17.1-.3.17-.48.17.18.33.35.5.52-.04.2-.09.37-.13.55-.02.06 0 .2.02.2.09.08.2.15.3.24.05-.18.07-.35.12-.5 0-.05-.02-.12-.05-.14-.02-.02-.06-.02-.1-.02 0 .07 0 .13 0 .18 0 .06 0 .13 0 .2-.2-.12-.2-.12-.11-.42 0-.02.02-.07.02-.09.02-.1.04-.13.1-.09.14.09.27.18.4.24.06.05.09.09.06.22-.02.2-.06.4-.08.61.13.05.26.11.39.15.02-.24.04-.41.06-.58-.02-.03-.02-.05-.02-.05-.04 0-.08 0-.13 0 .02.07.05.13.05.2 0 .04-.03.15-.05.15-.09.04-.15-.06-.13-.24 0-.06.02-.13.02-.2 0-.1.05-.17.11-.15.13.05.29.09.42.11.06.02.08.07.06.18 0 .15-.02.32-.02.48 0 .04.02.13.04.13.3.1.37-.03.33-.61-.04.02-.1 0-.15.04-.05.1 0 .17.04.22 0 0 0 .13-.02.15-.09.09-.15-.02-.15-.2 0-.06 0-.13 0-.21 0-.11.02-.18.08-.18.14 0 .29-.02.42-.02.09-.02.1.04.1.2 0 .15 0 .3.03.43 0 .05.02.13.04.13.13-.02.24-.06.37-.08-.02-.24-.04-.42-.06-.62-.05.03-.07.03-.11.03-.02.02-.07.04-.07.06 0 .05.03.09.05.13.02.05.04.09.06.16-.04.02-.06.06-.1.08-.03 0-.07-.04-.07-.08-.02-.16-.02-.31-.02-.46.15-.07.3-.11.45-.18.11-.06.16 0 .18.18.06.54.1.59.4.3.01-.02.04-.1.04-.13-.03-.15-.07-.3-.1-.48-.04.02-.08.02-.1.07a.17.17 0 00-.04.1c0 .05.02.07.04.12.02.04.04.06.06.1-.02.05-.04.1-.08.11-.07.05-.11.05-.11-.1 0-.1-.05-.18-.05-.27 0-.04.03-.13.05-.15.15-.13.33-.24.5-.37.04.17.09.37.15.54.02.05.07.11.09.1.1-.1.2-.18.3-.3-.06-.19-.1-.36-.17-.58-.04.1-.09.17-.1.26.03.05.06.07.1.11.02.04.02.13.02.18-.06.13-.13.1-.17-.05-.02-.06-.02-.1-.05-.17-.04-.13-.02-.18.05-.24.13-.13.24-.26.35-.42.06-.08.08-.06.13.05.06.15.1.3.17.48.11-.16.22-.3.33-.46a7.4 7.4 0 00-.2-.42c-.02-.02-.06 0-.08.03a.41.41 0 00-.05.17c.02.02.05.04.07.07.02.02.06.04.08.04-.02.06-.04.13-.06.17-.02.03-.09.03-.09 0-.04-.1-.09-.21-.13-.35.15-.26.3-.5.46-.74.1.18.2.33.3.53.1-.18.18-.33.24-.48.03-.02 0-.11 0-.13-.06-.11-.13-.22-.21-.33-.03.04-.05.09-.05.1-.02.07-.02.12-.02.18.02 0 .07 0 .09.02.02 0 .04 0 .06.03 0 .04 0 .08 0 .13-.02.06-.06.1-.08.17-.07-.09-.11-.17-.16-.26a.24.24 0 010-.24c.09-.2.18-.4.26-.59.05-.13.1-.13.16-.04.08.1.17.2.26.32.06-.2.13-.34.2-.54 0-.02 0-.1-.03-.13-.08-.09-.15-.18-.24-.24-.02.04-.02.04-.02.06-.02.07-.02.16-.02.22.04 0 .07-.02.1-.02s.05.02.1.02c0 .02.02.05.02.07-.05.06-.11.2-.15.2-.07-.03-.14-.16-.2-.25.1-.32.2-.63.3-.95.07.04.14.08.2.13.22.17.18.2.28-.22.1-.33.1-.33-.1-.46-.16-.09-.16-.09-.2.24.06-.02.15-.04.22-.07-.07.38-.07.38-.22.24-.02-.02-.04-.04-.04-.04-.07-.04-.07-.1-.05-.22.05-.24.11-.46.13-.7.02-.15.07-.2.13-.15.09.05.2.09.3.13.03-.21.07-.41.1-.6 0-.05-.03-.14-.05-.16-.09-.04-.17-.04-.26-.07 0 .03-.02.05-.02.07 0 .09-.02.2 0 .24.04.09.06 0 .1-.09 0 0 .07.02.1.07.02.15-.05.28-.14.24-.04-.02-.06-.05-.1-.05-.07 0-.1-.06-.07-.17.02-.26.04-.52.07-.8 0-.12.04-.16.1-.16.1.02.18.02.27.02.02 0 .06-.06.08-.1.02-.2.02-.4.02-.62-.1 0-.21 0-.34-.02 0 .11.02.2.02.3.04-.04.06-.08.1-.1.03-.02.07 0 .1.02.04.13-.03.28-.1.28-.04 0-.06 0-.1 0-.07 0-.11-.04-.09-.17 0-.24 0-.5 0-.74 0-.16.02-.22.11-.22.1-.02.2-.04.3-.07-.02-.26-.02-.48-.04-.72-.13.05-.22.1-.35.13.02.11.02.24.05.29.06.06.06-.05.08-.13 0-.02.07 0 .09.02.04.15.02.26-.09.3-.04.03-.08.05-.13.03-.02 0-.06-.07-.06-.11a9.6 9.6 0 00-.09-.79c-.02-.13 0-.17.07-.22.1-.04.21-.13.32-.2-.02-.19-.06-.38-.09-.56 0-.04-.06-.1-.06-.09-.09.05-.18.11-.26.18 0 .09.02.13.02.2 0 .04.04.08.04.06.03 0 .05-.07.07-.09a.31.31 0 00.04-.13c.02.05.05.09.07.13-.05.09-.05.16-.05.22z"/></svg>